<svg width="513" height="298" viewBox="0 0 513 298" fill="none" xmlns="http://www.w3.org/2000/svg">
<path d="M142.353 294.356C220.663 294.356 284.145 230.873 284.145 152.564C284.145 74.2538 220.663 10.7712 142.353 10.7712C64.0431 10.7712 0.560547 74.2538 0.560547 152.564C0.560547 230.873 64.0431 294.356 142.353 294.356Z" stroke="white" stroke-width="0.7527" stroke-miterlimit="10" stroke-dasharray="0.75 3.01"/>
<path d="M370.317 294.356C448.627 294.356 512.109 230.873 512.109 152.564C512.109 74.2538 448.627 10.7712 370.317 10.7712C292.007 10.7712 228.524 74.2538 228.524 152.564C228.524 230.873 292.007 294.356 370.317 294.356Z" stroke="white" stroke-width="0.7527" stroke-miterlimit="10" stroke-dasharray="0.75 3.01"/>
<path d="M119.808 15.316C119.808 23.3232 113.32 29.8192 105.303 29.8192C97.2922 29.8192 90.7988 23.3232 90.7988 15.316C90.7988 7.30618 97.2922 0.809326 105.303 0.809326C113.32 0.809326 119.808 7.30618 119.808 15.316Z" fill="#B70F93"/>
<path d="M239.358 265.658C239.358 273.666 232.87 280.163 224.854 280.163C216.846 280.163 210.349 273.666 210.349 265.658C210.349 257.648 216.846 251.151 224.854 251.151C232.87 251.151 239.358 257.648 239.358 265.658Z" fill="#B70F93"/>
<path d="M440.448 283.495C440.448 291.503 433.961 298 425.947 298C417.939 298 411.439 291.503 411.439 283.495C411.439 275.484 417.939 268.988 425.947 268.988C433.961 268.988 440.448 275.484 440.448 283.495Z" fill="#B70F93"/>
<path fill-rule="evenodd" clip-rule="evenodd" d="M313 215C346.137 215 373 188.137 373 155C373 121.863 346.137 95 313 95C287.571 95 265.837 110.819 257.102 133.152C267.472 136.387 275 146.064 275 157.5C275 168.227 268.376 177.408 258.994 181.174C268.717 201.197 289.246 215 313 215ZM339 155.5C339 169.583 327.583 181 313.5 181C299.417 181 288 169.583 288 155.5C288 141.417 299.417 130 313.5 130C327.583 130 339 141.417 339 155.5Z" fill="#B70F93"/>
<path d="M210 153.5C210 177.605 224.333 198.343 245 208V99C224.333 108.656 210 129.395 210 153.5Z" fill="#B70F93"/>
<path d="M168 153.001C168 170.251 178.237 185.09 193 192V114C178.237 120.91 168 135.752 168 153.001Z" fill="#B70F93"/>
<path d="M419 156.5C419 132.395 405.077 111.656 385 102V211C405.077 201.343 419 180.604 419 156.5Z" fill="#B70F93"/>
<path d="M461 157.5C461 140.47 450.762 125.822 436 119V196C450.762 189.179 461 174.528 461 157.5Z" fill="#B70F93"/>
</svg>
