<svg width="145" height="35" viewBox="0 0 145 35" fill="none" xmlns="http://www.w3.org/2000/svg">
<path d="M59.8077 22.4987C59.7343 22.352 59.6719 22.1833 59.6207 21.9926C59.5693 21.8018 59.5253 21.6001 59.4887 21.3874C59.3199 21.5708 59.1255 21.7432 58.9055 21.9045C58.6855 22.0659 58.4397 22.2089 58.1684 22.3336C57.9043 22.4511 57.6108 22.5426 57.2881 22.6087C56.9654 22.6821 56.6169 22.7187 56.2429 22.7187C55.6341 22.7187 55.0729 22.6307 54.5595 22.4547C54.0534 22.2786 53.617 22.0329 53.2502 21.7175C52.8835 21.4021 52.5974 21.0281 52.392 20.5952C52.1867 20.1552 52.084 19.6784 52.084 19.1649C52.084 17.9107 52.5498 16.9425 53.4813 16.2603C54.4202 15.5708 55.8175 15.2261 57.6732 15.2261H59.3785V14.5219C59.3785 13.9498 59.1916 13.4987 58.8175 13.1687C58.4433 12.8312 57.9043 12.6626 57.2001 12.6626C56.5766 12.6626 56.1219 12.7982 55.8358 13.0697C55.5498 13.3337 55.4068 13.6895 55.4068 14.1368H52.3481C52.3481 13.6307 52.4581 13.1503 52.6781 12.6955C52.9055 12.2407 53.2319 11.8411 53.6573 11.4962C54.0901 11.1515 54.6146 10.8801 55.2307 10.6821C55.8542 10.4767 56.5656 10.374 57.3652 10.374C58.084 10.374 58.7514 10.462 59.3675 10.6381C59.991 10.8141 60.5302 11.0745 60.9849 11.4192C61.4397 11.764 61.7954 12.2004 62.0522 12.7285C62.3089 13.2493 62.4372 13.8544 62.4372 14.5439V19.649C62.4372 20.2872 62.4776 20.8154 62.5583 21.2334C62.6389 21.6515 62.7564 22.0109 62.9103 22.3116V22.4987H59.8077ZM56.892 20.3532C57.2001 20.3532 57.4862 20.3166 57.7502 20.2432C58.0143 20.1698 58.2526 20.0745 58.4654 19.9571C58.6781 19.8398 58.8614 19.7078 59.0155 19.561C59.1695 19.407 59.2906 19.2529 59.3785 19.099V17.0525H57.8162C57.3394 17.0525 56.9323 17.1002 56.595 17.1955C56.2576 17.2835 55.9825 17.4119 55.7698 17.5806C55.5571 17.7419 55.3993 17.94 55.2966 18.1748C55.194 18.4021 55.1427 18.6515 55.1427 18.9229C55.1427 19.3337 55.2856 19.6747 55.5717 19.9461C55.8651 20.2176 56.3052 20.3532 56.892 20.3532Z" fill="white"/>
<path d="M74.4513 10.374C74.9135 10.374 75.3389 10.407 75.7276 10.473C76.1237 10.5317 76.4428 10.5977 76.6848 10.6711L76.2338 13.7188C75.8303 13.6234 75.4159 13.5537 74.9905 13.5097C74.5723 13.4583 74.1727 13.4327 73.7912 13.4327C72.933 13.4327 72.2436 13.5978 71.7227 13.9278C71.2092 14.2578 70.8242 14.731 70.5675 15.3471V22.4987H67.5088V10.5941H70.3584L70.5015 12.5415C70.9855 11.8667 71.565 11.3386 72.2399 10.9572C72.9146 10.5684 73.6518 10.374 74.4513 10.374Z" fill="white"/>
<path d="M87.0496 18.7685L88.0838 10.5938H90.8894L88.7549 22.4984H86.0703L84.508 14.9287L83.0007 22.4984H80.3161L78.1816 10.5938H80.9762L82.0104 18.8016L83.5068 10.5938H85.5532L87.0496 18.7685Z" fill="white"/>
<path d="M98.7447 22.7187C97.8278 22.7187 96.9953 22.5684 96.2472 22.2677C95.499 21.9669 94.8572 21.5598 94.3217 21.0464C93.7863 20.5256 93.3719 19.9168 93.0785 19.22C92.7924 18.5158 92.6494 17.764 92.6494 16.9645V16.5243C92.6494 15.6149 92.7924 14.7859 93.0785 14.0378C93.3646 13.2824 93.7643 12.6331 94.2778 12.0904C94.7912 11.5476 95.4 11.1259 96.1042 10.8251C96.8082 10.5244 97.5748 10.374 98.4036 10.374C99.2618 10.374 100.025 10.5171 100.692 10.8031C101.367 11.0818 101.935 11.4779 102.397 11.9914C102.867 12.5048 103.223 13.1246 103.465 13.8508C103.707 14.5696 103.828 15.3654 103.828 16.2383V17.5366H95.752C95.8108 17.94 95.9281 18.3104 96.1042 18.6478C96.2875 18.978 96.5186 19.2639 96.7972 19.5061C97.076 19.7481 97.3951 19.9351 97.7545 20.0671C98.1139 20.1992 98.5063 20.2652 98.9317 20.2652C99.2325 20.2652 99.5295 20.2359 99.8229 20.1771C100.124 20.1185 100.41 20.0342 100.681 19.9241C100.953 19.8068 101.206 19.6637 101.44 19.4951C101.675 19.3263 101.88 19.1283 102.056 18.9009L103.586 20.5513C103.395 20.8227 103.146 21.0903 102.838 21.3545C102.537 21.6111 102.177 21.8422 101.759 22.0476C101.349 22.2457 100.89 22.407 100.384 22.5317C99.878 22.6564 99.3315 22.7187 98.7447 22.7187ZM98.3816 12.8495C98.0368 12.8495 97.7214 12.9119 97.4355 13.0366C97.1494 13.1539 96.8963 13.3263 96.6762 13.5537C96.4635 13.7811 96.2838 14.0525 96.1372 14.3679C95.9904 14.6833 95.8804 15.0354 95.8071 15.4242H100.824V15.182C100.81 14.8593 100.747 14.5549 100.637 14.2688C100.527 13.9829 100.369 13.7371 100.164 13.5317C99.9586 13.319 99.7056 13.1539 99.4049 13.0366C99.1115 12.9119 98.7704 12.8495 98.3816 12.8495Z" fill="white"/>
<path d="M113.939 22.4987C113.865 22.352 113.803 22.1833 113.751 21.9926C113.7 21.8018 113.656 21.6001 113.62 21.3874C113.45 21.5708 113.256 21.7432 113.037 21.9045C112.816 22.0659 112.57 22.2089 112.3 22.3336C112.035 22.4511 111.741 22.5426 111.419 22.6087C111.096 22.6821 110.748 22.7187 110.374 22.7187C109.765 22.7187 109.204 22.6307 108.69 22.4547C108.185 22.2786 107.748 22.0329 107.381 21.7175C107.014 21.4021 106.728 21.0281 106.523 20.5952C106.318 20.1552 106.215 19.6784 106.215 19.1649C106.215 17.9107 106.681 16.9425 107.612 16.2603C108.551 15.5708 109.948 15.2261 111.804 15.2261H113.51V14.5219C113.51 13.9498 113.322 13.4987 112.948 13.1687C112.574 12.8312 112.035 12.6626 111.331 12.6626C110.707 12.6626 110.252 12.7982 109.967 13.0697C109.68 13.3337 109.538 13.6895 109.538 14.1368H106.479C106.479 13.6307 106.589 13.1503 106.809 12.6955C107.036 12.2407 107.363 11.8411 107.788 11.4962C108.221 11.1515 108.745 10.8801 109.361 10.6821C109.985 10.4767 110.696 10.374 111.496 10.374C112.215 10.374 112.883 10.462 113.499 10.6381C114.122 10.8141 114.661 11.0745 115.115 11.4192C115.571 11.764 115.927 12.2004 116.183 12.7285C116.44 13.2493 116.568 13.8544 116.568 14.5439V19.649C116.568 20.2872 116.609 20.8154 116.69 21.2334C116.77 21.6515 116.887 22.0109 117.041 22.3116V22.4987H113.939ZM111.023 20.3532C111.331 20.3532 111.616 20.3166 111.882 20.2432C112.146 20.1698 112.384 20.0745 112.596 19.9571C112.809 19.8398 112.992 19.7078 113.147 19.561C113.301 19.407 113.421 19.2529 113.51 19.099V17.0525H111.947C111.47 17.0525 111.064 17.1002 110.725 17.1955C110.388 17.2835 110.113 17.4119 109.901 17.5806C109.688 17.7419 109.53 17.94 109.428 18.1748C109.325 18.4021 109.274 18.6515 109.274 18.9229C109.274 19.3337 109.416 19.6747 109.703 19.9461C109.996 20.2176 110.437 20.3532 111.023 20.3532Z" fill="white"/>
<path d="M125.096 18.9665L125.25 19.8248L125.404 18.9996L128.023 10.5938H131.213L126.691 22.4984H123.819L119.275 10.5938H122.466L125.096 18.9665Z" fill="white"/>
<path d="M139.344 22.7187C138.427 22.7187 137.594 22.5684 136.846 22.2677C136.097 21.9669 135.456 21.5598 134.92 21.0464C134.385 20.5256 133.97 19.9168 133.677 19.22C133.391 18.5158 133.248 17.764 133.248 16.9645V16.5243C133.248 15.6149 133.391 14.7859 133.677 14.0378C133.964 13.2824 134.363 12.6331 134.876 12.0904C135.39 11.5476 135.999 11.1259 136.703 10.8251C137.407 10.5244 138.173 10.374 139.002 10.374C139.861 10.374 140.623 10.5171 141.291 10.8031C141.965 11.0818 142.534 11.4779 142.996 11.9914C143.465 12.5048 143.821 13.1246 144.063 13.8508C144.306 14.5696 144.426 15.3654 144.426 16.2383V17.5366H136.35C136.41 17.94 136.527 18.3104 136.703 18.6478C136.886 18.978 137.117 19.2639 137.395 19.5061C137.675 19.7481 137.993 19.9351 138.353 20.0671C138.712 20.1992 139.104 20.2652 139.53 20.2652C139.831 20.2652 140.128 20.2359 140.421 20.1771C140.722 20.1185 141.008 20.0342 141.28 19.9241C141.551 19.8068 141.804 19.6637 142.039 19.4951C142.273 19.3263 142.479 19.1283 142.655 18.9009L144.184 20.5513C143.993 20.8227 143.744 21.0903 143.436 21.3545C143.135 21.6111 142.776 21.8422 142.357 22.0476C141.947 22.2457 141.489 22.407 140.983 22.5317C140.476 22.6564 139.93 22.7187 139.344 22.7187ZM138.981 12.8495C138.636 12.8495 138.32 12.9119 138.034 13.0366C137.748 13.1539 137.495 13.3263 137.275 13.5537C137.062 13.7811 136.883 14.0525 136.736 14.3679C136.589 14.6833 136.478 15.0354 136.405 15.4242H141.422V15.182C141.408 14.8593 141.346 14.5549 141.236 14.2688C141.126 13.9829 140.967 13.7371 140.763 13.5317C140.557 13.319 140.304 13.1539 140.003 13.0366C139.71 12.9119 139.368 12.8495 138.981 12.8495Z" fill="white"/>
<path d="M17.8006 33.148C26.527 33.148 33.6011 26.0738 33.6011 17.3474C33.6011 8.62103 26.527 1.54688 17.8006 1.54688C9.07415 1.54688 2 8.62103 2 17.3474C2 26.0738 9.07415 33.148 17.8006 33.148Z" stroke="white" stroke-width="2.5"/>
<path d="M20.7504 23.0574C20.6737 22.9039 20.6085 22.7274 20.5549 22.528C20.5011 22.3284 20.4551 22.1174 20.4167 21.8949C20.2402 22.0867 20.0369 22.2671 19.8067 22.4359C19.5765 22.6047 19.3195 22.7544 19.0355 22.8848C18.7594 23.0075 18.4524 23.1035 18.1148 23.1725C17.7772 23.2492 17.4128 23.2876 17.0214 23.2876C16.3846 23.2876 15.7976 23.1955 15.2605 23.0114C14.731 22.8272 14.2745 22.5702 13.8909 22.2403C13.5072 21.9103 13.2079 21.519 12.9931 21.0663C12.7782 20.6059 12.6709 20.1072 12.6709 19.5701C12.6709 18.258 13.158 17.2452 14.1326 16.5315C15.1147 15.8103 16.5764 15.4497 18.5177 15.4497H20.3016V14.7131C20.3016 14.1145 20.106 13.6427 19.7146 13.2974C19.3233 12.9444 18.7594 12.7679 18.0228 12.7679C17.3705 12.7679 16.8948 12.91 16.5956 13.1938C16.2964 13.4701 16.1467 13.8422 16.1467 14.3102H12.9471C12.9471 13.7808 13.0621 13.2783 13.2923 12.8025C13.5302 12.3268 13.8717 11.9086 14.3167 11.548C14.7694 11.1873 15.3181 10.9035 15.9625 10.6963C16.6148 10.4814 17.359 10.374 18.1954 10.374C18.9473 10.374 19.6455 10.4661 20.2901 10.6502C20.9423 10.8344 21.5062 11.1068 21.9819 11.4674C22.4577 11.828 22.8298 12.2846 23.0984 12.837C23.367 13.3818 23.5012 14.0149 23.5012 14.7361V20.0765C23.5012 20.744 23.5434 21.2965 23.6279 21.7338C23.7122 22.1712 23.835 22.5472 23.9962 22.8617V23.0574H20.7504ZM17.7005 20.8131C18.0228 20.8131 18.322 20.7747 18.5982 20.698C18.8744 20.6212 19.1238 20.5215 19.3463 20.3987C19.5688 20.276 19.7606 20.1378 19.9218 19.9844C20.0829 19.8233 20.2095 19.6621 20.3016 19.501V17.3603H18.6672C18.1686 17.3603 17.7427 17.4102 17.3897 17.5098C17.0367 17.602 16.749 17.7362 16.5265 17.9127C16.304 18.0815 16.139 18.2887 16.0316 18.5342C15.9242 18.772 15.8705 19.0329 15.8705 19.3168C15.8705 19.7466 16.0201 20.1033 16.3193 20.3873C16.6263 20.6711 17.0866 20.8131 17.7005 20.8131Z" fill="white"/>
</svg>
