<svg width="111" height="43" viewBox="0 0 111 43" fill="none" xmlns="http://www.w3.org/2000/svg">
<path fill-rule="evenodd" clip-rule="evenodd" d="M62.3297 14.894C62.2371 15.2896 62.1491 15.665 62.0753 15.9798C62.472 16.5684 62.9489 16.7575 63.5512 16.745C64.511 16.7251 65.4727 16.7105 66.4311 16.7523C67.4604 16.7973 68.4763 16.9304 69.4647 17.2791C70.8852 17.7804 71.6463 19.3246 71.3341 20.8208C70.961 22.6069 69.7272 23.5535 68.1524 24.1705C67.3336 24.4912 66.4823 24.6681 65.5983 24.7828C64.8622 24.8784 64.1364 24.9128 63.4034 24.9126C62.3604 24.9124 61.332 24.7172 60.3855 24.3164C59.5126 23.9469 58.6872 23.4218 58.4014 22.3864C58.4014 21.8609 58.4014 21.3356 58.4014 20.9056C58.7101 19.9331 59.4048 19.3841 60.1607 18.8324C59.8234 18.4664 59.5338 18.1525 59.1444 17.7301C59.0732 17.2544 58.9843 16.6584 58.9131 16.1827C59.5491 14.7211 59.6858 14.5294 60.4739 13.9789C60.3405 13.8192 60.2295 13.6416 60.0778 13.5114C59.1673 12.7308 58.6574 11.682 58.64 10.5512C58.6165 9.0576 59.0796 7.64731 60.3846 6.71139C61.447 5.94934 62.6456 5.55177 63.9672 5.56069C64.7626 5.5659 65.5562 5.52146 66.3093 5.88798C66.5115 5.98635 66.7936 5.9287 67.0392 5.92926C68.4004 5.93205 69.762 5.93056 71.1788 5.93056C71.2887 6.84249 71.1914 7.73248 71.2389 8.67658C70.5735 8.84338 69.8911 8.6604 69.1803 8.79373C69.2092 8.96258 69.2017 9.11878 69.2618 9.24151C70.1352 11.0239 69.0723 13.9594 66.5256 14.685C65.4445 14.993 64.352 15.2838 63.2115 14.9044C62.9885 14.8306 62.7206 14.894 62.3297 14.894ZM63.2799 8.46533C62.4876 8.89285 62.5408 9.72574 62.3559 10.3569C62.5147 11.1621 62.5233 11.9736 63.4988 12.4736C63.7363 12.5192 64.174 12.6032 64.5125 12.6681C64.9216 12.4571 65.2167 12.3048 65.5218 12.1476C65.6892 11.8207 65.8541 11.4988 66.0178 11.1792C66.0178 10.6498 66.0178 10.1272 66.0178 9.62905C65.8355 9.28484 65.6659 8.96518 65.5332 8.71433C64.7747 8.15739 64.047 8.01922 63.2799 8.46533ZM63.1118 22.3237C63.7947 22.3237 64.5377 22.3343 65.2805 22.3211C66.1779 22.3051 66.9537 22.016 67.4963 21.277C67.4963 20.9536 67.4963 20.6484 67.4963 20.291C67.2334 20.148 66.9715 20.0058 66.7484 19.8845C65.9452 19.8845 65.2012 19.9091 64.4593 19.8777C63.7037 19.8457 62.9502 19.7586 62.1556 19.6923C61.9267 20.1339 61.7203 20.5317 61.5582 20.8446C61.7069 21.7482 62.3461 22.0017 63.1118 22.3237Z" fill="#161D30"/>
<path fill-rule="evenodd" clip-rule="evenodd" d="M47.7884 10.1591C47.7884 12.9302 47.7912 15.6874 47.7845 18.4443C47.7838 18.7369 47.9037 19.0779 47.5303 19.296C46.297 19.296 45.0385 19.296 43.7461 19.296C43.7461 14.8455 43.7461 10.4281 43.7461 5.97039C44.8388 5.97039 45.9078 5.97039 46.9908 5.97039C47.0955 6.45351 47.1969 6.92119 47.3153 7.46772C47.4879 7.3593 47.6417 7.29013 47.7614 7.18283C48.5172 6.50614 49.3292 5.93934 50.3416 5.70429C51.6098 5.40974 52.8412 5.46385 53.9677 6.15561C54.7298 6.62366 55.1672 7.40468 55.3974 8.22697C55.6493 9.12738 55.8046 10.0625 55.7987 11.0171C55.7816 13.6814 55.7927 16.3458 55.7927 19.0022C55.6748 19.2758 55.4678 19.3373 55.1913 19.334C54.1381 19.3211 53.0846 19.3288 52.0485 19.3288C51.7058 19.1941 51.7132 18.9191 51.714 18.6314C51.719 16.7415 51.7175 14.8517 51.7162 12.9618C51.7156 12.1873 51.7154 11.4128 51.705 10.6383C51.6944 9.84498 51.4475 9.19655 50.6516 8.94886C49.42 8.77555 48.5462 9.32449 47.7884 10.1591Z" fill="#161D30"/>
<path fill-rule="evenodd" clip-rule="evenodd" d="M110.291 19.3144C108.948 19.3144 107.715 19.3144 106.418 19.3144C106.399 19.0734 106.366 18.8378 106.366 18.602C106.362 16.5271 106.365 14.4523 106.363 12.3773C106.362 11.6742 106.35 10.9781 106.216 10.2763C106.1 9.67438 105.78 9.28332 105.318 8.9352C104.92 8.9352 104.518 8.9352 104.008 8.9352C103.474 9.28536 102.867 9.68349 102.285 10.0658C102.285 11.6422 102.285 13.1274 102.285 14.6126C102.285 16.0969 102.285 17.5814 102.285 19.1459C102.094 19.2072 101.906 19.3181 101.716 19.3211C100.634 19.3382 99.5525 19.3292 98.5236 19.3292C98.1117 19.1141 98.2147 18.7745 98.2143 18.479C98.2102 15.1964 98.2115 11.9137 98.2115 8.63117C98.2115 7.76758 98.2115 6.904 98.2115 5.95693C99.3139 5.90003 100.384 5.95098 101.494 5.9255C101.61 6.44841 101.718 6.93822 101.84 7.48753C102.22 7.21176 102.579 6.98917 102.894 6.71637C104.091 5.68004 105.508 5.36391 107.012 5.60101C108.316 5.80649 109.277 6.53488 109.759 7.85164C110.088 8.75036 110.298 9.645 110.293 10.604C110.279 13.3292 110.29 16.0544 110.291 18.7795C110.291 18.9317 110.291 19.0834 110.291 19.3144Z" fill="#161D30"/>
<path fill-rule="evenodd" clip-rule="evenodd" d="M95.6074 12.5055C95.5966 14.1449 95.2701 15.5079 94.4707 16.6899C93.4217 18.2411 91.9861 19.2211 90.0786 19.5618C89.071 19.7418 88.1493 19.6367 87.2286 19.3386C84.665 18.5087 83.2382 16.7051 82.732 14.0794C82.5961 13.3732 82.5334 12.676 82.5927 11.9818C82.8049 9.50062 83.7942 7.43557 86.0963 6.25791C89.265 4.63693 93.3109 5.73128 94.9065 9.25701C95.3396 10.2141 95.6625 11.4634 95.6074 12.5055ZM88.4429 8.76125C88.2058 8.9275 87.9399 9.08277 87.71 9.28007C86.8996 9.97573 86.7626 10.957 86.6862 11.9277C86.6287 12.6544 86.6819 13.3813 86.8253 14.1168C87.0374 15.2048 87.5717 15.9522 88.5217 16.3579C88.9649 16.3579 89.3359 16.3579 89.6845 16.3579C90.6191 15.8981 91.1342 15.1853 91.3395 14.172C91.5688 13.0397 91.5768 11.9352 91.3185 10.8146C90.992 9.39853 90.1684 8.72685 88.7415 8.74656C88.6798 8.74749 88.6179 8.75251 88.4429 8.76125Z" fill="#161D30"/>
<path fill-rule="evenodd" clip-rule="evenodd" d="M11.3451 19.3103C10.2604 19.3103 9.27335 19.3103 8.21581 19.3103C8.11782 18.9028 8.02037 18.4971 7.90731 18.027C7.78495 18.0889 7.66315 18.1423 7.54916 18.2094C6.92044 18.58 6.32259 19.0183 5.66115 19.3147C3.65821 20.2127 0.969282 19.2989 0.317505 17.1734C0.255581 16.9717 0.131362 16.7889 0.00695746 16.5386C0.00695746 16.26 0.0201604 15.9188 0.00472598 15.5785C-0.084719 13.6219 1.108 12.423 2.51867 11.7733C3.72999 11.2154 5.0235 10.89 6.36332 10.7695C6.71663 10.7377 7.06158 10.6124 7.44893 10.521C7.37287 9.68257 7.01602 9.07133 6.19354 8.76915C4.68487 8.55233 3.31791 8.97687 2.07498 9.84621C1.4987 9.37258 0.790949 8.12742 0.573195 7.20154C2.62708 5.93053 4.86042 5.30665 7.27078 5.60306C8.7854 5.7892 10.0168 6.52131 10.7205 7.98609C11.1238 8.82606 11.3566 9.69038 11.36 10.6146C11.3698 13.3416 11.3693 16.0689 11.3711 18.7959C11.3713 18.9464 11.3564 19.0972 11.3451 19.3103ZM7.43461 12.9816C6.73356 13.1787 6.13143 13.3639 5.52094 13.5159C4.57702 13.7507 3.9589 14.2963 3.76532 15.238C3.86369 15.9383 4.21552 16.385 4.89538 16.5364C5.205 16.5364 5.51461 16.5364 5.81066 16.5364C6.12064 16.3742 6.43882 16.2494 6.70771 16.0559C6.98088 15.8591 7.20551 15.5949 7.43443 15.3764C7.43461 14.5961 7.43461 13.8573 7.43461 12.9816Z" fill="#161D30"/>
<path fill-rule="evenodd" clip-rule="evenodd" d="M74.161 5.98115C74.3347 4.73059 74.489 3.61932 74.6571 2.40949C75.6925 2.38736 76.7621 2.40298 77.91 2.40075C77.9727 3.5243 77.9111 4.62739 77.9482 5.72323C78.4443 6.11616 78.9882 5.8852 79.4895 5.92425C80.005 5.96423 80.5264 5.93317 81.0743 5.93317C81.0743 6.95482 81.0743 7.90208 81.0743 8.90959C80.0515 8.90959 79.0416 8.90959 77.9376 8.90959C77.9376 9.20452 77.9376 9.44068 77.9376 9.67703C77.9377 11.1939 77.9258 12.7107 77.9461 14.2272C77.9511 14.6158 78.0398 15.0069 78.1202 15.3905C78.3136 16.3172 79.3332 16.685 80.1253 16.4832C80.4091 16.4111 80.704 16.3826 81.0047 16.3324C81.1868 17.3012 81.3523 18.1845 81.5332 19.1487C81.1447 19.2586 80.8374 19.362 80.5225 19.4316C79.3579 19.6887 78.1865 19.767 77.023 19.4425C75.4664 19.0085 74.5777 17.9441 74.1995 16.402C74.0598 15.8327 74.0055 15.263 74.0096 14.6776C74.0222 12.7933 74.0142 10.9088 74.0142 8.96036C73.4019 8.96036 72.8252 8.96036 72.2051 8.96036C72.2051 7.95117 72.2051 7.00465 72.2051 5.98115C72.8312 5.98115 73.4685 5.98115 74.161 5.98115Z" fill="#161D30"/>
<path fill-rule="evenodd" clip-rule="evenodd" d="M34.5512 5.93259C34.3171 7.07883 34.0955 8.16388 33.8718 9.25972C31.7173 8.4722 30.3812 9.5844 29.5672 11.3376C29.5672 13.6793 29.5704 16.0626 29.5631 18.4456C29.5624 18.7377 29.6829 19.0788 29.3236 19.2865C28.1343 19.2865 26.9347 19.2895 25.7352 19.2787C25.6664 19.2781 25.5987 19.1649 25.5156 19.0909C25.5156 14.7402 25.5156 10.3838 25.5156 5.97889C26.605 5.97889 27.6731 5.97889 28.7713 5.97889C28.8682 6.62677 28.9662 7.28133 29.0821 8.05584C29.3404 7.75868 29.5739 7.53851 29.7495 7.27891C30.3044 6.45866 31.0636 5.90693 32.0079 5.6782C32.8678 5.46975 33.7527 5.40726 34.5512 5.93259Z" fill="#161D30"/>
<path fill-rule="evenodd" clip-rule="evenodd" d="M18.7909 19.3143C17.4559 19.3143 16.2215 19.3143 14.9901 19.3143C14.8163 18.5089 14.7573 10.3091 14.8934 5.99217C15.3922 5.86554 15.914 5.9494 16.427 5.93397C16.9222 5.91891 17.4182 5.93062 17.9134 5.93062C18.4365 6.53554 18.1369 7.29201 18.3013 8.02784C18.4409 7.96201 18.5698 7.94323 18.6254 7.86922C19.6439 6.51397 19.852 6.33582 21.3614 5.58623C22.1415 5.61468 22.9816 5.3893 23.8214 5.84973C23.6587 6.94074 23.495 8.03323 23.186 9.14506C22.2653 9.06361 21.3785 8.85107 20.5112 9.33864C19.647 9.82436 19.2026 10.5935 18.7909 11.5986C18.7909 14.0391 18.7909 16.6374 18.7909 19.3143Z" fill="#161D30"/>
<path fill-rule="evenodd" clip-rule="evenodd" d="M36.2777 5.96387C37.5981 5.96387 38.855 5.96387 40.1483 5.96387C40.1483 10.4118 40.1483 14.8269 40.1483 19.2856C38.8807 19.2856 37.624 19.2856 36.3651 19.2856C36.2035 18.4769 36.1488 10.5767 36.2777 5.96387Z" fill="#161D30"/>
<path fill-rule="evenodd" clip-rule="evenodd" d="M10.4385 39.5814C10.4385 35.8037 10.4385 32.0937 10.4385 28.292C10.5876 28.2338 10.7717 28.1027 10.9582 28.099C11.9789 28.0785 13.001 28.0646 14.0207 28.0992C14.594 28.1185 15.1859 28.162 15.7308 28.3246C16.7431 28.6264 17.6936 29.0635 18.0101 30.2247C18.0575 30.6139 18.1049 31.0031 18.1715 31.5502C18.0885 31.9124 17.9677 32.4401 17.846 32.971C17.2666 33.7403 16.5616 34.3549 15.5608 34.6595C16.5272 36.3238 17.4554 37.9221 18.4123 39.5701C17.8829 39.683 17.3655 39.5857 16.825 39.6411C15.7485 38.0865 15.0152 36.3346 13.9731 34.8098C13.2579 34.8098 12.6186 34.8098 11.9233 34.8098C11.9233 36.4062 11.9233 37.9723 11.9233 39.5816C11.4183 39.5814 10.9681 39.5814 10.4385 39.5814ZM11.9157 29.3851C11.9157 30.1611 11.9133 30.8394 11.9163 31.5176C11.9194 32.2179 11.9016 32.9192 11.9285 33.6435C12.9366 33.6076 13.8459 33.678 14.764 33.4917C15.8801 33.265 16.3281 32.903 16.578 31.772C16.6096 31.6286 16.6851 31.4953 16.7022 31.4523C16.6418 31.1786 16.5942 31.0046 16.5659 30.827C16.4703 30.2254 16.1163 29.8232 15.5621 29.6294C15.1958 29.5015 14.8001 29.413 14.4137 29.396C13.6139 29.3607 12.8117 29.3851 11.9157 29.3851Z" fill="#161D30"/>
<path fill-rule="evenodd" clip-rule="evenodd" d="M101.156 39.5888C100.625 39.5888 100.136 39.5888 99.5747 39.5888C99.236 38.513 98.8861 37.4016 98.532 36.2763C97.1381 36.2763 95.7815 36.2763 94.3731 36.2763C94.0633 36.5426 94.0415 36.982 93.9192 37.3802C93.6906 38.1233 93.4481 38.8621 93.2135 39.596C92.6716 39.596 92.2177 39.596 91.707 39.596C93.0009 35.7428 94.2801 31.9333 95.5617 28.1162C96.1495 28.1162 96.6659 28.1162 97.2552 28.1162C98.5465 31.9146 99.8432 35.728 101.156 39.5888ZM96.4677 29.5957C96.4214 29.6022 96.3753 29.6083 96.329 29.615C95.7973 31.3812 95.2655 33.1476 94.7329 34.9168C95.8375 34.9168 96.9084 34.9168 98.0822 34.9168C97.5301 33.0972 96.9988 31.3466 96.4677 29.5957Z" fill="#161D30"/>
<path fill-rule="evenodd" clip-rule="evenodd" d="M68.2144 39.5881C67.6906 39.5881 67.1781 39.5881 66.6532 39.5881C66.3011 38.4794 65.9566 37.3923 65.604 36.2816C64.229 36.2816 62.8743 36.2816 61.4572 36.2816C61.1355 36.5302 61.1338 36.9786 61.009 37.3717C60.7736 38.1131 60.5343 38.8532 60.296 39.5957C59.7629 39.5957 59.309 39.5957 58.7812 39.5957C60.1309 35.7345 61.3207 31.8657 62.7343 28.0898C63.2635 28.0898 63.7271 28.0898 64.2703 28.0898C64.5349 28.7543 64.8434 29.4341 65.0798 30.1385C66.1315 33.2717 67.1629 36.4119 68.2144 39.5881ZM63.5304 29.4905C63.3876 29.7043 63.2797 29.7969 63.2609 29.905C63.0092 31.3604 62.4511 32.7287 62.0632 34.145C61.9899 34.412 61.8945 34.6729 61.798 34.971C62.9487 34.9304 64.018 35.0067 65.1834 34.9202C64.6268 33.0923 64.0957 31.3476 63.5304 29.4905Z" fill="#161D30"/>
<path fill-rule="evenodd" clip-rule="evenodd" d="M69.8904 28.0859C71.2317 28.0859 72.4399 28.0264 73.6389 28.1055C74.5328 28.1646 75.4277 28.3147 76.2209 28.8469C76.9058 29.3066 77.237 29.9342 77.3793 30.7044C77.4285 30.9707 77.4717 31.2381 77.5314 31.5858C77.4315 32.0007 77.3246 32.5017 77.1887 32.9946C77.0085 33.649 76.5629 34.078 75.9939 34.43C75.19 34.9269 74.3125 35.1056 73.3935 35.1372C72.7759 35.1582 72.1571 35.1411 71.5611 35.1411C71.2734 35.2787 71.2461 35.508 71.2485 35.7721C71.2578 36.7617 71.2524 37.7516 71.2524 38.7412C71.2524 39.0133 71.2524 39.2855 71.2524 39.5903C70.7373 39.5903 70.2871 39.5903 69.7565 39.5903C69.7565 38.9276 69.7565 38.2862 69.7565 37.6452C69.7565 37.0265 69.7565 36.408 69.7565 35.7896C69.7565 35.1402 69.7565 34.4906 69.7565 33.8411C69.7565 33.1916 69.7565 32.5422 69.7565 31.8925C69.7565 31.274 69.7365 30.6546 69.7621 30.037C69.7887 29.4085 69.6375 28.7585 69.8904 28.0859ZM71.2658 33.8657C72.526 33.7665 73.7304 34.0497 75.0249 33.541C75.2824 33.215 75.6173 32.7906 75.8823 32.4548C75.8823 31.7537 75.8823 31.1981 75.8823 30.6797C75.6045 30.0541 75.2173 29.6684 74.5297 29.5357C73.8165 29.3979 72.1522 29.2984 71.2658 29.4907C71.2658 30.9062 71.2658 32.3233 71.2658 33.8657Z" fill="#161D30"/>
<path fill-rule="evenodd" clip-rule="evenodd" d="M21.9396 35.1429C21.9396 36.6782 21.9396 38.0972 21.9396 39.5709C21.4698 39.5709 21.0196 39.5709 20.5622 39.5709C20.4296 38.9513 20.3922 29.3567 20.5317 28.0896C21.3492 28.0896 22.1776 28.0639 23.0036 28.0969C23.8257 28.1296 24.6456 28.2211 25.5317 28.2919C25.7199 28.3823 25.9553 28.535 26.2134 28.6125C27.0006 28.8489 27.5019 29.3524 27.8145 30.108C28.2364 31.127 28.2033 32.1542 27.768 33.1153C27.3204 34.1029 26.4778 34.6951 25.4043 34.9653C24.8014 35.1169 24.2004 35.1487 23.5886 35.144C23.0683 35.14 22.5478 35.1429 21.9396 35.1429ZM21.9922 29.3868C21.9922 30.9249 21.9922 32.3679 21.9922 33.8518C22.5281 33.8518 23.0198 33.8518 23.5116 33.8518C24.0065 33.8518 24.5013 33.8518 24.9223 33.8518C26.3839 33.1162 26.6313 32.669 26.5688 30.9717C26.4684 30.783 26.344 30.6028 26.2729 30.4035C26.1368 30.0209 25.8543 29.7937 25.4971 29.6792C25.0971 29.551 24.6819 29.4246 24.267 29.3995C23.5291 29.3549 22.7868 29.3868 21.9922 29.3868Z" fill="#161D30"/>
<path fill-rule="evenodd" clip-rule="evenodd" d="M4.2268 34.765C3.34741 36.4193 2.49759 38.0174 1.65279 39.6064C1.1059 39.6064 0.615903 39.6064 0.0507812 39.6064C1.1747 37.6327 2.2724 35.7052 3.37791 33.7638C2.86579 32.8302 2.39197 31.8805 1.83801 30.9801C1.28572 30.0825 0.846302 29.1348 0.224279 28.1351C0.862853 28.1351 1.3151 28.1351 1.86479 28.1351C2.66291 29.6202 3.49358 31.1659 4.37148 32.7993C5.28099 31.2051 5.95824 29.5865 6.85344 28.1152C7.33339 28.1152 7.72594 28.1152 8.20088 28.1152C8.16201 28.315 8.16833 28.4974 8.09302 28.6354C7.41056 29.8881 6.71564 31.1342 6.02016 32.38C5.75425 32.8564 5.47773 33.3267 5.19229 33.8232C6.26302 35.7283 7.40628 37.5793 8.46977 39.5813C7.90409 39.5813 7.45073 39.5813 6.87203 39.5813C6.02388 38.0371 5.13576 36.42 4.2268 34.765Z" fill="#161D30"/>
<path fill-rule="evenodd" clip-rule="evenodd" d="M57.8896 29.3571C57.6488 29.6926 57.4377 29.9864 57.2281 30.2784C56.6171 29.9126 56.1057 29.4826 55.3715 29.3238C54.3417 29.1013 53.5064 29.391 52.7377 29.9488C51.9128 30.5476 51.5191 31.4339 51.3227 32.4321C51.2095 33.0082 51.1009 33.5824 51.1678 34.1594C51.2515 34.8791 51.2989 35.6352 51.5628 36.2948C52.0502 37.513 52.8649 38.442 54.3233 38.5123C54.4077 38.5164 54.487 38.5915 54.5725 38.6237C54.6281 38.6445 54.6908 38.6471 54.7503 38.6581C56.3768 38.1986 56.5725 38.1058 57.4602 37.3575C57.6901 37.6247 57.9223 37.8948 58.1849 38.1997C57.4848 39.1446 56.5427 39.599 55.3851 39.8406C54.4276 40.0403 53.5782 39.7699 52.73 39.5349C51.9591 39.3212 51.3441 38.7316 50.8668 38.0841C50.0926 37.0341 49.6621 35.8448 49.6579 34.5228C49.6543 33.4526 49.6287 32.3919 50.0205 31.353C50.5808 29.8668 51.5304 28.7424 53.011 28.2025C54.5704 27.6339 56.5546 27.6848 57.8896 29.3571Z" fill="#161D30"/>
<path fill-rule="evenodd" clip-rule="evenodd" d="M88.3415 39.5991C87.8187 39.5991 87.3899 39.5991 86.8916 39.5991C86.8748 39.3827 86.8412 39.1486 86.8408 38.9146C86.8371 36.0353 86.8415 33.1558 86.8339 30.2764C86.8332 29.9852 86.9611 29.6429 86.5221 29.3816C85.5423 29.3816 84.468 29.3816 83.3545 29.3816C83.3545 28.9427 83.3545 28.5541 83.3545 28.084C84.7518 28.084 86.1358 28.084 87.5199 28.084C88.88 28.084 90.2399 28.084 91.6028 28.084C92.0145 28.4985 91.9364 28.9063 91.6567 29.3719C90.5802 29.3719 89.5048 29.3719 88.483 29.3719C88.408 29.442 88.3794 29.4599 88.3642 29.4852C88.3495 29.5097 88.3426 29.5423 88.3426 29.5713C88.3415 32.8822 88.3415 36.1932 88.3415 39.5991Z" fill="#161D30"/>
<path fill-rule="evenodd" clip-rule="evenodd" d="M102.807 28.0986C103.317 28.0986 103.684 28.0986 104.114 28.0986C104.131 28.3447 104.162 28.5812 104.162 28.8175C104.166 31.7304 104.161 34.6432 104.17 37.5558C104.171 37.8476 104.041 38.1853 104.435 38.4728C105.989 38.4728 107.622 38.4728 109.315 38.4728C109.326 38.7037 109.336 38.8806 109.34 39.0576C109.344 39.2093 109.341 39.3616 109.341 39.5067C108.639 39.6536 104.19 39.6962 102.672 39.5682C102.672 38.938 102.672 38.2967 102.672 37.6553C102.672 37.0357 102.673 36.4159 102.673 35.7961C102.673 35.1454 102.672 34.4948 102.672 33.8439C102.672 33.1935 102.672 32.5426 102.672 31.892C102.672 31.2722 102.65 30.6514 102.678 30.0329C102.706 29.4037 102.545 28.7517 102.807 28.0986Z" fill="#161D30"/>
<path fill-rule="evenodd" clip-rule="evenodd" d="M79.8301 28.1055C80.3082 28.1055 80.7357 28.1055 81.1643 28.1055C81.3129 28.7749 81.3598 38.0062 81.2182 39.5883C80.7727 39.5883 80.3229 39.5883 79.8301 39.5883C79.8301 35.7801 79.8301 31.9873 79.8301 28.1055Z" fill="#161D30"/>
<path fill-rule="evenodd" clip-rule="evenodd" d="M37.3277 0C37.8104 0 38.3981 0 39.0472 0C39.1873 0.0648988 39.4037 0.121058 39.5629 0.24881C39.8264 0.4608 40.0529 0.718721 40.2818 0.944472C40.366 1.28421 40.4453 1.6035 40.5392 1.98229C40.3625 2.53142 40.205 3.14006 39.676 3.57966C39.2497 3.93409 38.6973 4.04771 38.2391 4.04288C37.1609 4.03116 36.187 3.68194 35.9062 2.23408C35.9062 2.05649 35.9062 1.68551 35.9062 1.30802C36.228 0.797195 36.4777 0.218871 37.3277 0Z" fill="#161D30"/>
<path fill-rule="evenodd" clip-rule="evenodd" d="M41.843 35.1368C41.843 35.2896 41.843 35.4427 41.843 35.6506C42.6265 35.7562 43.4393 35.7304 44.0978 36.2021C44.3276 36.3669 44.6231 36.5428 44.6277 37.0049C43.7601 36.6865 42.9143 36.4229 41.9784 36.4459C41.5702 35.24 40.538 34.8575 39.4301 34.5862C39.1394 34.5149 38.8452 34.4354 38.549 34.4151C37.5926 34.3502 36.6893 34.6098 35.8261 34.9776C35.1274 35.2755 34.6374 35.8163 34.3566 36.5917C33.952 36.5917 33.5267 36.5917 33.21 36.5917C32.8323 36.7708 32.5629 36.8985 32.2284 37.0573C32.2073 36.8548 32.1925 36.7124 32.1709 36.5034C32.5069 36.3152 32.8469 36.1251 33.2422 35.9037C33.6572 35.8542 34.1774 35.9799 34.5857 35.584C34.5857 35.4793 34.5857 35.3603 34.5857 35.2569C34.3079 34.9789 33.2853 35.2037 32.6077 35.6865C32.4197 35.1582 32.7873 34.9575 33.1312 34.7723C33.6459 34.4951 34.1973 34.3457 34.7907 34.4062L34.7789 34.3948C34.7884 34.5719 34.7977 34.7489 34.8152 35.079C35.376 34.2766 36.0827 33.9106 36.8583 33.7561C37.4792 33.6322 38.1347 33.6633 38.775 33.6612C39.4152 33.6594 40.0365 33.8154 40.5754 34.1568C41.0315 34.4458 41.4343 34.8188 41.8607 35.1545L41.843 35.1368Z" fill="#161D30"/>
<path fill-rule="evenodd" clip-rule="evenodd" d="M38.2822 35.1914C38.4932 35.2299 38.7564 35.3061 39.023 35.3221C40.466 35.4079 41.4795 36.0585 42.1422 37.3677C43.1581 37.3688 44.2227 37.2975 44.9967 38.2208C44.9967 38.4006 44.9967 38.5812 44.9967 38.852C44.182 38.2186 43.2861 38.083 42.3191 38.1282C41.9158 37.6183 41.5855 37.0311 40.9456 36.7146C40.2933 36.3923 39.6536 36.0743 38.907 36.0682C38.7523 36.0669 38.5966 36.076 38.443 36.0622C37.1854 35.9473 36.0222 36.2075 34.9242 36.9905C34.7021 37.2901 34.4323 37.654 34.0948 38.1096C33.7893 38.163 33.3685 38.2011 32.9698 38.3162C32.5817 38.4285 32.2163 38.6191 31.8317 38.7792C31.8001 38.7506 31.7544 38.7093 31.709 38.6677C32.1019 37.6719 32.5993 37.419 34.2863 37.3624C35.0168 35.5888 36.6182 35.3614 38.2822 35.1914Z" fill="#161D30"/>
<path fill-rule="evenodd" clip-rule="evenodd" d="M35.1619 32.7311C35.0799 32.6091 34.9979 32.487 34.8728 32.3008C34.3688 32.449 33.8757 32.5941 33.2598 32.7752C33.7695 31.975 34.4116 31.7751 35.1641 31.8041L35.1504 31.7907C35.182 31.9187 35.2138 32.0468 35.27 32.2729C35.6255 31.9529 35.895 31.7102 36.0969 31.5284C37.9792 30.725 39.663 30.9255 41.2611 32.2352C41.2769 32.0295 41.286 31.9135 41.2949 31.7973L41.294 31.7982C41.7513 31.7948 42.1944 31.7958 42.6474 31.9596C43.0039 32.0886 43.193 32.2932 43.3964 32.6428C42.9632 32.7732 42.743 32.4401 42.4256 32.3806C42.0845 32.3806 41.7187 32.3806 41.3299 32.3806C41.3981 32.5472 41.4521 32.6794 41.5322 32.8756C42.2496 32.9 42.992 33.008 43.6659 33.4993C43.68 33.6473 43.6958 33.8147 43.7127 33.9936C43.0375 33.843 42.4296 33.7076 41.6479 33.5333C41.7269 33.6007 41.6174 33.5542 41.5941 33.4805C41.3292 32.64 40.6718 32.2508 39.9098 31.9575C39.416 31.7677 38.1848 31.6206 37.7093 31.7337C37.6217 31.7545 37.5316 31.7844 37.4436 31.7813C36.5988 31.7489 35.9204 32.1115 35.3168 32.6612C35.2768 32.6977 35.2086 32.7034 35.1535 32.7233L35.1619 32.7311Z" fill="#161D30"/>
<path fill-rule="evenodd" clip-rule="evenodd" d="M34.9654 33.6634C36.1797 32.376 37.6652 32.1718 39.33 32.4872C40.358 32.6819 41.123 33.1578 41.623 34.0727C41.68 34.177 41.7897 34.2521 41.8802 34.3464C42.7639 34.4915 43.7848 34.3607 44.2889 35.5823C43.4495 35.1711 42.6573 35.0724 41.843 35.1377L41.8611 35.1557C41.7398 34.432 41.2656 33.9927 40.6669 33.6392C40.0244 33.2602 39.3479 33.0289 38.594 33.0881C37.9882 33.1357 37.3871 33.0391 36.7705 33.2037C35.9737 33.4166 35.3898 33.9117 34.7793 34.3961L34.791 34.4074C34.8529 34.1556 34.915 33.904 34.977 33.6521L34.9654 33.6634Z" fill="#161D30"/>
<path fill-rule="evenodd" clip-rule="evenodd" d="M39.5918 41.8869C40.5993 41.4531 41.5058 40.892 42.6054 40.9147C43.2429 40.9277 43.8712 40.9025 44.5167 41.0553C44.97 41.1628 45.2395 41.4843 45.6415 41.5987C45.7503 41.8369 45.849 42.053 45.9588 42.2927C45.8479 42.3373 45.7702 42.3724 45.6899 42.3992C45.6629 42.4081 45.6224 42.4076 45.5991 42.3935C44.6682 41.8224 43.6417 41.8014 42.5935 41.8311C42.0678 41.8458 41.5862 42.0091 41.093 42.1359C40.5755 42.2689 40.0978 42.2627 39.5918 41.8869Z" fill="#161D30"/>
<path fill-rule="evenodd" clip-rule="evenodd" d="M37.0509 41.9178C36.4873 42.3942 35.914 42.2162 35.3574 42.1253C34.8557 42.0435 34.3616 41.8947 33.8577 41.8519C32.9517 41.7753 32.1097 41.8834 30.9348 42.5686C30.9095 42.3553 30.887 42.1673 30.8662 41.9929C31.439 41.2178 32.2843 41.0321 33.1157 40.9354C34.055 40.826 34.9848 40.9489 35.84 41.4471C36.1922 41.6524 36.6072 41.7498 37.0509 41.9178Z" fill="#161D30"/>
<path fill-rule="evenodd" clip-rule="evenodd" d="M41.1143 30.6757C40.7802 30.4234 40.4623 30.1445 40.1085 29.9233C38.6383 29.0047 36.6785 29.3486 35.613 30.4632C35.0259 30.2493 35.0259 30.2493 34.2942 30.4849C34.2592 30.2583 34.4543 30.1841 34.5569 30.0677C34.6577 29.9533 34.7862 29.8635 34.9036 29.7621C35.1879 29.7621 35.4651 29.7621 35.7301 29.7621C37.2144 28.5268 39.5103 28.5822 40.8454 29.8981C41.6491 29.6201 41.9145 29.7024 42.617 30.5099C42.0911 30.3555 41.6486 30.2255 41.1011 30.0645C41.1011 30.3404 41.1011 30.5145 41.1011 30.6884L41.1143 30.6757Z" fill="#161D30"/>
<path fill-rule="evenodd" clip-rule="evenodd" d="M35.1636 31.8044C35.1996 31.635 35.2359 31.4654 35.2755 31.281C34.7799 31.1134 34.3515 31.3345 33.8723 31.5971C33.8362 31.1919 34.1174 31.0141 34.3643 30.892C34.625 30.7629 34.9384 30.7402 35.2404 30.6684C35.3053 30.7982 35.3575 30.9033 35.4209 31.0303C36.2787 30.2876 37.29 29.9185 38.4061 29.9637C39.4208 30.0044 40.3233 30.4209 41.1151 31.0617L41.0997 31.0448C41.164 31.296 41.2283 31.5471 41.2929 31.7983L41.2938 31.7974C41.1969 31.7325 41.0747 31.6873 41.0071 31.5997C40.2445 30.6125 39.0835 30.6891 38.0386 30.5548C37.5373 30.4905 36.9934 30.7534 36.4695 30.8713C35.9052 30.9983 35.6355 31.5502 35.1494 31.7909L35.1636 31.8044Z" fill="#161D30"/>
<path fill-rule="evenodd" clip-rule="evenodd" d="M36.655 27.5113C36.3961 27.5762 36.1388 27.6474 35.8777 27.7014C35.7951 27.7185 35.7031 27.6889 35.415 27.6619C35.8539 27.4738 36.1232 27.3583 36.435 27.2246C36.2617 27.1742 36.1103 27.1301 36.0168 27.103C36.1788 26.8939 36.3735 26.6907 36.5124 26.4549C36.9981 25.6296 37.9022 25.2257 38.8136 25.5359C39.33 25.7116 39.9886 25.7602 40.113 26.5343C40.0896 26.5799 40.0368 26.6823 39.984 26.7848L40.0007 26.7686C39.5037 26.5884 39.0187 26.3484 38.506 26.2442C37.974 26.1362 37.455 26.3526 36.9618 26.5616C36.8995 26.5882 36.8755 26.7048 36.8339 26.7794C36.7788 26.8088 36.724 26.8382 36.8209 26.7865C36.7664 26.8813 36.7973 26.8276 36.8281 26.7738C37.1809 26.7134 37.5336 26.6515 37.8868 26.5925C38.6362 26.4679 39.3088 26.7736 40.0007 26.9715L39.984 26.9546C40.0656 27.2175 40.24 27.3482 40.5195 27.333C40.768 27.3196 40.9815 27.3693 41.0863 27.6991C40.7652 27.6991 40.4678 27.6991 40.1703 27.6991L40.1869 27.7148C39.9762 27.192 39.3887 27.2567 39.1001 26.9596C38.6325 26.9596 38.2306 26.9112 37.846 26.9722C37.4033 27.0422 36.8698 26.984 36.6344 27.5301L36.655 27.5113ZM39.6269 26.2111C39.6561 26.2637 39.6853 26.3164 39.6442 26.2422C39.7205 26.2809 39.6666 26.2535 39.6126 26.2262C39.5903 25.9649 39.3917 26.0506 39.2429 26.0385C38.3409 25.4853 37.5796 25.5415 37.1431 26.1615C37.4646 26.1185 37.8107 26.0534 38.1592 26.0313C38.5226 26.0082 38.8885 26.0268 39.2534 26.027C39.2803 26.2862 39.4773 26.2007 39.6269 26.2111Z" fill="#161D30"/>
<path fill-rule="evenodd" clip-rule="evenodd" d="M40.5762 28.8514C40.698 28.7623 40.7725 28.7078 40.8512 28.6502C41.2603 28.8095 41.762 28.801 42.0288 29.3432C41.5602 29.3782 41.1009 28.9486 40.6459 29.3698C39.741 28.4121 38.5786 28.3541 37.2656 28.4919C36.8323 28.7275 36.3044 29.0146 35.7506 29.3159C35.5008 28.9159 35.1427 29.4421 34.749 29.3406C35.006 28.7513 35.4707 28.8235 35.9036 28.8244C37.1335 27.8122 39.2531 27.7646 40.5762 28.8514Z" fill="#161D30"/>
<path fill-rule="evenodd" clip-rule="evenodd" d="M44.9094 39.3841C45.0716 39.5971 45.3204 39.9238 45.5764 40.2602C45.4396 40.3844 45.3518 40.4642 45.2242 40.58C44.3846 39.751 43.3037 40.0354 42.2275 39.9465C42.3118 39.6389 42.385 39.3713 42.4747 39.0446C43.2222 39.0613 43.9776 38.9341 44.9094 39.3841Z" fill="#161D30"/>
<path fill-rule="evenodd" clip-rule="evenodd" d="M31.2441 40.1189C31.9411 39.175 32.8971 38.9781 33.981 39.0657C34.0411 39.3751 34.0949 39.6531 34.1482 39.9289C33.6722 39.9806 33.1876 39.9941 32.7221 40.0949C32.2632 40.1942 31.8234 40.3817 31.3221 40.5481C31.294 40.394 31.2689 40.2552 31.2441 40.1189Z" fill="#161D30"/>
<path fill-rule="evenodd" clip-rule="evenodd" d="M36.2791 28.0842C36.4044 27.8932 36.5298 27.702 36.6549 27.5111C36.6549 27.5111 36.6345 27.53 36.6345 27.5298C37.1892 27.4078 37.7441 27.2857 38.3328 27.1562C38.9303 27.3361 39.5584 27.5252 40.1868 27.7145L40.1702 27.6989C40.2881 27.801 40.4101 27.9942 40.5232 27.9893C40.9496 27.9706 41.2798 28.1591 41.7767 28.4526C41.2451 28.4196 40.8858 28.3973 40.415 28.3683C39.9874 27.7521 39.1575 27.6953 38.4172 27.5641C37.9568 27.4826 37.4341 27.7348 36.943 27.8523C36.7135 27.9073 36.4924 27.9979 36.2676 28.0725L36.2791 28.0842Z" fill="#161D30"/>
<path fill-rule="evenodd" clip-rule="evenodd" d="M34.977 33.6517C34.3129 33.7715 33.6487 33.8909 32.9434 34.0181C32.9497 33.5874 33.2087 33.4132 33.4793 33.296C33.8337 33.1428 34.2125 33.0461 34.5807 32.9248C34.7745 32.8609 34.9679 32.796 35.1614 32.7316L35.1529 32.7236C35.0904 33.0368 35.0279 33.3499 34.9654 33.6633L34.977 33.6517Z" fill="#161D30"/>
<path fill-rule="evenodd" clip-rule="evenodd" d="M41.1157 31.0614C41.1155 30.9327 41.1151 30.8039 41.1147 30.6752L41.1017 30.6882C41.5335 30.6423 41.9445 30.718 42.3537 30.8615C42.6691 30.9722 42.8622 31.1695 43.0236 31.5879C42.6989 31.4516 42.4731 31.3565 42.194 31.2394C41.8656 31.2016 41.4489 31.3197 41.1006 31.0445L41.1157 31.0614Z" fill="#161D30"/>
<path fill-rule="evenodd" clip-rule="evenodd" d="M36.2673 28.0723C36.1511 28.1959 36.0557 28.3798 35.9134 28.4293C35.6808 28.5106 35.4175 28.5041 35.0781 28.5455C35.2256 28.3545 35.3295 28.2199 35.4342 28.0844C35.7305 28.0844 36.0046 28.0844 36.2788 28.0844L36.2673 28.0723Z" fill="#161D30"/>
<path fill-rule="evenodd" clip-rule="evenodd" d="M38.4708 25.0615C38.3143 25.0615 38.1577 25.0615 38.0011 25.0615C38.0007 25.033 38.0004 25.0042 38 24.9756C38.1569 24.9756 38.3139 24.9756 38.4708 24.9756C38.4708 25.0044 38.4708 25.033 38.4708 25.0615Z" fill="#161D30"/>
<path fill-rule="evenodd" clip-rule="evenodd" d="M39.9844 26.7853C40.1759 26.8309 40.4485 26.6311 40.5432 26.9699L40.5569 26.9558C40.3661 26.9554 40.1752 26.9553 39.9844 26.9551L40.0011 26.972C40.0011 26.9043 40.0011 26.8366 40.0011 26.7691L39.9844 26.7853Z" fill="#161D30"/>
<path fill-rule="evenodd" clip-rule="evenodd" d="M37.7199 25.1873C37.7106 25.2048 37.7013 25.2225 37.692 25.24C37.6657 25.2206 37.6395 25.2011 37.6133 25.1817C37.6321 25.1639 37.6507 25.1466 37.6695 25.1289C37.6864 25.1484 37.7031 25.1678 37.7199 25.1873Z" fill="#161D30"/>
<path fill-rule="evenodd" clip-rule="evenodd" d="M40.543 26.9693C40.5965 26.9979 40.6502 27.0266 40.5724 26.9851C40.6132 27.063 40.585 27.009 40.5569 26.9551L40.543 26.9693Z" fill="#161D30"/>
<path fill-rule="evenodd" clip-rule="evenodd" d="M36.8288 26.7734C36.7973 26.8279 36.766 26.8824 36.8214 26.7863C36.7232 26.8387 36.7788 26.8089 36.8346 26.7791L36.8288 26.7734Z" fill="#161D30"/>
</svg>
