<svg width="74" height="74" viewBox="0 0 74 74" fill="none" xmlns="http://www.w3.org/2000/svg">
<path fill-rule="evenodd" clip-rule="evenodd" d="M73.8205 0.655273V73.7345H0.741211V69.1464H3.08705V71.3885H71.4746V3.00111H3.08705V42.426H0.741211V0.655273H73.8205ZM30.7677 57.5284C31.783 57.5284 32.61 57.7503 33.26 58.2031C33.9099 58.658 34.264 59.3215 34.329 60.1865L31.9825 60.3569C31.8592 59.707 31.4176 59.3394 30.7677 59.3394C30.0012 59.3394 29.5596 59.68 29.5596 60.2785C29.5798 60.6258 29.7636 60.8142 30.1312 60.9845C30.3866 61.1099 30.5458 61.1571 30.8664 61.2422C31.2473 61.3519 31.5701 61.4574 31.8255 61.5425C32.081 61.6277 32.3568 61.733 32.6459 61.8451C33.2152 62.0738 33.5357 62.2642 33.8898 62.5533C34.4009 62.9859 34.598 63.4969 34.6181 64.2635C34.6115 65.2003 34.2775 65.922 33.6029 66.4128C32.9261 66.9059 32.016 67.1547 30.8529 67.1547C29.7254 67.1547 28.8178 66.9104 28.1297 66.4195C27.4394 65.9287 27.0718 65.2205 27.0203 64.2971L29.3692 64.1312C29.4745 64.8664 30.0394 65.272 30.8484 65.272C31.6822 65.272 32.2446 64.9381 32.2515 64.315C32.2336 63.8824 31.9377 63.6068 31.4064 63.3648C31.0322 63.1876 30.7611 63.1158 30.2948 62.9658C30.0394 62.8873 29.824 62.8201 29.6583 62.7617C29.4878 62.7102 29.2975 62.6431 29.0934 62.5712C28.8851 62.4996 28.7192 62.4279 28.5959 62.3629C28.3449 62.2373 27.9974 62.0468 27.8271 61.863C27.6568 61.686 27.4462 61.4439 27.361 61.1749C27.2759 60.906 27.2107 60.5787 27.2107 60.1797C27.2107 59.0189 27.8988 58.1784 28.9501 57.8041C29.4745 57.6203 30.0774 57.5284 30.7677 57.5284ZM14.2763 57.6338L17.1137 67.0471H14.6887L14.236 65.5522H10.6589L10.2107 67.0471H7.78117L10.6187 57.6338H14.2763ZM3.08791 57.6338L3.08117 65.1802H6.7972V67.0448H0.741211V57.6338H3.08791ZM22.9209 57.6338C23.7211 57.6338 24.389 57.8579 24.9269 58.3016C25.4648 58.7543 25.7338 59.3506 25.7338 60.1036C25.7338 61.2042 25.2094 61.9191 24.4742 62.1566C24.8955 62.2688 25.2675 62.531 25.588 62.9501C25.9108 63.3714 26.0677 63.878 26.0677 64.4695C26.0677 65.234 25.7988 65.8502 25.2541 66.3299C24.7118 66.8095 24.0482 67.0448 23.2571 67.0448H18.165V57.6338H22.9209ZM22.7641 63.2146H20.5138V65.234H22.7641C23.033 65.234 23.2571 65.1353 23.4476 64.9447C23.6291 64.752 23.7211 64.51 23.7211 64.2209C23.7211 63.9362 23.6291 63.6942 23.4476 63.5037C23.2638 63.3131 23.033 63.2146 22.7641 63.2146ZM12.4497 59.5589L11.2104 63.6875H13.6846L12.4497 59.5589ZM22.4278 59.4492H20.5138V61.4528H22.4278C22.6968 61.4528 22.9209 61.3565 23.1047 61.166C23.2885 60.9755 23.3805 60.7334 23.3805 60.4443C23.3805 60.1619 23.2885 59.9199 23.1047 59.7294C22.9209 59.541 22.6968 59.4492 22.4278 59.4492ZM29.5596 44.5229V50.1799C29.5596 51.2624 30.1514 51.8923 31.1263 51.8923C32.0924 51.8923 32.6841 51.2558 32.6841 50.1799L32.6907 44.5229H35.0463V50.0298C35.0463 51.3229 34.6922 52.3136 33.9907 53.0018C33.2868 53.6965 32.3275 54.0438 31.1263 54.0438C29.916 54.0438 28.9634 53.6965 28.2597 53.0018C27.5582 52.3136 27.2107 51.3229 27.2107 50.0298V44.5229H29.5596ZM62.056 44.4154C63.0287 44.4154 63.9005 44.6395 64.676 45.081C65.4515 45.5271 66.0409 46.1389 66.4421 46.9189L64.3667 47.896C63.9207 47.0758 63.0465 46.5782 62.056 46.5782C61.3073 46.5782 60.6776 46.827 60.1642 47.3245C59.6466 47.831 59.391 48.4653 59.391 49.2319C59.391 49.9984 59.6466 50.6348 60.1642 51.1392C60.6776 51.6435 61.3073 51.8923 62.056 51.8923C63.0533 51.8923 63.9207 51.3879 64.3667 50.5677L66.4421 51.5449C66.0409 52.3248 65.4515 52.9345 64.676 53.3738C63.9005 53.8197 63.0287 54.0438 62.056 54.0438C61.1235 54.0438 60.2832 53.84 59.5278 53.4388C58.7747 53.0398 58.1853 52.4683 57.7459 51.7286C57.3089 50.9935 57.0916 50.1598 57.0916 49.2296C57.0916 48.2995 57.3089 47.4657 57.7459 46.724C58.1853 45.9909 58.7747 45.4195 59.5278 45.0205C60.2832 44.6193 61.1235 44.4154 62.056 44.4154ZM4.65008 44.5252C5.85141 44.5252 6.78386 44.8411 7.44715 45.4642C8.10384 46.0873 8.43111 46.9166 8.43111 47.9342C8.43111 49.3529 7.76997 50.4489 6.54167 50.9733L8.35938 53.9362H5.99488L4.41923 51.3274H3.08791V53.9362H0.741211V44.5252H4.65008ZM22.0962 44.5252C23.2976 44.5252 24.2299 44.8345 24.8933 45.4575C25.55 46.0806 25.8773 46.9099 25.8773 47.9274C25.8773 48.954 25.55 49.7743 24.8933 50.3951C24.2299 51.0182 23.2976 51.3274 22.0962 51.3274H20.5341V53.9362H18.1874V44.5252H22.0962ZM55.8432 44.5229V53.9362H53.4943V44.5229H55.8432ZM16.4034 44.5252V46.3899H12.1606V48.3689H15.9955V50.2383H12.1606V52.0693H16.6073V53.9341H9.81179V44.5252H16.4034ZM41.3825 44.5229C42.1826 44.5229 42.8504 44.747 43.3884 45.1908C43.9263 45.6436 44.1952 46.2397 44.1952 46.9928C44.1952 48.0933 43.6708 48.8082 42.9356 49.0458C43.357 49.1579 43.729 49.4202 44.0495 49.8393C44.3722 50.2606 44.5292 50.7671 44.5292 51.3588C44.5292 52.1231 44.2602 52.7395 43.7155 53.2191C43.1732 53.6986 42.5098 53.9341 41.7186 53.9341H36.6265V44.5229H41.3825ZM48.1891 44.5229L48.1824 52.0693H51.8984V53.9341H45.8426V44.5229H48.1891ZM41.2255 50.1037H38.9754V52.1231H41.2255C41.4945 52.1231 41.7186 52.0245 41.9092 51.834C42.0907 51.6412 42.1826 51.3991 42.1826 51.11C42.1826 50.8254 42.0907 50.5833 41.9092 50.3928C41.7254 50.2023 41.4945 50.1037 41.2255 50.1037ZM4.40129 46.3899H3.08117V49.4582H4.40129C4.89213 49.4582 5.30017 49.3147 5.61611 49.019C5.92315 48.7299 6.08226 48.3689 6.08226 47.9342C6.089 47.5016 5.92989 47.1319 5.62055 46.836C5.30677 46.54 4.89887 46.3899 4.40129 46.3899ZM21.8474 46.3899H20.5273V49.4582H21.8474C22.3383 49.4582 22.7462 49.3147 23.0621 49.019C23.3692 48.7299 23.5284 48.3689 23.5284 47.9342C23.5352 47.5016 23.376 47.1319 23.0667 46.836C22.7529 46.54 22.345 46.3899 21.8474 46.3899ZM40.8893 46.3384H38.9754V48.3421H40.8893C41.1584 48.3421 41.3825 48.2457 41.5661 48.0553C41.7501 47.8647 41.8419 47.6227 41.8419 47.3336C41.8419 47.0511 41.7501 46.809 41.5661 46.6185C41.3825 46.4303 41.1584 46.3384 40.8893 46.3384Z" fill="#161D2C"/>
</svg>
