<svg width="165" height="219" viewBox="0 0 165 219" fill="none" xmlns="http://www.w3.org/2000/svg">
<path d="M108.194 204.497C132.545 204.497 152.286 184.574 152.286 159.997C152.286 135.42 132.545 115.497 108.194 115.497V159.997V204.497Z" fill="#B70F93"/>
<path d="M108.178 175.416C84.4805 175.416 65.2695 194.626 65.2695 218.325H108.178V175.416Z" fill="#242B42"/>
<path opacity="0.1" d="M17.4814 150.04V89.8614H24.1051V65.8779H63.5475V90.1509H70.1695V190.129" fill="#A3ACE5"/>
<path d="M44.1631 48.6016V111" stroke="white" stroke-width="0.9055" stroke-miterlimit="10"/>
<path d="M34.0127 61.8447V129.405" stroke="white" stroke-width="0.9055" stroke-miterlimit="10"/>
<path d="M53.4473 61.8447V99.3964" stroke="white" stroke-width="0.9055" stroke-miterlimit="10"/>
<path d="M49.376 186.615V126.093H93.9372V162.333" stroke="white" stroke-width="0.9055" stroke-miterlimit="10"/>
<path d="M57.2852 126.495V118.918H86.1653V126.495" stroke="white" stroke-width="0.9055" stroke-miterlimit="10"/>
<path d="M1.0918 162.267V150.112H40.2061V162.267" stroke="white" stroke-width="0.9055" stroke-miterlimit="10"/>
<path d="M49.376 138.17H80.7628" stroke="white" stroke-width="0.9055" stroke-miterlimit="10"/>
<path d="M49.376 147.011H80.7628" stroke="white" stroke-width="0.9055" stroke-miterlimit="10"/>
<path d="M160.324 49.1598L140.129 41.7227L120.13 49.0601C117.578 50.298 115.339 51.0387 115.339 53.4776V65.6224C115.339 74.0579 117.494 82.4169 121.926 89.7973C125.656 96.0061 131.435 102.401 140.327 106.466C148.502 103.742 154.603 96.4806 158.332 90.2718C162.765 82.8913 164.921 74.5323 164.921 66.0977V55.1744C164.921 51.6952 163.123 49.9975 160.324 49.1598Z" fill="#B70F93"/>
<path opacity="0.1" d="M160.324 49.1598L140.129 41.7227L120.13 49.0601C117.578 50.298 115.339 51.0387 115.339 53.4776V65.6224C115.339 74.0579 117.494 82.4169 121.926 89.7973C125.656 96.0061 131.435 102.401 140.327 106.466C148.502 103.742 154.603 96.4806 158.332 90.2718C162.765 82.8913 164.921 74.5323 164.921 66.0977V55.1744C164.921 51.6952 163.123 49.9975 160.324 49.1598Z" fill="#A3ACE5"/>
<path opacity="0.1" d="M141.742 139.838C141.742 144.448 138.006 148.187 133.394 148.187H53.0637C48.4536 148.187 44.7148 144.449 44.7148 139.838V8.34854C44.7148 3.73768 48.4528 0 53.0637 0H133.394C138.005 0 141.742 3.73687 141.742 8.34854V139.838Z" fill="#A3ACE5"/>
<path d="M144.076 69.7067C144.076 68.0565 142.739 66.7197 141.09 66.7197C139.44 66.7197 138.104 68.0573 138.104 69.7067C138.104 71.0719 139.024 72.2101 140.275 72.5669V77.0306H141.905V72.5669C143.155 72.2084 144.076 71.0719 144.076 69.7067Z" fill="#1B1F34"/>
<path opacity="0.1" d="M107.719 0H87.0166V148.186H107.719V0Z" fill="#A3ACE5"/>
<path d="M87.3154 0.125V45.4551" stroke="white" stroke-width="0.9055" stroke-miterlimit="10"/>
<path d="M107.719 0.125V106.466" stroke="white" stroke-width="0.9055" stroke-miterlimit="10"/>
<path d="M140.128 41.8398L120.129 49.1781C117.577 50.4159 115.338 51.1566 115.338 53.5956V65.7412C115.338 74.1766 117.493 82.5349 121.926 89.9145" stroke="white" stroke-width="0.9055" stroke-miterlimit="10"/>
</svg>
