<svg width="294" height="294" viewBox="0 0 294 294" fill="none" xmlns="http://www.w3.org/2000/svg">
<path d="M293.5 147C293.5 227.91 227.91 293.5 147 293.5C66.0903 293.5 0.5 227.91 0.5 147C0.5 66.0902 66.0903 0.5 147 0.5C227.91 0.5 293.5 66.0902 293.5 147Z" stroke="black"/>
<path d="M74.916 78.332L85.8049 88.0229L81.9967 92.3007L80.8294 91.2619L83.2513 88.54L79.7523 85.425L78.0219 87.3696L76.8545 86.3308L78.5849 84.3862L73.5283 79.8865L74.916 78.332Z" fill="black"/>
<path d="M65.6082 89.718C66.0244 89.1151 66.4727 88.6622 66.9531 88.3577C67.432 88.0533 67.9369 87.8958 68.4647 87.885C68.9925 87.8743 69.5357 87.9753 70.0911 88.1865C70.6465 88.3992 71.2386 88.7218 71.8689 89.1564L76.2201 92.1612C76.849 92.5957 77.3585 93.0334 77.7471 93.4725C78.1357 93.9116 78.4157 94.3783 78.5855 94.871C78.7553 95.3636 78.7783 95.8853 78.6559 96.4361C78.5335 96.9869 78.2627 97.5636 77.848 98.1664C77.0402 99.3353 76.1238 99.9474 75.0972 100.004C74.0706 100.061 72.9231 99.6491 71.6547 98.7755L67.3034 95.7704C66.6838 95.342 66.1759 94.9046 65.7827 94.4579C65.3895 94.0111 65.1033 93.5383 64.9228 93.0396C64.7438 92.5408 64.7101 92.0114 64.8234 91.453C64.9335 90.8946 65.1951 90.3162 65.6082 89.718ZM68.4188 89.8143C67.8986 89.7944 67.4305 90.0852 67.0158 90.688C66.5997 91.2908 66.4926 91.8308 66.696 92.3112C66.898 92.7901 67.3524 93.2736 68.0577 93.7601L73.2658 97.3555C73.9619 97.8359 74.5601 98.0808 75.0604 98.0915C75.5607 98.1023 76.0213 97.8023 76.4405 97.1949C76.8597 96.5875 76.976 96.052 76.7893 95.5868C76.6027 95.1217 76.1605 94.649 75.4659 94.1686L70.2578 90.5731C69.551 90.0866 68.939 89.8342 68.4188 89.8143Z" fill="black"/>
<path d="M57.7798 103.708C57.844 103.202 58.0169 102.663 58.3 102.096C58.583 101.528 58.9058 101.064 59.2715 100.708C59.6371 100.351 60.0227 100.099 60.4312 99.9536C60.8397 99.8082 61.291 99.7501 61.7852 99.7776C62.2809 99.8052 62.7828 99.9 63.2923 100.064C63.8018 100.226 64.3556 100.456 64.9523 100.752L73.3442 104.923L72.4186 106.788L64.0266 102.617C63.6227 102.417 63.2816 102.258 63.0016 102.14C62.7216 102.022 62.4095 101.923 62.0637 101.842C61.7195 101.76 61.4226 101.739 61.1748 101.776C60.9254 101.813 60.6821 101.92 60.4435 102.094C60.2048 102.268 60.0028 102.524 59.8361 102.859C59.6693 103.194 59.5882 103.509 59.5928 103.806C59.5974 104.101 59.6586 104.36 59.781 104.58C59.9018 104.801 60.0977 105.024 60.37 105.25C60.6424 105.477 60.9101 105.665 61.1732 105.818C61.4364 105.969 61.77 106.147 62.1723 106.347L70.5642 110.518L69.6371 112.383L61.2452 108.212C60.6469 107.916 60.1298 107.613 59.6937 107.305C59.2562 106.998 58.8768 106.653 58.5555 106.277C58.2342 105.899 58.0093 105.504 57.8777 105.091C57.7492 104.675 57.7155 104.215 57.7798 103.708Z" fill="black"/>
<path d="M54.1852 111.825L68.0269 116.396L67.5373 117.879L57.8357 118.514L66.3944 121.34L65.7411 123.316L51.8994 118.745L52.3646 117.339L62.7393 116.842L53.5319 113.801L54.1852 111.825Z" fill="black"/>
<path d="M50.3004 125.019L64.6378 127.655L64.0548 130.831C63.7794 132.329 63.2776 133.331 62.5509 133.835C61.8241 134.338 60.7088 134.451 59.2048 134.174L53.573 133.139C52.0001 132.849 50.8955 132.321 50.2606 131.558C49.6272 130.793 49.4466 129.667 49.7205 128.18L50.3004 125.019ZM51.4601 127.349L51.252 128.477C51.1893 128.813 51.1679 129.106 51.1847 129.358C51.2015 129.609 51.278 129.825 51.4126 130.004C51.5473 130.183 51.6804 130.328 51.812 130.441C51.942 130.553 52.1608 130.655 52.4622 130.747C52.7652 130.839 53.0161 130.906 53.215 130.948C53.4139 130.989 53.7245 131.05 54.1452 131.127C54.2829 131.153 54.3884 131.171 54.4573 131.185L59.0656 132.032C59.3272 132.08 59.5353 132.118 59.6898 132.143C59.8459 132.169 60.0295 132.193 60.2421 132.219C60.4548 132.245 60.6246 132.256 60.7532 132.251C60.8801 132.247 61.0255 132.234 61.1861 132.215C61.3468 132.195 61.4768 132.156 61.5747 132.1C61.6727 132.043 61.7782 131.971 61.8914 131.886C62.0047 131.798 62.0949 131.691 62.1668 131.564C62.2372 131.437 62.303 131.284 62.3657 131.108C62.4285 130.932 62.4805 130.732 62.5218 130.509L62.7222 129.421L51.4601 127.349Z" fill="black"/>
<path d="M48.3399 138.379L62.8778 139.433L62.7263 141.511L48.1885 140.457L48.3399 138.379Z" fill="black"/>
<path d="M47.9307 146.852L62.4975 146.327L62.5542 147.888L53.6788 151.855L62.6858 151.531L62.7607 153.611L48.1938 154.136L48.1403 152.657L57.6965 148.584L48.0071 148.933L47.9307 146.852Z" fill="black"/>
<path d="M49.3913 164.457C49.275 163.801 49.269 163.213 49.3699 162.697C49.4709 162.18 49.656 161.743 49.9222 161.382C50.1885 161.021 50.5557 160.705 51.0193 160.436C51.4844 160.167 51.9847 159.95 52.5232 159.783C53.0618 159.616 53.6875 159.471 54.4035 159.344L58.0403 158.703C61.5546 158.083 63.5574 159.168 64.0485 161.955C64.1663 162.622 64.1678 163.221 64.0546 163.747C63.9399 164.273 63.718 164.723 63.3875 165.095C63.0571 165.467 62.647 165.776 62.159 166.022C61.6709 166.268 61.0895 166.464 60.4164 166.61C60.3215 166.632 60.1746 166.66 59.9772 166.695L59.6162 164.645L60.0491 164.569C60.3857 164.504 60.6719 164.435 60.9105 164.363C61.1477 164.292 61.3771 164.195 61.599 164.077C61.8208 163.958 61.9922 163.819 62.1161 163.66C62.2401 163.501 62.3258 163.302 62.3747 163.065C62.4237 162.827 62.4206 162.557 62.3686 162.252C62.2952 161.836 62.1574 161.498 61.9539 161.239C61.752 160.981 61.4904 160.8 61.1737 160.699C60.8554 160.598 60.5158 160.546 60.1547 160.545C59.7936 160.542 59.3805 160.581 58.9154 160.664L54.301 161.476C53.9583 161.536 53.6523 161.602 53.3815 161.671C53.1092 161.741 52.8353 161.825 52.5584 161.928C52.2815 162.029 52.0489 162.147 51.8576 162.283C51.6664 162.419 51.5012 162.573 51.3573 162.751C51.2151 162.927 51.1187 163.133 51.0697 163.372C51.0208 163.609 51.0208 163.872 51.0713 164.16C51.1325 164.501 51.2503 164.786 51.4278 165.014C51.6052 165.242 51.8117 165.41 52.0504 165.52C52.286 165.63 52.5752 165.699 52.9164 165.727C53.2576 165.754 53.5911 165.756 53.917 165.728C54.2413 165.701 54.6101 165.652 55.0217 165.578L55.5342 165.488L55.1731 163.438L56.6954 163.17L57.4176 167.272L50.2558 168.534L49.9849 166.997L51.4323 166.213C50.2435 166.008 49.5611 165.422 49.3913 164.457Z" fill="black"/>
<path d="M54.0176 181.504L67.4354 175.805L68.5615 178.455L59.0971 184.72L70.1772 182.258L71.3032 184.908L57.8869 190.607L57.073 188.69L67.6589 184.194L56.2574 186.773L55.647 185.335L65.4189 178.921L54.833 183.418L54.0176 181.504Z" fill="black"/>
<path d="M61 196.34L73.4968 188.837L76.4436 193.747L75.1048 194.552L73.2291 191.428L69.2129 193.839L70.5517 196.071L69.2129 196.876L67.8727 194.644L63.4097 197.322L65.2855 200.447L63.9467 201.251L61 196.34Z" fill="black"/>
<path d="M67.1162 205.989L78.4625 196.836L80.2709 199.078L72.8812 207.693L82.8642 202.294L84.6726 204.535L73.3264 213.688L72.0198 212.067L80.9732 204.846L70.7132 210.447L69.7325 209.231L77.3778 200.389L68.4243 207.61L67.1162 205.989Z" fill="black"/>
<path d="M77.9072 218.423L87.7588 207.679L90.0613 209.791C90.5571 210.245 90.9533 210.704 91.2486 211.168C91.5454 211.631 91.7428 212.102 91.8422 212.584C91.9417 213.066 91.9111 213.553 91.7504 214.045C91.5898 214.538 91.2961 215.015 90.8707 215.481C90.2557 216.152 89.6452 216.533 89.0409 216.622C88.4365 216.711 87.7633 216.567 87.0213 216.189C87.4665 216.988 87.6608 217.737 87.6058 218.441C87.5492 219.143 87.1728 219.875 86.4766 220.635C85.6076 221.582 84.6468 222.078 83.5926 222.124C82.54 222.17 81.5394 221.758 80.5923 220.889L77.9072 218.423ZM80.499 218.68L81.2655 219.384C81.9295 219.992 82.5538 220.285 83.1428 220.26C83.7303 220.237 84.3301 219.891 84.9436 219.224C85.5556 218.557 85.8478 217.929 85.8203 217.341C85.7927 216.754 85.447 216.155 84.7845 215.546L84.018 214.843L80.499 218.68ZM85.0721 213.692L85.8386 214.396C87.1177 215.569 88.3432 215.516 89.5167 214.237C89.711 214.026 89.8564 213.814 89.9527 213.605C90.0491 213.395 90.1103 213.204 90.1379 213.029C90.1654 212.855 90.1394 212.665 90.0613 212.457C89.9833 212.249 89.9022 212.07 89.8196 211.92C89.737 211.77 89.5932 211.585 89.3867 211.363C89.1816 211.141 89.0057 210.961 88.8619 210.822C88.718 210.682 88.51 210.488 88.2376 210.239L85.0721 213.692Z" fill="black"/>
<path d="M88.2363 227.266L96.6925 215.394L101.357 218.717L100.452 219.988L97.4835 217.874L94.7663 221.689L96.8868 223.2L95.9811 224.472L93.8605 222.962L90.8403 227.202L93.8085 229.316L92.9028 230.589L88.2363 227.266Z" fill="black"/>
<path d="M97.5918 233.531L104.541 220.717L106.83 221.958C108.193 222.697 109.077 223.519 109.481 224.423C109.885 225.327 109.754 226.394 109.088 227.624C108.673 228.387 108.191 228.952 107.641 229.319C107.09 229.686 106.499 229.824 105.872 229.729L104.457 237.253L102.641 236.268L104.022 229.319L102.65 228.574L99.4248 234.524L97.5918 233.531ZM103.393 227.201L103.851 227.449C104.614 227.862 105.274 228.012 105.829 227.897C106.385 227.783 106.86 227.36 107.257 226.631C107.653 225.901 107.746 225.272 107.54 224.744C107.333 224.216 106.848 223.745 106.085 223.33L105.627 223.083L103.393 227.201Z" fill="black"/>
<path d="M217.116 220.35C216.153 221.242 215.157 221.642 214.126 221.547C213.095 221.452 212.096 220.944 211.13 220.021L212.304 218.224C213.796 219.68 215.013 219.972 215.954 219.097C216.718 218.389 216.745 217.653 216.037 216.89C215.827 216.663 215.603 216.483 215.362 216.346C215.122 216.21 214.864 216.122 214.587 216.079C214.31 216.036 214.076 216.013 213.881 216.011C213.689 216.01 213.435 216.021 213.122 216.044L209.798 216.287C209.193 216.337 208.591 216.247 207.989 216.017C207.388 215.788 206.836 215.403 206.334 214.862C205.604 214.075 205.268 213.222 205.326 212.303C205.384 211.385 205.815 210.551 206.623 209.801C207.489 208.996 208.375 208.57 209.279 208.519C210.182 208.469 211.054 208.776 211.892 209.44C211.981 209.512 212.102 209.615 212.255 209.748L211.081 211.545C211.016 211.481 210.912 211.389 210.769 211.268C210.252 210.846 209.74 210.598 209.232 210.526C208.724 210.453 208.242 210.629 207.784 211.053C207.419 211.392 207.231 211.757 207.223 212.145C207.214 212.534 207.379 212.912 207.719 213.277C208.275 213.877 208.996 214.145 209.882 214.077L213.207 213.834C214.989 213.713 216.41 214.226 217.472 215.37C218.199 216.154 218.525 216.991 218.451 217.879C218.376 218.771 217.931 219.595 217.116 220.35Z" fill="black"/>
<path d="M223.101 214.178L213.886 202.46L215.217 200.858L228.425 207.772L227.094 209.374L223.792 207.645L222.129 209.648L224.433 212.578L223.101 214.178ZM221.092 208.449L222.423 206.847L216.953 203.655L221.092 208.449Z" fill="black"/>
<path d="M231.126 204.06L220.489 193.615L221.605 191.857L235.587 197.027L234.472 198.785L230.976 197.492L229.582 199.691L232.241 202.302L231.126 204.06ZM228.402 198.635L229.518 196.877L223.684 194.411L228.402 198.635Z" fill="black"/>
<path d="M239.931 188.758C239.38 189.948 238.609 190.695 237.619 190.999C236.631 191.302 235.514 191.21 234.268 190.724L234.672 188.616C236.604 189.398 237.841 189.206 238.382 188.04C238.82 187.096 238.567 186.405 237.622 185.966C237.34 185.836 237.064 185.753 236.791 185.719C236.517 185.686 236.243 185.701 235.971 185.765C235.699 185.831 235.472 185.898 235.293 185.97C235.113 186.042 234.883 186.148 234.603 186.287L231.62 187.773C231.078 188.048 230.488 188.193 229.844 188.209C229.201 188.224 228.543 188.077 227.874 187.766C226.9 187.315 226.266 186.653 225.971 185.781C225.676 184.909 225.76 183.974 226.224 182.975C226.721 181.902 227.377 181.171 228.196 180.782C229.013 180.394 229.935 180.348 230.963 180.644C231.074 180.678 231.224 180.727 231.415 180.791L231.011 182.9C230.925 182.866 230.794 182.82 230.618 182.762C229.98 182.568 229.411 182.532 228.913 182.658C228.416 182.783 228.037 183.128 227.774 183.694C227.564 184.147 227.529 184.555 227.668 184.918C227.807 185.282 228.104 185.568 228.557 185.778C229.299 186.122 230.068 186.096 230.861 185.698L233.846 184.212C235.448 183.424 236.958 183.36 238.375 184.017C239.345 184.466 239.964 185.117 240.232 185.967C240.498 186.819 240.397 187.75 239.931 188.758Z" fill="black"/>
<path d="M239.487 179.901L238.011 179.391L239.031 176.438L240.508 176.948L239.487 179.901Z" fill="black"/>
<path d="M245.483 173.201L231.286 169.888L232.021 166.743C232.366 165.259 232.914 164.282 233.664 163.814C234.413 163.346 235.533 163.287 237.022 163.634L242.599 164.934C244.156 165.298 245.235 165.877 245.832 166.671C246.428 167.465 246.555 168.599 246.213 170.072L245.483 173.201ZM244.435 170.817L244.695 169.7C244.773 169.367 244.808 169.074 244.803 168.823C244.799 168.573 244.733 168.354 244.606 168.167C244.479 167.982 244.354 167.83 244.228 167.711C244.103 167.593 243.892 167.48 243.592 167.375C243.293 167.269 243.047 167.191 242.85 167.139C242.654 167.087 242.346 167.014 241.929 166.916C241.792 166.884 241.688 166.859 241.62 166.844L237.057 165.779C236.799 165.719 236.592 165.672 236.439 165.638C236.285 165.604 236.103 165.571 235.891 165.535C235.679 165.5 235.509 165.482 235.382 165.479C235.255 165.477 235.11 165.482 234.949 165.494C234.787 165.506 234.657 165.539 234.554 165.591C234.453 165.643 234.345 165.708 234.228 165.789C234.112 165.871 234.016 165.973 233.939 166.099C233.863 166.224 233.789 166.371 233.719 166.544C233.648 166.717 233.587 166.914 233.534 167.136L233.283 168.213L244.435 170.817Z" fill="black"/>
<path d="M248.101 159.926L233.604 158.396L234.206 152.701L235.759 152.865L235.376 156.489L240.035 156.981L240.309 154.392L241.862 154.555L241.588 157.144L246.765 157.69L247.148 154.066L248.702 154.23L248.101 159.926Z" fill="black"/>
<path d="M248.955 148.703L234.38 148.938L234.287 143.213L235.849 143.187L235.909 146.831L240.594 146.755L240.551 144.152L242.113 144.126L242.154 146.729L248.921 146.619L248.955 148.703Z" fill="black"/>
<path d="M248.541 137.956L234.034 139.378L233.83 137.306L248.337 135.885L248.541 137.956Z" fill="black"/>
<path d="M246.245 123.316L231.369 124.294L230.8 122.291L243.968 115.304L244.537 117.306L241.245 119.054L241.956 121.558L245.676 121.313L246.245 123.316ZM240.384 121.733L239.814 119.73L234.089 122.438L240.384 121.733Z" fill="black"/>
<path d="M242.062 110.187L228.615 115.815L227.812 113.893L239.819 108.868L238.411 105.507L239.852 104.904L242.062 110.187Z" fill="black"/>
<path d="M237.563 100.311L224.805 107.361L223.798 105.539L235.189 99.2446L233.426 96.0547L234.794 95.2988L237.563 100.311Z" fill="black"/>
<path d="M231.981 90.9604L219.957 99.2023L218.779 97.4841L230.803 89.2422L231.981 90.9604Z" fill="black"/>
<path d="M227.615 84.8083L214.499 91.8936L213.146 90.31L222.208 78.4727L223.559 80.056L221.295 83.0151L222.984 84.9948L226.264 83.2232L227.615 84.8083ZM221.627 85.8103L220.276 84.2269L216.199 89.0738L221.627 85.8103Z" fill="black"/>
<path d="M218.324 74.5331L208.576 85.3714L207.415 84.3264L210.732 75.1879L204.706 81.8892L203.157 80.497L212.905 69.6587L214.006 70.6485L210.292 80.3485L216.776 73.1392L218.324 74.5331Z" fill="black"/>
<path d="M204.789 63.4405C205.295 63.7848 205.692 64.1613 205.981 64.5667C206.268 64.9721 206.449 65.3866 206.522 65.8074C206.596 66.2281 206.582 66.6811 206.478 67.1661C206.376 67.6496 206.209 68.1284 205.978 68.6012C205.748 69.074 205.448 69.5819 205.078 70.1235L202.739 73.5598C202.37 74.1014 202.006 74.5665 201.651 74.9551C201.296 75.3437 200.912 75.6728 200.499 75.9466C200.086 76.2205 199.671 76.398 199.255 76.4806C198.839 76.5632 198.388 76.5463 197.904 76.427C197.422 76.3077 196.926 76.0767 196.42 75.7309C195.86 75.35 195.432 74.9367 195.138 74.4931C194.844 74.0494 194.684 73.5828 194.659 73.0947C194.635 72.6067 194.705 72.1064 194.872 71.5969C195.038 71.0874 195.305 70.5397 195.67 69.9552C195.724 69.8665 195.811 69.7333 195.934 69.5543L197.655 70.7264L197.395 71.1089C197.237 71.3491 197.107 71.5586 197.008 71.736C196.908 71.9135 196.813 72.1033 196.726 72.3083C196.64 72.5118 196.591 72.697 196.579 72.8637C196.568 73.0305 196.581 73.1988 196.617 73.3717C196.654 73.5446 196.737 73.7083 196.867 73.8659C196.995 74.0235 197.168 74.1749 197.382 74.3203C197.661 74.51 197.93 74.6278 198.19 74.6737C198.45 74.7196 198.686 74.7103 198.894 74.646C199.102 74.5818 199.318 74.4502 199.54 74.2544C199.763 74.0585 199.959 73.8535 200.132 73.6394C200.303 73.4252 200.504 73.1528 200.728 72.8208L203.66 68.5186C203.854 68.231 204.019 67.9633 204.154 67.7139C204.289 67.4645 204.399 67.1997 204.483 66.9198C204.569 66.6398 204.608 66.3827 204.601 66.1486C204.593 65.9145 204.527 65.6834 204.402 65.457C204.276 65.2306 204.087 65.0302 203.831 64.8573C203.576 64.6829 203.322 64.5834 203.071 64.5559C202.82 64.5299 202.59 64.5558 202.381 64.6369C202.171 64.718 201.957 64.8559 201.734 65.0532C201.51 65.2491 201.316 65.4539 201.145 65.6651C200.975 65.8762 200.788 66.1303 200.586 66.4271L200.294 66.857L198.573 65.6851L198.865 65.2551C199.289 64.6324 199.717 64.1229 200.147 63.7266C200.577 63.3304 201.038 63.0351 201.527 62.8408C202.017 62.6465 202.535 62.5976 203.083 62.6955C203.631 62.7934 204.197 63.0381 204.789 63.4405Z" fill="black"/>
<path d="M196.583 58.572L189.908 71.5311L184.816 68.9085L185.532 67.5209L188.771 69.1902L190.916 65.024L188.603 63.8321L189.318 62.4444L191.631 63.6363L194.016 59.0081L190.776 57.339L191.49 55.9512L196.583 58.572Z" fill="black"/>
<path d="M148.971 240.28C139.551 240.28 130.254 238.889 121.337 236.144L121.791 234.668C130.561 237.367 139.706 238.734 148.971 238.734C167.056 238.734 184.566 233.507 199.609 223.614L200.458 224.905C185.163 234.963 167.358 240.28 148.971 240.28Z" fill="black"/>
<path d="M89.3706 76.0076L88.373 74.828C105.272 60.5166 126.792 52.6357 148.971 52.6357C158.294 52.6357 167.5 53.999 176.336 56.6887L175.886 58.1666C167.197 55.5213 158.141 54.181 148.971 54.181C127.158 54.181 105.992 61.9319 89.3706 76.0076Z" fill="black"/>
<path d="M155.242 186.322L112.394 155.523L136.546 138.394L138.134 140.634L117.118 155.537L152.487 180.959L152.404 132.897L155.149 132.892L155.242 186.322Z" fill="black"/>
<path d="M142.287 158.27L142.193 104.84L185.042 135.638L160.888 152.768L159.3 150.528L180.317 135.623L144.949 110.201L145.032 158.265L142.287 158.27Z" fill="black"/>
</svg>
