<svg width="160" height="44" viewBox="0 0 160 44" fill="none" xmlns="http://www.w3.org/2000/svg">
<path d="M65.736 33V15.48H67.56V33H65.736ZM67.08 24.912V23.256L74.832 23.232V24.888L67.08 24.912ZM67.08 17.112V15.48H75.288V17.112H67.08ZM79.2188 33V20.304H80.9948V33H79.2188ZM77.1788 21.744V20.304H80.9948V21.744H77.1788ZM79.6028 17.952C79.1708 17.952 78.8428 17.84 78.6188 17.616C78.4108 17.376 78.3068 17.08 78.3068 16.728C78.3068 16.376 78.4108 16.088 78.6188 15.864C78.8428 15.624 79.1708 15.504 79.6028 15.504C80.0348 15.504 80.3548 15.624 80.5628 15.864C80.7708 16.088 80.8748 16.376 80.8748 16.728C80.8748 17.08 80.7708 17.376 80.5628 17.616C80.3548 17.84 80.0348 17.952 79.6028 17.952ZM85.8386 33V15.48H87.6386V33H85.8386ZM83.9906 16.944V15.48H87.6386V16.944H83.9906ZM97.6086 33.408C96.5206 33.408 95.5766 33.224 94.7766 32.856C93.9766 32.472 93.3206 31.968 92.8086 31.344C92.2966 30.704 91.9126 29.992 91.6566 29.208C91.4166 28.424 91.2966 27.616 91.2966 26.784V26.448C91.2966 25.632 91.4166 24.832 91.6566 24.048C91.9126 23.264 92.2966 22.56 92.8086 21.936C93.3206 21.312 93.9606 20.816 94.7286 20.448C95.5126 20.064 96.4246 19.872 97.4646 19.872C98.7926 19.872 99.8966 20.168 100.777 20.76C101.673 21.352 102.345 22.112 102.793 23.04C103.241 23.952 103.465 24.936 103.465 25.992V26.928H92.1126V25.536H102.217L101.761 26.232C101.761 25.288 101.593 24.464 101.257 23.76C100.937 23.04 100.457 22.48 99.8166 22.08C99.1926 21.664 98.4086 21.456 97.4646 21.456C96.4726 21.456 95.6486 21.688 94.9926 22.152C94.3366 22.616 93.8406 23.232 93.5046 24C93.1846 24.768 93.0246 25.64 93.0246 26.616C93.0246 27.576 93.1846 28.456 93.5046 29.256C93.8406 30.04 94.3446 30.664 95.0166 31.128C95.7046 31.592 96.5686 31.824 97.6086 31.824C98.7126 31.824 99.6086 31.576 100.297 31.08C100.985 30.568 101.409 29.968 101.569 29.28H103.249C103.089 30.128 102.753 30.864 102.241 31.488C101.729 32.096 101.081 32.568 100.297 32.904C99.5126 33.24 98.6166 33.408 97.6086 33.408ZM112.282 33.408C111.21 33.408 110.274 33.224 109.474 32.856C108.69 32.472 108.034 31.96 107.506 31.32C106.978 30.664 106.578 29.944 106.306 29.16C106.05 28.376 105.922 27.584 105.922 26.784V26.448C105.922 25.632 106.05 24.84 106.306 24.072C106.578 23.288 106.978 22.584 107.506 21.96C108.034 21.32 108.69 20.816 109.474 20.448C110.274 20.064 111.194 19.872 112.234 19.872C113.29 19.872 114.226 20.064 115.042 20.448C115.874 20.832 116.546 21.376 117.058 22.08C117.57 22.784 117.874 23.616 117.97 24.576H116.242C116.098 23.696 115.682 22.968 114.994 22.392C114.322 21.8 113.402 21.504 112.234 21.504C111.226 21.504 110.386 21.736 109.714 22.2C109.058 22.648 108.562 23.264 108.226 24.048C107.89 24.816 107.722 25.672 107.722 26.616C107.722 27.544 107.89 28.408 108.226 29.208C108.562 29.992 109.066 30.624 109.738 31.104C110.41 31.568 111.258 31.8 112.282 31.8C113.066 31.8 113.746 31.664 114.322 31.392C114.914 31.104 115.386 30.72 115.738 30.24C116.106 29.76 116.322 29.232 116.386 28.656H118.114C118.05 29.616 117.746 30.456 117.202 31.176C116.674 31.88 115.986 32.432 115.138 32.832C114.29 33.216 113.338 33.408 112.282 33.408ZM127.102 33.408C126.014 33.408 125.054 33.224 124.222 32.856C123.406 32.472 122.71 31.968 122.134 31.344C121.574 30.704 121.142 29.992 120.838 29.208C120.55 28.424 120.406 27.624 120.406 26.808V26.472C120.406 25.656 120.558 24.856 120.862 24.072C121.166 23.272 121.606 22.56 122.182 21.936C122.758 21.312 123.454 20.816 124.27 20.448C125.102 20.064 126.046 19.872 127.102 19.872C128.174 19.872 129.118 20.064 129.934 20.448C130.766 20.816 131.47 21.312 132.046 21.936C132.622 22.56 133.054 23.272 133.342 24.072C133.646 24.856 133.798 25.656 133.798 26.472V26.808C133.798 27.624 133.654 28.424 133.366 29.208C133.078 29.992 132.646 30.704 132.07 31.344C131.51 31.968 130.814 32.472 129.982 32.856C129.15 33.224 128.19 33.408 127.102 33.408ZM127.102 31.8C128.158 31.8 129.046 31.568 129.766 31.104C130.502 30.624 131.062 30 131.446 29.232C131.83 28.448 132.022 27.584 132.022 26.64C132.022 25.68 131.822 24.816 131.422 24.048C131.038 23.264 130.478 22.648 129.742 22.2C129.006 21.736 128.126 21.504 127.102 21.504C126.094 21.504 125.222 21.736 124.486 22.2C123.75 22.648 123.182 23.264 122.782 24.048C122.398 24.816 122.206 25.68 122.206 26.64C122.206 27.584 122.398 28.448 122.782 29.232C123.166 30 123.718 30.624 124.438 31.104C125.174 31.568 126.062 31.8 127.102 31.8ZM138.141 33V20.304H139.917V33H138.141ZM136.101 21.744V20.304H139.917V21.744H136.101ZM138.525 17.952C138.093 17.952 137.765 17.84 137.541 17.616C137.333 17.376 137.229 17.08 137.229 16.728C137.229 16.376 137.333 16.088 137.541 15.864C137.765 15.624 138.093 15.504 138.525 15.504C138.957 15.504 139.277 15.624 139.485 15.864C139.693 16.088 139.797 16.376 139.797 16.728C139.797 17.08 139.693 17.376 139.485 17.616C139.277 17.84 138.957 17.952 138.525 17.952ZM144.641 33V20.304H146.081V25.632H145.793C145.793 24.448 145.969 23.432 146.321 22.584C146.673 21.736 147.201 21.08 147.905 20.616C148.609 20.152 149.497 19.92 150.569 19.92H150.641C152.241 19.92 153.433 20.424 154.217 21.432C155.001 22.424 155.393 23.824 155.393 25.632V33H153.617V25.248C153.617 24.144 153.313 23.256 152.705 22.584C152.097 21.912 151.249 21.576 150.161 21.576C149.041 21.576 148.137 21.928 147.449 22.632C146.777 23.32 146.441 24.232 146.441 25.368V33H144.641Z" fill="white"/>
<mask id="mask0_470:272" style="mask-type:alpha" maskUnits="userSpaceOnUse" x="0" y="0" width="43" height="44">
<path fill-rule="evenodd" clip-rule="evenodd" d="M0 0.77417H42.8924V43.6666H0V0.77417Z" fill="white"/>
</mask>
<g mask="url(#mask0_470:272)">
<path fill-rule="evenodd" clip-rule="evenodd" d="M21.4462 43.6665C9.65079 43.6665 0 34.0157 0 22.1131C0.107231 10.3176 9.65079 0.666847 21.5534 0.774078C33.3489 0.881309 42.8924 10.4249 42.8924 22.4348C42.7852 34.1229 33.2416 43.6665 21.4462 43.6665Z" fill="white"/>
<path fill-rule="evenodd" clip-rule="evenodd" d="M23.4839 19.6467L22.8405 23.0781L28.9527 23.9359L28.5238 25.5444L22.5188 24.6865C22.0899 26.0805 21.8754 27.5818 21.3393 28.8686C20.8031 30.3698 20.267 31.871 19.6236 33.265C18.7657 35.088 17.2645 36.3747 15.2271 36.6964C14.0476 36.9109 12.7608 36.8037 11.7957 36.053C11.474 35.8386 11.1523 35.4096 11.1523 35.088C11.1523 34.659 11.3668 34.1229 11.6885 33.9084C11.903 33.8012 12.4391 33.9084 12.7608 34.0156C13.0825 34.3373 13.4042 34.7663 13.6187 35.1952C14.262 36.053 15.1199 36.1603 15.9777 35.5169C16.9428 34.659 17.479 33.4795 17.8007 32.2999C18.4441 29.7264 19.0874 27.2601 19.6236 24.6865V24.2576L13.9404 23.3998L14.1548 21.7913L20.0525 22.6492L20.8031 19.325L14.691 18.3599L14.9054 16.6442L21.2321 17.5021C21.4465 16.8587 21.5538 16.3225 21.7682 15.7864C22.3044 13.8562 22.8405 11.9261 24.1273 10.2104C25.4141 8.49466 26.9153 7.42235 29.1672 7.52958C30.1322 7.52958 31.0973 7.85127 31.7407 8.60189C31.8479 8.70912 32.0624 8.92358 32.0624 9.13804C32.0624 9.56697 32.0624 10.1031 31.7407 10.4248C31.3118 10.7465 30.7756 10.6393 30.3467 10.2104C30.025 9.88866 29.8105 9.56697 29.4889 9.24528C28.8455 8.38743 27.8804 8.2802 27.1298 9.03081C26.5936 9.56697 26.0575 10.3176 25.7358 11.0682C24.9851 13.3201 24.449 15.6791 23.6984 18.0382L29.5961 18.8961L29.1672 20.5045L23.4839 19.6467Z" fill="#101624"/>
</g>
</svg>
