<svg width="122" height="41" viewBox="0 0 122 41" fill="none" xmlns="http://www.w3.org/2000/svg">
<path d="M73.7479 23.8752C72.4059 28.4382 68.1109 31.6871 62.9529 31.6871C56.2139 31.6871 51.3818 26.3502 51.3818 20.2082C51.3818 14.3322 55.9449 8.78516 62.9229 8.78516C69.2759 8.81416 72.8838 13.4972 73.7488 16.7162H69.0669C68.3799 15.1982 66.4129 12.7212 62.8929 12.6902C58.5989 12.6902 55.8258 16.2992 55.8258 20.2082C55.8258 24.2342 58.7179 27.7822 62.9239 27.7822C66.8599 27.7822 68.6498 24.6782 69.0678 23.8752H73.7479Z" fill="white"/>
<path d="M79.5347 24.3806C79.7127 27.0056 82.0397 28.4676 84.2767 28.4386C86.1837 28.4386 87.4677 27.5726 88.2137 26.2306H92.2387C91.4637 28.0506 90.3007 29.4196 88.9297 30.3446C87.5577 31.3016 85.9477 31.7796 84.2477 31.7796C79.2067 31.7796 75.5977 27.6926 75.5977 23.1296C75.5977 18.4786 79.2377 14.3906 84.1867 14.3906C86.6327 14.3906 88.7797 15.3156 90.3007 16.8966C92.2997 18.9536 93.0447 21.5206 92.7157 24.3806H79.5347ZM88.8687 21.3986C88.7197 19.8486 87.0807 17.6726 84.2167 17.7016C81.3237 17.7016 79.7437 19.7876 79.5967 21.3986H88.8687Z" fill="white"/>
<path d="M95.6709 14.9006H99.3679V17.0456C100.084 15.5816 101.427 14.4226 103.902 14.3906V18.3286H103.723C100.98 18.3286 99.5769 19.6096 99.5769 22.4436V31.2696H95.6709V14.9006Z" fill="white"/>
<path d="M108.255 24.3806C108.436 27.0056 110.759 28.4676 112.996 28.4386C114.905 28.4386 116.187 27.5726 116.933 26.2306H120.958C120.185 28.0506 119.02 29.4196 117.646 30.3446C116.277 31.3016 114.667 31.7796 112.965 31.7796C107.926 31.7796 104.317 27.6926 104.317 23.1296C104.317 18.4786 107.956 14.3906 112.906 14.3906C115.351 14.3906 117.497 15.3156 119.02 16.8966C121.017 18.9536 121.765 21.5206 121.435 24.3806H108.255ZM117.587 21.3986C117.441 19.8486 115.801 17.6726 112.936 17.7016C110.044 17.7016 108.466 19.7876 108.315 21.3986H117.587Z" fill="white"/>
<path d="M19.422 40.562C10.101 40.562 2.85999 36.083 0.523987 28.873L0 27.26L1.53201 26.527C1.69401 26.448 5.71301 24.429 5.46301 20.459C5.19901 16.268 1.79899 14.301 1.65399 14.22L0.160004 13.376L0.804993 11.783C3.86199 4.403 10.823 0 19.423 0C26.182 0 32.106 2.641 35.672 7.245L36.572 8.409L29.466 17.968L27.88 16.437C27.849 16.408 24.471 13.22 20.55 13.202C16.772 13.184 15.283 14.605 15.221 14.666L12.422 11.982C12.678 11.709 15.077 9.286 20.567 9.327C24.065 9.343 27.087 11.012 28.87 12.275L31.657 8.526C28.767 5.556 24.393 3.877 19.424 3.877C13.007 3.877 7.73699 6.846 5.03699 11.894C6.66899 13.261 9.06401 15.968 9.33401 20.215C9.62301 24.805 6.68201 27.691 4.76901 29.069C7.03301 33.802 12.496 36.682 19.425 36.682C24.224 36.682 29.136 34.817 32.169 31.934L29 27.969C27.313 29.162 24.43 30.712 20.66 30.908C15.307 31.183 12.142 28.724 12.01 28.619L14.417 25.581C14.491 25.635 16.641 27.237 20.458 27.036C24.976 26.804 27.874 23.907 27.901 23.876L29.434 22.317L30.805 24.018L37.21 32.037L36.228 33.248C32.625 37.691 26.031 40.562 19.422 40.562Z" fill="url(#paint0_linear)"/>
<defs>
<linearGradient id="paint0_linear" x1="35.5969" y1="6.401" x2="4.1454" y2="33.9355" gradientUnits="userSpaceOnUse">
<stop offset="0.0733" stop-color="#F46881"/>
<stop offset="0.083" stop-color="#F36682"/>
<stop offset="0.2596" stop-color="#E74596"/>
<stop offset="0.407" stop-color="#E031A2"/>
<stop offset="0.5065" stop-color="#DD2AA6"/>
<stop offset="0.8882" stop-color="#5210E2"/>
</linearGradient>
</defs>
</svg>
