<svg width="26" height="20" viewBox="0 0 26 20" fill="none" xmlns="http://www.w3.org/2000/svg">
<path d="M8.16725 20C17.979 20 23.3464 12.3035 23.3464 5.64077C23.3464 5.42539 23.3464 5.20694 23.3366 4.99157C24.3816 4.27543 25.2835 3.38881 26 2.37325C25.0239 2.78069 23.9895 3.04922 22.9304 3.17013C24.046 2.53884 24.8815 1.54555 25.2817 0.374893C24.2336 0.962744 23.0864 1.37541 21.8904 1.59483C21.0863 0.784138 20.0223 0.24708 18.8631 0.0668435C17.704 -0.113393 16.5144 0.0732493 15.4787 0.597861C14.4429 1.12247 13.6188 1.95578 13.134 2.96869C12.6492 3.98161 12.5307 5.11761 12.7969 6.20074C10.6758 6.10005 8.60083 5.57841 6.70644 4.66965C4.81206 3.76089 3.14061 2.48531 1.8005 0.925632C1.12018 2.03801 0.912557 3.35381 1.2198 4.60585C1.52704 5.85788 2.32611 6.95228 3.45475 7.66681C2.609 7.63961 1.78185 7.42461 1.04 7.03915V7.10838C1.04146 8.27367 1.46787 9.40275 2.24717 10.3048C3.02647 11.2068 4.11084 11.8264 5.317 12.0589C4.85918 12.1783 4.38625 12.2378 3.91138 12.2358C3.5766 12.2368 3.24249 12.2074 2.91363 12.1481C3.25453 13.1512 3.91832 14.0283 4.81203 14.6564C5.70573 15.2845 6.78459 15.6323 7.8975 15.651C6.0069 17.0568 3.67153 17.8192 1.2675 17.8155C0.843896 17.8172 0.420588 17.7941 0 17.7463C2.43996 19.2189 5.27361 20.0008 8.16725 20Z" fill="white"/>
</svg>
