<svg width="25" height="23" viewBox="0 0 25 23" fill="none" xmlns="http://www.w3.org/2000/svg">
<path d="M5.68649 23V7.48123H0.317531V23H5.68649ZM3.00313 5.36123C4.87478 5.36123 6.0398 4.17127 6.0398 2.68061C6.00626 1.15773 4.87701 0 3.03891 0C1.2008 0 0 1.15988 0 2.68061C0 4.17127 1.16503 5.36123 2.96735 5.36123H3.00313ZM13.9781 23V14.3331C13.9781 13.8692 14.0139 13.4052 14.157 13.0744C14.5438 12.1487 15.4271 11.1886 16.9119 11.1886C18.8551 11.1886 19.631 12.6105 19.631 14.6983V23H25V14.099C25 9.33059 22.3524 7.11393 18.8193 7.11393C15.9705 7.11393 14.6936 8.61748 13.9781 9.67641V9.73011H13.9423C13.9542 9.71218 13.9661 9.69428 13.9781 9.67641V7.48123H8.61136C8.67844 8.93752 8.61136 23 8.61136 23H13.9781Z" fill="white"/>
</svg>
