<svg width="26" height="22" viewBox="0 0 26 22" fill="none" xmlns="http://www.w3.org/2000/svg">
<path d="M15.7513 3.33105C13.4229 4.32109 8.76605 6.36839 1.78682 9.47295C0.655532 9.9313 0.0599628 10.3835 0.00609215 10.8236C-0.0836922 11.5661 0.829116 11.8594 2.07113 12.2597L2.59487 12.4278C3.81594 12.8342 5.46199 13.3078 6.31494 13.3262C7.09307 13.3445 7.958 13.0206 8.9127 12.3483C15.434 7.85345 18.801 5.58308 19.0105 5.53419C19.1601 5.49752 19.3696 5.45474 19.5073 5.58308C19.6479 5.70836 19.633 5.94976 19.618 6.01393C19.5282 6.40811 15.9458 9.80602 14.0933 11.5661C13.5156 12.1161 13.1056 12.5042 13.0218 12.5928C12.8373 12.7853 12.6497 12.9748 12.4592 13.1612C11.3219 14.2795 10.472 15.1168 12.5041 16.4857C13.4827 17.1458 14.2668 17.6866 15.048 18.2305C15.8979 18.8233 16.7479 19.4131 17.8492 20.1525C18.1276 20.3359 18.3969 20.5345 18.6573 20.7239C19.6479 21.4451 20.5428 22.0929 21.6411 21.989C22.2816 21.9279 22.943 21.3167 23.2782 19.4833C24.0713 15.1535 25.6306 5.77559 25.9897 1.91016C26.0116 1.58883 25.9986 1.26601 25.9508 0.947622C25.9226 0.690704 25.8008 0.454006 25.6096 0.284541C25.3373 0.0926131 25.0127 -0.0068209 24.6818 0.000363643C23.784 0.015642 22.3983 0.507607 15.7513 3.33105Z" fill="white"/>
</svg>
