<svg width="21" height="23" viewBox="0 0 21 23" fill="none" xmlns="http://www.w3.org/2000/svg">
<path d="M6.22654 22.4052C7.02334 22.4052 7.24067 22.0909 7.24067 21.7039C7.24067 21.3574 7.22835 20.4399 7.22219 19.2241C3.0937 20.1036 2.22296 17.2676 2.22296 17.2676C1.54772 15.5844 0.571682 15.134 0.571682 15.134C-0.772647 14.23 0.675587 14.2484 0.675587 14.2484C2.16611 14.3498 2.9489 15.7513 2.9489 15.7513C4.27222 17.9812 6.42315 17.337 7.27176 16.9646C7.40535 16.0207 7.78764 15.3788 8.21167 15.0142C4.91554 14.6492 1.4511 13.3951 1.4511 7.80716C1.4511 6.21525 2.02636 4.91433 2.97859 3.89376C2.81167 3.52519 2.31063 2.04223 3.10854 0.033579C3.10854 0.033579 4.35149 -0.357396 7.18998 1.52886C8.37747 1.20483 9.6389 1.04407 10.9006 1.0365C12.1623 1.04379 13.4237 1.20483 14.6112 1.52886C17.4312 -0.357396 18.6742 0.033579 18.6742 0.033579C19.4718 2.04223 18.9711 3.52519 18.8226 3.89376C19.7687 4.91405 20.3439 6.21525 20.3439 7.80716C20.3439 13.4099 16.8747 14.6431 13.5722 15.0018C14.0917 15.4396 14.574 16.3338 14.574 17.7006C14.574 19.6524 14.5555 21.2208 14.5555 21.6943C14.5555 22.0766 14.7207 22.387 15.5758 22.387L6.22654 22.4052Z" fill="white"/>
</svg>
