<svg width="440" height="325" viewBox="0 0 440 325" fill="none" xmlns="http://www.w3.org/2000/svg">
<path d="M6.05505 184.342C6.05505 85.8775 85.8779 6.05469 184.343 6.05469C282.808 6.05469 362.63 85.8775 362.63 184.342" stroke="white" stroke-width="2.09" stroke-miterlimit="10"/>
<path d="M77.37 180.979C77.37 102.579 141.078 39.0215 219.664 39.0215C298.25 39.0215 361.957 102.579 361.957 180.979" stroke="white" stroke-width="1.26" stroke-miterlimit="10"/>
<path d="M433.272 180.979C433.272 259.379 369.564 322.936 290.979 322.936C212.392 322.936 148.685 259.379 148.685 180.979" stroke="white" stroke-width="2.26" stroke-miterlimit="10"/>
<path d="M295.352 194.434C295.352 254.999 246.103 304.098 185.352 304.098C124.601 304.098 75.3517 254.999 75.3517 194.434" stroke="white" stroke-width="1.52" stroke-miterlimit="10"/>
<path d="M363.303 184.342C363.303 224.1 331.224 256.33 291.651 256.33C252.08 256.33 220 224.1 220 184.342" stroke="white" stroke-miterlimit="10" stroke-dasharray="4.9 4.9"/>
<path d="M150.031 187.034C150.031 207.842 133.162 224.71 112.354 224.71C91.5474 224.71 74.6789 207.842 74.6789 187.034" stroke="white" stroke-width="0.8638" stroke-miterlimit="10"/>
<path d="M6.05505 179.633C6.05505 120.925 53.6476 73.333 112.355 73.333C171.062 73.333 218.654 120.925 218.654 179.633" stroke="white" stroke-miterlimit="10" stroke-dasharray="4.9 4.9"/>
<path d="M219.327 180.978C219.327 121.528 267.22 73.333 326.3 73.333C385.379 73.333 433.272 121.527 433.272 180.978" stroke="white" stroke-width="1.45" stroke-miterlimit="10"/>
<path d="M149.358 185.016C149.358 145.258 181.739 113.028 221.682 113.028C261.626 113.028 294.006 145.258 294.006 185.016" stroke="white" stroke-width="0.7" stroke-miterlimit="10"/>
<path d="M293.333 182.997C293.333 144.353 324.66 113.028 363.303 113.028C401.945 113.028 433.272 144.353 433.272 182.997" stroke="white" stroke-width="1.6019" stroke-miterlimit="10"/>
<path d="M5.38226 180.979C5.38226 159.428 22.4012 141.958 43.3945 141.958C64.3883 141.958 81.4067 159.428 81.4067 180.979" stroke="white" stroke-width="0.8762" stroke-miterlimit="10"/>
<path d="M76.3609 205.872C88.0652 205.872 97.5535 196.383 97.5535 184.679C97.5535 172.975 88.0652 163.486 76.3609 163.486C64.6565 163.486 55.1682 172.975 55.1682 184.679C55.1682 196.383 64.6565 205.872 76.3609 205.872Z" fill="#B70F93"/>
<path d="M218.318 196.453C225.192 196.453 230.765 191.031 230.765 184.343C230.765 177.654 225.192 172.232 218.318 172.232C211.444 172.232 205.872 177.654 205.872 184.343C205.872 191.031 211.444 196.453 218.318 196.453Z" fill="#B70F93"/>
<path d="M5.04587 189.725C7.83263 189.725 10.0917 187.465 10.0917 184.679C10.0917 181.892 7.83263 179.633 5.04587 179.633C2.25912 179.633 0 181.892 0 184.679C0 187.465 2.25912 189.725 5.04587 189.725Z" fill="#B70F93"/>
<path d="M141.957 300.734C144.93 300.734 147.339 298.475 147.339 295.688C147.339 292.901 144.93 290.642 141.957 290.642C138.985 290.642 136.575 292.901 136.575 295.688C136.575 298.475 138.985 300.734 141.957 300.734Z" fill="#B70F93"/>
<path d="M310.826 184.679C310.826 193.411 303.746 200.489 295.016 200.489C286.285 200.489 279.205 193.411 279.205 184.679C279.205 175.948 286.284 168.869 295.016 168.869C303.746 168.869 310.826 175.948 310.826 184.679Z" fill="#B70F93"/>
<path d="M363.303 189.725C366.275 189.725 368.685 187.465 368.685 184.679C368.685 181.892 366.275 179.633 363.303 179.633C360.33 179.633 357.921 181.892 357.921 184.679C357.921 187.465 360.33 189.725 363.303 189.725Z" fill="#B70F93"/>
<path d="M153.731 15.474C158.004 15.474 161.468 12.01 161.468 7.737C161.468 3.46398 158.004 0 153.731 0C149.458 0 145.994 3.46398 145.994 7.737C145.994 12.01 149.458 15.474 153.731 15.474Z" fill="#B70F93"/>
<path d="M384.495 295.351C388.768 295.351 392.232 291.887 392.232 287.614C392.232 283.341 388.768 279.877 384.495 279.877C380.222 279.877 376.758 283.341 376.758 287.614C376.758 291.887 380.222 295.351 384.495 295.351Z" fill="#B70F93"/>
<path d="M434.954 189.725C437.741 189.725 440 187.465 440 184.679C440 181.892 437.741 179.633 434.954 179.633C432.167 179.633 429.908 181.892 429.908 184.679C429.908 187.465 432.167 189.725 434.954 189.725Z" fill="#B70F93"/>
<path d="M148.349 191.07C151.879 191.07 154.74 188.209 154.74 184.679C154.74 181.149 151.879 178.288 148.349 178.288C144.819 178.288 141.957 181.149 141.957 184.679C141.957 188.209 144.819 191.07 148.349 191.07Z" fill="#B70F93"/>
</svg>
