<svg width="199" height="52" viewBox="0 0 199 52" fill="none" xmlns="http://www.w3.org/2000/svg">
<path d="M40.8923 14.7855L38.5128 15.5204C36.4945 8.345 32.9647 4.24233 26.8398 4.24233H18.8415C18.3334 10.9383 18.1898 17.6589 18.4066 24.3713L23.7411 24.0782C27.3466 24.0782 28.8581 21.3693 29.7236 17.4147H31.7406V34.0376H29.7236C28.8626 30.0112 27.3466 27.3023 23.7411 27.0829L18.4066 27.009C18.4066 32.9393 18.4784 37.9921 18.8415 41.0666C19.2027 45.4594 20.3556 47.4319 23.4543 47.8757L26.3355 48.1676V50.0716H0.248047V48.1766L2.40881 47.8841C5.43566 47.4466 6.66228 45.4779 7.02283 41.0756C7.67144 30.7627 7.67144 20.4192 7.02283 10.1063C6.66292 5.56859 5.43693 3.74058 2.40881 3.36922L0.248047 3.00283V1.02002H40.8211L40.8923 14.7855Z" fill="white"/>
<path d="M96.7404 24.7481C92.0558 21.5254 87.0119 22.9187 86.0008 24.7481C85.5907 30.9913 85.6161 37.2549 86.0752 43.4936C86.2889 46.4187 87.0838 47.6668 89.2445 47.8862L92.127 48.1786V50.0826H70.6523V48.1786L72.3088 47.8862C74.399 47.6668 75.1208 46.4225 75.2645 43.4936C75.8406 36.7697 75.8406 30.0081 75.2645 23.2841C75.1201 20.1339 74.4047 18.9652 72.3088 18.6721L70.6523 18.4519V17.1333L86.0008 14.0569L85.7948 22.2629C89.3953 13.7687 96.5306 12.7424 100.418 15.0132L96.7404 24.7481Z" fill="white"/>
<path d="M159.435 28.1873C159.65 23.3545 158.714 16.3984 154.893 16.3984C151.005 16.3984 148.841 22.9157 148.769 28.4785L159.435 28.1873ZM155.834 14.0539C165.416 14.0539 170.031 21.3762 170.1 30.9693H148.555C148.483 39.4642 152.806 45.9078 160.877 45.9078C163.679 45.9924 166.419 45.0557 168.585 43.2726L169.594 44.4426C166.301 48.7253 161.159 51.1755 155.759 51.0337C145.238 51.0337 137.959 43.4901 137.959 32.8726C137.959 23.2808 143.942 14.0533 155.83 14.0533L155.834 14.0539ZM124.772 31.8455C124.555 24.2307 121.889 18.2291 116.772 18.2291C115.536 18.245 114.314 18.492 113.172 18.9606C113.172 31.1157 113.313 44.8814 113.6 48.1766C114.443 48.4316 115.318 48.5576 116.197 48.5436C121.169 48.5436 124.772 41.2193 124.772 31.8564V31.8455ZM135.439 31.2696C135.439 43.2803 128.161 51.0406 115.839 51.0406C111.486 50.9757 107.156 50.413 102.934 49.3555C103.297 44.5215 103.297 14.648 102.934 9.01085C102.576 6.08575 101.781 4.68847 99.6207 4.3966L98.1785 4.24911V2.92579L113.383 0C113.311 2.48952 113.166 9.00812 113.166 16.6891C115.739 15.2392 118.645 14.4799 121.598 14.4908C129.526 14.4908 135.435 21.5206 135.435 31.2605L135.439 31.2696ZM46.3661 32.5783C46.3661 41.5087 48.6712 48.8314 53.3558 48.8314C58.401 48.8314 59.8412 41.6575 59.8412 32.5783C59.8412 23.4971 57.6054 16.3947 52.8515 16.3947C47.8063 16.3947 46.3661 23.3521 46.3661 32.5783ZM70.722 32.4333C70.722 42.6845 64.2365 51.0319 52.634 51.0319C41.249 51.0319 35.4834 43.1181 35.4834 32.727C35.4834 22.5483 41.9689 14.052 53.5701 14.052C64.9557 14.052 70.722 22.0371 70.722 32.4333Z" fill="white"/>
<path d="M197.053 24.9667L195.248 25.4837C193.528 19.3327 190.637 16.6964 186.528 16.6964C183.918 16.5959 181.716 18.6301 181.616 21.2423C181.609 21.435 181.612 21.629 181.629 21.8242C181.629 24.8237 184.008 26.4383 190.421 29.1466C196.331 31.4161 198.78 34.1968 198.78 39.0309C198.78 46.4288 193.232 51.0408 184.082 51.0408C179.923 51.0236 175.802 50.2796 171.902 48.8425L171.543 38.594L173.263 38.227C175.856 45.2542 179.171 47.8905 183.495 47.8905C186.459 48.0673 189.005 45.8061 189.18 42.8416C189.189 42.6959 189.19 42.5485 189.186 42.4022C189.186 39.6189 187.675 38.0056 181.837 35.8086C176.291 33.9085 172.469 31.4155 172.469 25.2645C172.469 19.1873 177.588 14.06 186.308 14.06C189.838 13.9672 193.347 14.6158 196.611 15.9658L197.053 24.9667Z" fill="white"/>
</svg>
