<svg width="216" height="43" viewBox="0 0 216 43" fill="none" xmlns="http://www.w3.org/2000/svg">
<path d="M19.4863 21.4476C19.4863 22.5891 20.374 23.4764 21.5142 23.4764C22.6556 23.4764 23.5433 22.5884 23.5433 21.4476C23.5433 20.3075 22.6556 19.4204 21.5142 19.4204C20.374 19.4204 19.4863 20.3075 19.4863 21.4476ZM36.6033 19.4204C35.4618 19.4204 34.5741 20.3081 34.5741 21.4476C34.5741 22.5891 35.4618 23.4764 36.6033 23.4764C37.7447 23.4764 38.6311 22.5884 38.6311 21.4476C38.6311 20.3075 37.7447 19.4204 36.6033 19.4204ZM36.6033 34.7607C35.4618 34.7607 34.5741 35.6477 34.5741 36.7885C34.5741 37.9293 35.4618 38.8164 36.6033 38.8164C37.7447 38.8164 38.6311 37.9293 38.6311 36.7885C38.6311 35.6477 37.7447 34.7607 36.6033 34.7607Z" fill="white"/>
<path d="M40.9146 2.55687C38.8854 0.0209287 35.2087 -0.105969 33.0531 1.92253L32.8 2.17496L32.2932 2.55687C30.2653 4.20446 27.2207 4.07818 25.3193 2.17496V2.0489C24.6847 1.41428 23.7976 0.907568 22.9112 0.653847C22.7834 0.653847 22.5297 0.527166 22.4031 0.527166H20.3753C20.2487 0.527166 20.1222 0.527305 19.9937 0.653847H19.7407C19.6141 0.653847 19.4876 0.78146 19.3604 0.78146C19.3604 0.78146 19.2338 0.781614 19.2338 0.907521C19.1073 0.907521 18.9808 1.03482 18.8536 1.03482C18.8536 1.03482 18.727 1.03467 18.727 1.16057C18.6005 1.28712 18.474 1.28708 18.3455 1.41363C18.3455 1.41363 18.219 1.41375 18.219 1.54093C18.0924 1.6662 17.9659 1.66615 17.8387 1.7946L17.7122 1.92097L17.4591 2.17372L16.951 2.55562C14.9231 4.20322 11.8798 4.07694 10.105 2.17372C10.105 2.17372 9.97845 2.17356 9.97845 2.04766L9.72535 1.7946C8.96419 1.15998 8.07713 0.652466 7.06161 0.525924H6.55606H4.90656H4.78002C4.78002 0.652466 4.65349 0.652404 4.52695 0.780218H4.4004C3.76705 1.0333 3.13242 1.28652 2.62562 1.7946L2.49909 1.92097L2.11881 2.30071C1.61073 2.80879 1.35766 3.4423 1.10394 3.94974C1.10394 4.07692 0.977397 4.20321 0.977397 4.33103C0.977397 4.45757 0.850851 4.58371 0.850851 4.83807C0.724308 5.72577 0.724312 6.61412 0.977397 7.50055C0.977397 7.6271 1.10394 7.75404 1.10394 7.88122V8.00728C1.10394 8.13382 1.23047 8.26171 1.23047 8.38826C1.35701 8.51543 1.35702 8.64187 1.48356 8.89622C1.73665 9.02149 1.99038 9.27576 2.11819 9.40357L2.37126 9.656L2.62435 9.90905C4.52567 11.8104 4.52567 15.1082 2.49781 17.1367C2.24345 17.3892 1.86319 17.7701 1.73665 18.0244C1.61011 18.1503 1.6101 18.2768 1.48356 18.5312V18.6585C1.35702 18.785 1.35701 18.9116 1.23047 19.0388V19.1646C1.23047 19.2924 1.10394 19.4196 1.10394 19.5462V19.6725C1.10394 19.7991 1.10394 19.9257 0.977397 20.0523V21.9544C0.977397 22.0809 0.9774 22.2072 1.10394 22.335V22.4617C1.35703 23.3494 1.86382 24.2364 2.62562 24.9975C4.65347 27.026 4.65347 30.3227 2.62562 32.3519L2.49909 32.4776L2.24472 32.7307V32.858C2.11945 32.9845 1.99164 33.1102 1.99164 33.238C1.99164 33.238 1.99164 33.3635 1.8651 33.3635C1.73856 33.4913 1.73855 33.6185 1.61201 33.7451L1.48546 33.8714C1.48546 33.998 1.35894 33.9979 1.35894 34.1257C1.35894 34.2504 1.23239 34.2506 1.23239 34.3797C1.23239 34.5043 1.23239 34.5043 1.10584 34.6315C0.852759 35.139 0.725586 35.7722 0.725586 36.2803V37.294C0.852128 37.6755 0.852123 38.055 1.10584 38.3099C1.10584 38.4359 1.23239 38.563 1.23239 38.563C1.23239 38.563 1.23239 38.6891 1.35894 38.6891C1.35894 38.815 1.48546 38.9429 1.48546 39.0688C1.48546 39.0688 1.48547 39.1964 1.61201 39.1964C1.73855 39.4495 1.86509 39.5772 1.99227 39.7031C1.99227 39.7031 1.99228 39.8311 2.12009 39.8311C2.12009 39.8311 2.12009 39.9577 2.24536 39.9577C2.24536 40.0843 2.37316 40.0841 2.37316 40.0841L2.49971 40.2102C2.62625 40.3374 2.7528 40.3373 2.7528 40.4638L2.87935 40.5902C2.87935 40.5902 3.00589 40.5904 3.00589 40.7163C3.13244 40.8428 3.25896 40.9712 3.38741 40.9712C3.38741 40.9712 3.51396 40.9713 3.51396 41.0973C3.63923 41.2232 3.76706 41.2231 3.89424 41.3503H4.02076C4.14731 41.4762 4.27385 41.4761 4.52757 41.4761C4.65411 41.4761 4.90785 41.6027 5.03439 41.6027H5.16092C5.28873 41.6027 5.41528 41.6026 5.54246 41.7291H6.68389C7.06288 41.7291 7.31723 41.6027 7.6975 41.6027H7.82404C7.95059 41.6027 8.07839 41.4761 8.2043 41.4761H8.33085C8.45866 41.4761 8.58521 41.3503 8.71239 41.3503H8.83891C9.092 41.2231 9.47355 40.9705 9.72663 40.842L10.1069 40.4626L10.2334 40.3359C12.2613 38.1796 15.5578 38.1796 17.5869 40.3359C19.8685 42.744 23.6724 42.6168 25.8287 39.9556C27.3491 38.053 27.3491 35.2647 25.8287 33.2355C23.7996 30.6996 20.1228 30.5724 17.9671 32.6015L17.7141 32.8555L17.2073 33.2355C15.1781 34.8838 12.1348 34.7575 10.2334 32.8555L9.98035 32.6015L9.59881 32.0948C7.95058 30.0663 8.07839 27.0231 9.98035 25.1205C11.1218 24.1069 11.6286 22.7117 11.6286 21.3179V21.0632V20.9369C11.6286 19.6702 11.1218 18.402 10.1069 17.5137C10.1069 17.3871 9.98035 17.3872 9.98035 17.2612L9.59881 16.7533C7.95058 14.7241 8.07839 11.6822 9.98035 9.7802L10.1069 9.65352L10.2334 9.52715C12.2613 7.37211 15.5578 7.37211 17.5869 9.52715L17.7134 9.65352L17.84 9.7802L18.0931 10.0333C18.2196 10.0333 18.2196 10.1602 18.3461 10.1602C18.474 10.1602 18.474 10.2875 18.6005 10.2875C18.727 10.2875 18.727 10.4142 18.8536 10.4142C18.9801 10.4142 18.9801 10.54 19.1067 10.54C19.2332 10.54 19.2332 10.6673 19.3598 10.6673C19.4863 10.6673 19.4863 10.793 19.6128 10.793C19.7394 10.793 19.7394 10.7932 19.8659 10.9203C19.9937 10.9203 19.9937 10.9201 20.1203 11.0473H22.2753C22.4019 11.0473 22.5284 11.0475 22.6556 10.9203H22.9099C23.0365 10.9203 23.1617 10.793 23.2902 10.793H23.4167C23.5433 10.793 23.6698 10.6672 23.9235 10.54C24.4316 10.2875 24.9384 9.90617 25.3181 9.52591L25.4446 9.39985C27.4725 7.2429 30.7702 7.2429 32.7981 9.39985C34.9544 11.9351 38.8835 11.8074 40.9133 9.14493C42.435 7.24679 42.435 4.45818 40.9146 2.55687Z" fill="white"/>
<path d="M69.8214 18.2777C69.0615 17.5172 68.4269 17.0105 67.5385 16.6302C66.7786 16.2487 65.8903 15.9962 64.7501 15.9962C63.7353 15.9962 62.721 16.2487 61.9605 16.6302C61.1993 17.0105 60.566 17.5172 60.0579 18.2777C59.5511 18.9123 59.1708 19.6728 58.9165 20.5605C58.6646 21.4482 58.5375 22.3352 58.5375 23.2236C58.5375 24.1113 58.664 24.9984 59.0443 25.8861C59.2974 26.7731 59.8042 27.4078 60.3122 28.0412C60.8191 28.6771 61.5789 29.1833 62.3401 29.5629C63.1012 29.9432 63.9883 30.0709 65.0019 30.0709C66.1434 30.0709 67.0311 29.8178 67.7916 29.4369C68.5528 29.056 69.3146 28.5493 69.9479 27.7894L72.611 30.5779C71.5962 31.7194 70.456 32.4796 69.188 32.9871C67.9201 33.4939 66.5249 33.7471 65.0026 33.7471C63.4822 33.7471 61.9611 33.4939 60.6931 32.9871C59.4252 32.4796 58.2837 31.7193 57.3967 30.8316C56.509 29.9433 55.7472 28.8024 55.2404 27.5351C54.7336 26.2678 54.4805 24.7456 54.4805 23.2245C54.4805 21.7034 54.7336 20.1822 55.2404 18.9136C55.7472 17.645 56.5083 16.5043 57.3967 15.4901C58.2837 14.6018 59.4245 13.8418 60.6931 13.3337C61.9611 12.8275 63.4828 12.5752 65.0026 12.5752C66.5255 12.5752 67.9201 12.8275 69.188 13.3337C70.5825 13.8418 71.7239 14.7276 72.7376 15.7431L69.8214 18.2777ZM78.4422 22.9687C78.4422 23.9842 78.57 24.9979 78.9502 25.7591C79.2033 26.6468 79.7114 27.4072 80.2182 28.0406C80.725 28.6765 81.4862 29.1825 82.2461 29.4356C83.0072 29.8165 84.0221 29.942 85.0357 29.942C86.0506 29.942 86.9383 29.8165 87.8254 29.4356C88.5865 29.0547 89.3471 28.548 89.8545 28.0406C90.3601 27.4072 90.8681 26.6468 91.1212 25.7591C91.3756 24.8714 91.628 23.9842 91.628 22.9687C91.628 21.9544 91.5015 20.9403 91.1212 20.181C90.8681 19.2933 90.3601 18.5313 89.8545 17.898C89.3464 17.264 88.5865 16.756 87.8254 16.5029C87.0642 16.122 86.0506 15.9962 85.0357 15.9962C84.0221 15.9962 83.1344 16.122 82.2461 16.5029C81.4862 16.8826 80.7244 17.3905 80.2182 17.898C79.7114 18.5313 79.2033 19.2927 78.9502 20.181C78.6965 21.0668 78.4422 21.9544 78.4422 22.9687ZM74.3858 22.9687C74.3858 21.4476 74.6389 20.0524 75.1457 18.7857C75.6538 17.5171 76.4137 16.3771 77.4285 15.3609C78.4422 14.3473 79.4577 13.5869 80.8515 13.0794C82.1195 12.5739 83.5147 12.1923 85.0357 12.1923C86.5568 12.1923 87.9519 12.4454 89.2199 13.0794C90.4879 13.5869 91.628 14.3473 92.6429 15.3609C93.6578 16.3771 94.2924 17.5171 94.9257 18.7857C95.4325 20.0524 95.6856 21.4482 95.6856 22.9687C95.6856 24.491 95.4325 25.8855 94.9257 27.1541C94.4189 28.4202 93.6578 29.5615 92.6429 30.5764C91.628 31.5913 90.6151 32.2248 89.2199 32.8594C87.9519 33.365 86.5568 33.7465 85.0357 33.7465C83.5147 33.7465 82.1195 33.4934 80.8515 32.8594C79.5849 32.3526 78.4422 31.5913 77.4285 30.5764C76.4137 29.5615 75.7803 28.5486 75.1457 27.1541C74.7654 25.8855 74.3858 24.4903 74.3858 22.9687ZM99.6167 33.2389H103.419V12.9521H99.6167V33.2389ZM98.7296 5.5993C98.7296 4.83878 98.9815 4.20483 99.4895 3.57085C99.9963 3.06277 100.631 2.68314 101.391 2.68314C102.152 2.68314 102.785 2.93686 103.293 3.57085C103.8 4.07829 104.053 4.83878 104.053 5.5993C104.053 6.35856 103.8 6.99379 103.293 7.62714C102.785 8.13395 102.152 8.51484 101.391 8.51484C100.631 8.51484 99.9963 8.26176 99.4895 7.62714C98.9815 7.12161 98.7296 6.35919 98.7296 5.5993ZM108.745 12.9521H112.548V16.1219H112.675C113.182 14.9805 113.943 14.0935 115.211 13.4588C116.351 12.8261 117.747 12.4454 119.394 12.4454C120.409 12.4454 121.297 12.5731 122.184 12.9515C123.072 13.2065 123.832 13.7132 124.465 14.3465C125.1 14.9799 125.607 15.7411 126.115 16.7554C126.495 17.7702 126.75 18.9116 126.75 20.3068V33.3637H122.946V21.3206C122.946 20.4328 122.819 19.5457 122.564 18.9117C122.311 18.2771 121.931 17.6433 121.551 17.2636C121.169 16.8815 120.663 16.5025 120.029 16.3759C119.521 16.2481 118.887 16.1213 118.254 16.1213C117.493 16.1213 116.732 16.2479 116.098 16.5023C115.464 16.7554 114.83 17.137 114.323 17.7704C113.815 18.2772 113.435 19.0384 113.182 19.9261C112.928 20.8138 112.801 21.8272 112.801 22.968V33.4922H108.997V12.9515L108.745 12.9521ZM140.823 30.0697C141.837 30.0697 142.724 29.9419 143.611 29.5617C144.499 29.1821 145.134 28.6758 145.767 28.04C146.275 27.4066 146.782 26.6461 147.035 25.7584C147.288 24.8707 147.542 23.9837 147.542 22.8417C147.542 21.8274 147.415 20.8145 147.035 19.9261C146.782 19.0384 146.275 18.277 145.767 17.6431C145.134 17.0097 144.499 16.5022 143.611 16.1213C142.724 15.7411 141.837 15.6146 140.823 15.6146C139.808 15.6146 138.921 15.7411 138.033 16.1213C137.145 16.5022 136.511 17.0091 135.877 17.6431C135.37 18.277 134.863 19.0384 134.61 19.9261C134.355 20.8138 134.102 21.7015 134.102 22.8417C134.102 23.8565 134.228 24.8707 134.61 25.7584C134.863 26.6461 135.37 27.4066 135.877 28.04C136.385 28.6758 137.145 29.1821 138.033 29.5617C138.793 29.816 139.808 30.0697 140.823 30.0697ZM151.345 33.1119H147.542V30.1957H147.415C146.656 31.3371 145.641 32.0982 144.373 32.7315C143.105 33.3642 141.71 33.6192 140.315 33.6192C138.793 33.6192 137.272 33.3644 136.004 32.8588C134.738 32.352 133.596 31.5906 132.708 30.5758C131.82 29.5609 131.06 28.4196 130.68 27.1535C130.172 25.8849 129.919 24.4904 129.919 22.968C129.919 21.447 130.172 20.0519 130.68 18.6587C131.187 17.3901 131.82 16.2485 132.708 15.2355C133.596 14.22 134.737 13.4589 136.004 12.9527C137.272 12.4453 138.667 12.1923 140.315 12.1923C141.71 12.1923 143.105 12.4454 144.373 13.0794C145.641 13.714 146.656 14.6003 147.289 15.6152H147.415V0.400391H151.219V33.1113H151.345V33.1119ZM170.744 21.3212C170.744 20.4335 170.618 19.6729 170.364 18.9124C170.111 18.1512 169.73 17.5171 169.223 17.0103C168.716 16.5028 168.081 16.1228 167.447 15.7425C166.687 15.4894 165.925 15.2364 164.912 15.2364C164.024 15.2364 163.137 15.361 162.376 15.7425C161.616 16.1228 160.982 16.503 160.348 17.1376C159.841 17.6437 159.333 18.2779 159.08 19.039C158.827 19.7996 158.572 20.4335 158.572 21.0663H170.745V21.3212H170.744ZM158.572 24.4904C158.572 25.3781 158.826 26.1387 159.206 26.8998C159.586 27.6591 160.094 28.2935 160.728 28.8004C161.361 29.3078 162.122 29.6883 162.883 29.9414C163.771 30.1951 164.531 30.3227 165.419 30.3227C166.56 30.3227 167.702 30.0696 168.588 29.435C169.476 28.9282 170.238 28.1679 170.997 27.2796L173.914 29.5611C171.757 32.352 168.716 33.7453 164.912 33.7453C163.264 33.7453 161.869 33.492 160.601 32.9852C159.333 32.4778 158.193 31.7173 157.305 30.7024C156.416 29.6876 155.657 28.6753 155.276 27.2796C154.769 26.0122 154.516 24.6164 154.516 23.0953C154.516 21.5743 154.769 20.1803 155.276 18.9117C155.784 17.6431 156.544 16.5025 157.432 15.4882C158.319 14.4721 159.46 13.8398 160.728 13.2064C161.996 12.6971 163.392 12.4454 164.913 12.4454C166.687 12.4454 168.209 12.6972 169.477 13.3325C170.745 13.9677 171.759 14.7264 172.52 15.7419C173.28 16.7562 173.914 17.8981 174.295 19.1648C174.676 20.4334 174.801 21.7014 174.801 23.096V24.4904H158.572ZM189.763 18.0247C189.255 17.5166 188.748 17.0099 188.113 16.6302C187.48 16.2487 186.593 15.9962 185.705 15.9962C184.817 15.9962 184.057 16.2487 183.296 16.6302C182.662 17.0105 182.281 17.5172 182.281 18.2777C182.281 18.9123 182.535 19.4203 182.915 19.6728C183.296 20.0524 183.802 20.3074 184.31 20.5605C184.817 20.8142 185.451 20.9403 185.958 21.0669C186.593 21.1953 187.1 21.3212 187.48 21.3212C188.24 21.5743 189.128 21.702 189.763 22.081C190.523 22.3347 191.157 22.7149 191.663 23.2229C192.171 23.7304 192.552 24.2367 192.932 24.8714C193.185 25.5053 193.439 26.2666 193.439 27.2802C193.439 28.4203 193.186 29.4358 192.678 30.1957C192.171 30.9569 191.537 31.718 190.776 32.2242C190.016 32.7316 189.128 33.1119 188.113 33.3643C187.1 33.6193 186.085 33.7459 185.198 33.7459C183.549 33.7459 182.028 33.4926 180.76 32.9858C179.493 32.4784 178.352 31.5915 177.337 30.1957L180.253 27.7881C180.888 28.4202 181.521 28.9288 182.281 29.4356C183.042 29.9418 183.93 30.1957 185.07 30.1957C185.577 30.1957 186.085 30.1956 186.593 30.0697C187.1 29.9418 187.48 29.8167 187.86 29.5617C188.24 29.3086 188.495 29.0547 188.748 28.801C189.001 28.4201 189.128 28.0405 189.128 27.6596C189.128 27.1541 189.002 26.646 188.621 26.267C188.24 25.8855 187.86 25.6318 187.353 25.3787C186.846 25.125 186.338 24.9985 185.832 24.872L184.31 24.491C183.549 24.2373 182.662 24.1107 182.028 23.857C181.267 23.6033 180.634 23.2238 180.126 22.8423C179.619 22.462 179.112 21.8278 178.731 21.1951C178.351 20.5605 178.224 19.6727 178.224 18.7857C178.224 17.7708 178.478 16.7567 178.858 15.9962C179.239 15.2363 179.873 14.6003 180.634 14.0935C181.394 13.5867 182.154 13.2071 183.042 12.9521C183.93 12.6984 184.943 12.5739 185.832 12.5739C187.226 12.5739 188.495 12.8263 189.763 13.3325C191.031 13.8405 192.044 14.7262 192.804 15.8683L189.763 18.0247ZM197.117 0.908359H200.919V21.4482L209.541 12.827H214.74L205.484 21.9546L215.627 32.8588H210.175L200.919 22.4613V32.8588H197.117V0.908359Z" fill="white"/>
</svg>
