<svg width="179" height="61" viewBox="0 0 179 61" fill="none" xmlns="http://www.w3.org/2000/svg">
<path d="M176.653 1.12945L176.626 1.17665C176.626 1.17665 176.625 1.17665 176.623 1.17665L176.653 1.00308H176.099C175.973 0.995449 175.848 1.00061 175.72 1.01333C174.639 1.12651 173.79 1.91544 173.552 2.91697C173.504 3.09565 173.478 3.28318 173.478 3.47585C173.478 3.57251 173.484 3.66988 173.496 3.76399C172.73 13.6763 171.962 23.481 170.597 32.8592L170.631 32.8458L170.448 33.0088C171.171 32.8657 171.92 32.963 172.581 33.2861L171.943 32.2984L172.795 33.1364C174.116 23.6267 177.763 9.27608 178.722 5.26678C178.876 4.732 178.97 4.18066 179.001 3.62489C178.982 2.31114 177.963 1.22929 176.653 1.12945Z" fill="white"/>
<path d="M51.8029 37.6148C51.876 37.5805 51.9486 37.543 52.0191 37.5055L51.9524 37.7008C53.71 37.2074 55.5693 37.2074 57.3263 37.7008C54.0216 31.4945 47.3892 15.6727 43.2521 5.01074L42.496 5.38334L43.1243 5.01074C41.9136 5.41581 40.6042 5.41581 39.3922 5.01074C34.9785 16.0358 30.0103 28.4454 25.4688 37.7008L26.429 37.2736L26.7494 37.1686L25.4688 37.7008C27.1939 37.2837 28.991 37.2697 30.7212 37.6589L30.8427 37.7008C30.8439 37.6951 30.8452 37.6907 30.8477 37.6862C30.8675 37.6913 30.8865 37.6957 30.9062 37.7008C30.8891 37.6906 30.8713 37.6818 30.8528 37.6722C32.0305 34.7732 33.3544 31.4741 34.6733 28.1497L34.7019 28.1674C39.0774 28.0408 43.4543 28.0409 48.0569 28.1643C49.3077 31.3107 50.5629 34.4627 51.8029 37.6148ZM41.2834 10.8046C43.1796 15.8459 45.1808 20.9265 47.2054 26.0225L47.091 25.9725C43.2445 26.0997 39.3922 26.0997 35.533 25.9738C37.8864 19.9983 40.107 14.211 41.2834 10.8046Z" fill="white"/>
<path d="M19.3008 24.2403C23.6166 16.6458 30.4995 4.77237 33.0049 1.23235L33.3788 0.852621C33.3413 0.858344 33.3044 0.863664 33.2682 0.869387C33.3069 0.81788 33.3426 0.76955 33.3788 0.723766C33.2707 0.786083 33.1613 0.843191 33.0519 0.901058C31.3713 1.14333 29.6627 1.09425 27.9985 0.760404L27.9413 0.723145C27.9362 0.731411 27.9324 0.738816 27.9286 0.745811C27.8898 0.737544 27.8504 0.731411 27.8116 0.723145L27.8739 0.850137C26.2606 3.88525 20.5338 12.9418 17.044 18.8479C13.3196 12.8686 9.06546 5.72054 6.16579 0.752952L6.21159 0.723145C6.19315 0.727596 6.17406 0.73268 6.15562 0.736496C6.15308 0.732045 6.15056 0.72696 6.14801 0.723145L6.03988 0.766924C4.33188 1.20124 2.53994 1.18798 0.838292 0.723145L0.886651 0.791143C0.849134 0.768251 0.810955 0.746037 0.773438 0.723145C5.30035 7.37457 12.3041 20.231 14.8215 24.4126L14.6988 24.4558L14.4203 41.9639C15.287 41.8062 16.1639 41.7127 17.0434 41.6854C17.9241 41.7038 18.8022 41.796 19.6664 41.9639L19.496 24.3064L19.3008 24.2403Z" fill="white"/>
<path d="M106.711 4.49902V4.58348C95.1322 4.58348 89.0537 11.8988 89.0537 21.4085C89.0537 31.7717 95.686 38.1057 106.583 38.1057C118.439 38.1057 124.239 30.9398 124.239 21.5579C124.239 10.8946 117.33 4.49902 106.711 4.49902ZM106.583 36.506C98.863 36.506 94.3004 30.9812 94.3004 21.7283C94.4283 11.0663 100.1 6.80289 106.307 6.80289V6.65261H106.584C113.619 6.65261 118.866 11.4937 118.866 21.579C118.866 31.6649 113.619 36.506 106.583 36.506Z" fill="white"/>
<path d="M146.395 2.66455C134.944 2.66455 126.095 9.06218 126.095 21.2808C126.095 31.2173 131.893 40.0456 146.521 40.0456C158.804 40.0456 166.801 33.2853 166.801 21.4081C166.866 10.3201 159.424 2.66455 146.395 2.66455ZM131.468 21.4081C131.682 8.44358 139.55 4.73306 146.396 4.73306C155.073 4.73306 161.322 9.95693 161.322 21.5569C161.322 34.1164 153.582 38.2543 146.396 38.2543C138.654 38.255 131.468 33.6904 131.468 21.4081Z" fill="white"/>
<path d="M170.657 36.9079C169.126 36.8742 167.859 38.0876 167.825 39.6201C167.825 41.2823 169.062 42.1134 170.874 41.9652C171.016 41.9729 171.159 41.9697 171.3 41.9519C172.587 41.7961 173.504 40.6267 173.349 39.3416C173.181 37.9744 172.034 36.9384 170.657 36.9079Z" fill="white"/>
<path d="M64.2339 22.5176C70.2895 22.5176 76.3667 22.3898 82.2945 22.5176L82.4287 22.4469C82.4128 27.5327 82.276 32.6188 82.0179 37.7008L82.3746 37.5844L82.1673 37.7008C83.5618 37.3631 85.004 37.2932 86.4201 37.489L87.5406 37.8281C87.5393 37.7849 87.5381 37.7415 87.5368 37.6996C87.5381 37.6996 87.5393 37.7008 87.5406 37.7008L87.5368 37.6977C87.1432 26.8513 87.1444 15.9984 87.5406 5.13867C85.7734 5.54437 83.9351 5.54437 82.168 5.13867L82.3466 5.31876L82.0185 5.13867C82.2767 10.1959 82.4121 15.2582 82.4293 20.3218C76.3495 20.449 70.285 20.449 64.2345 20.3206L64.2269 20.3243C64.244 15.2607 64.3808 10.1978 64.6389 5.13867C62.8705 5.54437 61.0334 5.54437 59.265 5.13867L59.3954 5.2905L59.1162 5.13867C59.5423 16.0417 59.5423 26.9391 59.1162 37.8281L60.1038 37.531C61.6089 37.2855 63.1503 37.3403 64.6396 37.7008C64.3814 32.6404 64.2447 27.5775 64.2275 22.5139L64.2339 22.5176Z" fill="white"/>
<path d="M49.6055 60.1528H52.57V54.354H57.5376V53.2654H52.57V49.3852H58.1563V48.2979H49.6055V60.1528Z" fill="white"/>
<path d="M63.9563 48.2979H60.9072V60.1534H63.9563V48.2979Z" fill="white"/>
<path d="M75.2581 55.7404L68.3701 48.2979H66.7073H66.4307V60.4313H68.3701V52.157L75.812 60.4313H77.1982V48.2979H75.2581V55.7404Z" fill="white"/>
<path d="M84.5547 48.02L78.8184 60.1529H80.7597L82.4226 56.8486H87.1345L88.4992 60.1529H91.5483L86.0249 48.02H84.5547ZM82.9975 55.7405L85.0247 51.8804L86.6875 55.7405H82.9975Z" fill="white"/>
<path d="M101.742 55.7404L94.8542 48.2979H92.9141L92.979 60.4313H94.9185V52.157L102.36 60.4313H103.747V48.2979H101.742V55.7404Z" fill="white"/>
<path d="M109.484 54.0762C109.483 54.0853 109.483 54.0926 109.481 54.1011C109.483 54.107 109.483 54.1147 109.484 54.1206V54.0762Z" fill="white"/>
<path d="M110.57 50.5372C111.125 50.2593 111.403 49.9827 111.957 49.7048C112.481 49.479 113.051 49.3836 113.619 49.4269C113.898 49.4269 114.452 49.7048 114.728 49.7048C115.38 49.8587 116.066 49.7601 116.649 49.4269L117.48 50.2593C117.687 50.6765 117.97 51.0517 118.312 51.369L119.399 50.5366C118.866 49.9821 118.59 49.427 118.312 49.172C117.922 48.7199 117.451 48.3433 116.926 48.0623C116.371 47.7844 115.817 47.7843 115.262 47.5077C114.65 47.2794 113.995 47.1847 113.343 47.2305C112.394 47.2533 111.456 47.441 110.571 47.7844C109.771 48.0915 109.045 48.5647 108.438 49.172C107.822 49.6839 107.345 50.3446 107.052 51.0905C106.736 51.8879 106.55 52.7304 106.498 53.585C106.551 54.4346 106.739 55.2683 107.052 56.0594C107.35 56.8097 107.826 57.4747 108.438 57.9993C109.052 58.5926 109.777 59.0562 110.571 59.3639C111.459 59.6933 112.397 59.867 113.343 59.8759C113.906 59.9217 114.469 59.8263 114.985 59.5993C115.54 59.3214 115.817 59.0447 116.371 58.7675C116.884 58.4737 117.351 58.1075 117.757 57.6795C118.1 57.3641 118.382 56.9876 118.59 56.5704L117.481 55.7395C117.273 56.1561 116.991 56.5323 116.649 56.8477L115.817 57.6795C115.54 57.9568 115.008 57.9351 114.729 58.2129C114.452 58.4902 114.175 58.4902 113.62 58.4902C113.066 58.4902 112.512 58.2129 111.957 58.2129C111.414 58.1156 110.923 57.8283 110.571 57.4022C110.242 56.9775 109.969 56.5125 109.761 56.0159C109.517 55.408 109.423 54.7513 109.482 54.0995C109.348 52.8144 109.739 51.5286 110.57 50.5372Z" fill="white"/>
<path d="M121.34 60.1528H130.168V59.045H124.089V54.354H129.059V53.2654H124.089V49.3852H130.168V48.2979H121.34V60.1528Z" fill="white"/>
</svg>
