<svg width="386" height="431" viewBox="0 0 386 431" fill="none" xmlns="http://www.w3.org/2000/svg">
<path d="M289.873 163.3L196.171 109.199L102.466 163.3V271.499L196.171 325.599L289.873 271.499V163.3Z" stroke="white" stroke-width="1.2373" stroke-miterlimit="10"/>
<path opacity="0.6" d="M383.577 216.855L289.873 162.756L196.171 216.855V325.054L289.873 379.153L383.577 325.054V216.855Z" stroke="white" stroke-width="0.4124" stroke-miterlimit="10"/>
<path opacity="0.6" d="M196.171 217.057L102.467 162.958L8.7627 217.057V325.257L102.467 379.356L196.171 325.257V217.057Z" stroke="white" stroke-width="0.4124" stroke-miterlimit="10"/>
<path opacity="0.6" d="M384.983 161.407L245.3 240.832V398.563L194.982 430.478L145.515 398.563V240.277L1.06897 158.393L1 102.853L53.3511 72.6279L194.982 155.192L330.387 76.1982L382.387 106.221L384.983 161.407Z" stroke="white" stroke-width="0.6568" stroke-miterlimit="10"/>
<path opacity="0.6" d="M289.873 55.0996L196.171 1L102.466 55.0996V163.298L196.171 217.399L289.873 163.298V55.0996Z" stroke="white" stroke-width="0.4124" stroke-miterlimit="10"/>
<path d="M6.16797 270.07L145.852 190.645V32.9141L196.171 1L245.635 32.9141V191.2L383.507 269.515L383.577 325.054L331.225 355.278L196.171 276.285L60.764 355.278L8.76306 325.257L6.16797 270.07Z" stroke="white" stroke-width="1.2373" stroke-miterlimit="10"/>
<path d="M202.865 45.1469C202.776 45.2002 202.776 45.2536 202.865 45.3069C204.75 46.1071 205.693 47.592 205.693 49.7614C205.693 51.3974 205.15 52.66 204.065 53.5491C202.981 54.4382 201.567 54.8828 199.824 54.8828H193.183C193.005 54.8828 192.916 54.7939 192.916 54.6161V36.4779C192.916 36.3001 193.005 36.2112 193.183 36.2112H199.611C201.46 36.2112 202.892 36.6379 203.905 37.4915C204.937 38.3273 205.452 39.5543 205.452 41.1725C205.452 43.093 204.59 44.4178 202.865 45.1469ZM195.583 38.4251C195.512 38.4251 195.476 38.4606 195.476 38.5318V44.1599C195.476 44.2311 195.512 44.2666 195.583 44.2666H199.611C200.642 44.2666 201.451 44.0088 202.038 43.4931C202.643 42.9774 202.945 42.275 202.945 41.3859C202.945 40.479 202.643 39.7588 202.038 39.2253C201.451 38.6918 200.642 38.4251 199.611 38.4251H195.583ZM199.824 52.6422C200.838 52.6422 201.638 52.3666 202.225 51.8153C202.83 51.2463 203.132 50.4816 203.132 49.5214C203.132 48.5611 202.83 47.8054 202.225 47.2541C201.62 46.6851 200.793 46.4005 199.744 46.4005H195.583C195.512 46.4005 195.476 46.4361 195.476 46.5072V52.5355C195.476 52.6066 195.512 52.6422 195.583 52.6422H199.824Z" fill="#F5F5FB"/>
<path d="M356.63 316.387C355.35 316.387 354.212 316.138 353.216 315.64C352.238 315.124 351.473 314.404 350.922 313.479C350.389 312.537 350.122 311.461 350.122 310.252V303.343C350.122 302.134 350.389 301.076 350.922 300.169C351.473 299.244 352.238 298.533 353.216 298.035C354.212 297.519 355.35 297.261 356.63 297.261C357.911 297.261 359.04 297.51 360.018 298.008C360.996 298.488 361.752 299.173 362.285 300.062C362.836 300.951 363.112 301.983 363.112 303.156V303.183C363.112 303.272 363.085 303.343 363.032 303.396C362.979 303.45 362.916 303.476 362.845 303.476L360.818 303.583C360.64 303.583 360.551 303.503 360.551 303.343V303.263C360.551 302.125 360.196 301.209 359.484 300.516C358.773 299.822 357.822 299.475 356.63 299.475C355.439 299.475 354.479 299.822 353.749 300.516C353.038 301.209 352.683 302.125 352.683 303.263V310.358C352.683 311.496 353.038 312.412 353.749 313.106C354.479 313.799 355.439 314.146 356.63 314.146C357.822 314.146 358.773 313.799 359.484 313.106C360.196 312.412 360.551 311.496 360.551 310.358V310.305C360.551 310.145 360.64 310.065 360.818 310.065L362.845 310.172C363.023 310.172 363.112 310.26 363.112 310.438C363.112 311.612 362.836 312.652 362.285 313.559C361.752 314.448 360.996 315.142 360.018 315.64C359.04 316.138 357.911 316.387 356.63 316.387Z" fill="#F5F5FB"/>
<path d="M43.5624 306.411C43.4734 306.464 43.4734 306.517 43.5624 306.571C45.4473 307.371 46.3898 308.856 46.3898 311.025C46.3898 312.661 45.8474 313.924 44.7627 314.813C43.6779 315.702 42.2642 316.146 40.5215 316.146H33.8798C33.7019 316.146 33.613 316.058 33.613 315.88V297.742C33.613 297.564 33.7019 297.475 33.8798 297.475H40.3082C42.1575 297.475 43.589 297.902 44.6026 298.755C45.634 299.591 46.1497 300.818 46.1497 302.436C46.1497 304.357 45.2873 305.681 43.5624 306.411ZM36.2804 299.689C36.2093 299.689 36.1737 299.724 36.1737 299.795V305.424C36.1737 305.495 36.2093 305.53 36.2804 305.53H40.3082C41.3395 305.53 42.1486 305.272 42.7355 304.757C43.3401 304.241 43.6424 303.539 43.6424 302.65C43.6424 301.743 43.3401 301.022 42.7355 300.489C42.1486 299.955 41.3395 299.689 40.3082 299.689H36.2804ZM40.5215 313.906C41.5352 313.906 42.3354 313.63 42.9222 313.079C43.5268 312.51 43.8291 311.745 43.8291 310.785C43.8291 309.825 43.5268 309.069 42.9222 308.518C42.3176 307.949 41.4907 307.664 40.4415 307.664H36.2804C36.2093 307.664 36.1737 307.7 36.1737 307.771V313.799C36.1737 313.87 36.2093 313.906 36.2804 313.906H40.5215Z" fill="#F5F5FB"/>
<path d="M257.017 248.41L252.858 247.468C251.561 247.19 248.858 246.599 248.858 244.317C248.858 242.25 250.555 240.918 253.182 240.918C256.267 240.918 257.455 242.251 258.325 243.225C258.905 243.876 259.185 244.165 259.757 244.165C259.906 244.165 261.221 244.133 261.221 243.04C261.221 240.679 256.998 238.78 253.507 238.78C249.706 238.78 245.644 240.306 245.644 244.589C245.644 246.583 246.203 248.765 250.362 249.823L255.998 251.246C258.607 251.857 258.811 253.739 258.811 254.3C258.811 256.176 256.974 258.114 253.914 258.114C250.596 258.114 249.394 256.483 248.517 255.292C247.901 254.456 247.571 254.056 246.864 254.056L246.763 254.053C246.434 254.053 246.123 254.176 245.889 254.394C245.641 254.63 245.501 254.961 245.501 255.308C245.501 257.292 248.111 260.088 253.909 260.09C259.007 260.09 262.174 257.718 262.174 253.902C262.173 250.983 260.487 249.192 257.017 248.41Z" fill="white"/>
<path d="M140.685 245.667L137.336 249.015L133.98 245.667L137.329 242.316L140.685 245.667ZM148.823 237.528L154.568 243.27L157.915 239.924L148.823 230.823L139.724 239.924L143.072 243.27L148.823 237.528ZM160.307 242.317L156.961 245.668L160.307 249.016L163.657 245.668L160.307 242.317ZM148.823 253.805L143.079 248.062L139.733 251.408L148.823 260.51L157.915 251.408L154.568 248.062L148.823 253.805ZM148.823 249.015L152.172 245.667L148.823 242.316L145.468 245.667L148.823 249.015Z" fill="#F5F5FB"/>
<path d="M192.231 143.516C191.86 143.463 191.841 143.446 192.019 143.429C192.352 143.375 193.132 143.445 193.68 143.569C194.953 143.871 196.104 144.649 197.325 146.012L197.645 146.383L198.102 146.312C200.067 145.994 202.083 146.241 203.765 147.019C204.223 147.232 204.949 147.656 205.036 147.762C205.074 147.797 205.125 148.028 205.163 148.257C205.286 149.09 205.233 149.708 204.966 150.186C204.825 150.453 204.825 150.523 204.915 150.753C204.983 150.93 205.195 151.053 205.391 151.053C205.817 151.053 206.258 150.38 206.471 149.444L206.559 149.071L206.718 149.249C207.62 150.257 208.328 151.654 208.436 152.646L208.47 152.911L208.31 152.681C208.045 152.275 207.799 152.009 207.461 151.779C206.86 151.372 206.223 151.25 204.542 151.159C203.021 151.072 202.154 150.949 201.305 150.665C199.855 150.188 199.112 149.567 197.395 147.286C196.633 146.278 196.157 145.728 195.679 145.269C194.635 144.259 193.593 143.728 192.231 143.516Z" fill="#F5F5FB"/>
<path d="M205.41 145.763C205.445 145.091 205.534 144.648 205.728 144.242C205.798 144.082 205.871 143.94 205.888 143.94C205.905 143.94 205.869 144.065 205.817 144.206C205.676 144.598 205.658 145.144 205.748 145.763C205.871 146.56 205.925 146.665 206.774 147.533C207.162 147.939 207.622 148.454 207.8 148.666L208.098 149.055L207.8 148.771C207.427 148.419 206.577 147.746 206.383 147.657C206.259 147.587 206.24 147.588 206.152 147.676C206.083 147.747 206.065 147.853 206.065 148.365C206.047 149.161 205.941 149.658 205.676 150.171C205.532 150.438 205.515 150.383 205.64 150.082C205.727 149.853 205.746 149.745 205.746 148.986C205.746 147.445 205.569 147.075 204.489 146.456C204.223 146.295 203.765 146.066 203.498 145.94C203.216 145.818 203.004 145.712 203.021 145.712C203.056 145.676 204.099 145.975 204.506 146.151C205.124 146.4 205.233 146.419 205.302 146.4C205.355 146.347 205.392 146.206 205.41 145.763Z" fill="#F5F5FB"/>
<path d="M192.956 148.399C192.212 147.374 191.734 145.781 191.842 144.598L191.878 144.226L192.054 144.26C192.37 144.314 192.921 144.525 193.186 144.685C193.894 145.11 194.213 145.693 194.513 147.143C194.602 147.568 194.725 148.063 194.78 148.224C194.866 148.489 195.203 149.106 195.486 149.496C195.68 149.778 195.557 149.921 195.114 149.886C194.44 149.816 193.54 149.196 192.956 148.399Z" fill="#F5F5FB"/>
<path d="M204.509 156.096C201.005 154.68 199.768 153.459 199.768 151.39C199.768 151.088 199.786 150.841 199.786 150.841C199.804 150.841 199.929 150.946 200.087 151.07C200.795 151.636 201.591 151.884 203.802 152.202C205.095 152.396 205.837 152.538 206.509 152.768C208.649 153.475 209.974 154.928 210.293 156.889C210.382 157.456 210.328 158.536 210.188 159.101C210.063 159.544 209.71 160.358 209.623 160.374C209.603 160.374 209.568 160.286 209.568 160.145C209.534 159.403 209.162 158.694 208.543 158.146C207.8 157.51 206.844 157.035 204.509 156.096Z" fill="#F5F5FB"/>
<path d="M202.03 156.678C201.996 156.414 201.907 156.076 201.854 155.935L201.764 155.67L201.925 155.863C202.154 156.13 202.33 156.449 202.489 156.889C202.614 157.228 202.614 157.333 202.614 157.88C202.614 158.412 202.595 158.536 202.489 158.836C202.313 159.313 202.101 159.649 201.747 160.021C201.11 160.677 200.279 161.028 199.094 161.189C198.881 161.208 198.279 161.259 197.748 161.295C196.422 161.365 195.538 161.507 194.741 161.791C194.635 161.826 194.53 161.861 194.512 161.844C194.477 161.808 195.025 161.489 195.466 161.275C196.086 160.976 196.723 160.816 198.12 160.57C198.811 160.462 199.518 160.321 199.695 160.251C201.446 159.704 202.314 158.343 202.03 156.678Z" fill="#F5F5FB"/>
<path d="M203.639 159.527C203.18 158.518 203.075 157.562 203.322 156.661C203.356 156.572 203.393 156.483 203.428 156.483C203.463 156.483 203.57 156.537 203.674 156.609C203.887 156.749 204.329 156.997 205.462 157.617C206.896 158.394 207.709 158.997 208.275 159.686C208.771 160.288 209.073 160.977 209.213 161.827C209.302 162.303 209.249 163.455 209.126 163.932C208.735 165.436 207.851 166.638 206.56 167.328C206.367 167.432 206.206 167.505 206.19 167.505C206.171 167.505 206.242 167.328 206.349 167.114C206.774 166.214 206.826 165.347 206.507 164.374C206.314 163.771 205.905 163.046 205.093 161.826C204.118 160.412 203.887 160.039 203.639 159.527Z" fill="#F5F5FB"/>
<path d="M190.464 164.94C191.773 163.844 193.383 163.064 194.866 162.817C195.505 162.712 196.564 162.746 197.149 162.905C198.088 163.154 198.937 163.685 199.378 164.34C199.802 164.977 199.996 165.524 200.191 166.744C200.261 167.223 200.35 167.718 200.369 167.824C200.51 168.461 200.794 168.955 201.146 169.221C201.695 169.628 202.651 169.647 203.588 169.293C203.747 169.24 203.888 169.186 203.888 169.201C203.923 169.239 203.448 169.557 203.127 169.716C202.687 169.946 202.331 170.016 201.855 170.016C201.004 170.016 200.281 169.575 199.697 168.69C199.572 168.512 199.324 168 199.113 167.524C198.494 166.09 198.175 165.665 197.448 165.187C196.813 164.779 196 164.693 195.38 164.992C194.567 165.382 194.354 166.426 194.921 167.062C195.15 167.329 195.575 167.542 195.928 167.593C196.582 167.682 197.15 167.169 197.15 166.514C197.15 166.09 196.99 165.842 196.565 165.647C196.001 165.399 195.38 165.682 195.398 166.231C195.398 166.461 195.505 166.603 195.735 166.71C195.876 166.781 195.876 166.78 195.77 166.763C195.256 166.657 195.133 166.021 195.541 165.614C196.036 165.119 197.079 165.33 197.433 166.021C197.575 166.302 197.592 166.869 197.468 167.224C197.168 168 196.319 168.409 195.452 168.179C194.867 168.018 194.62 167.859 193.912 167.135C192.675 165.86 192.197 165.614 190.428 165.348L190.092 165.295L190.464 164.94Z" fill="#F5F5FB"/>
<path d="M181.156 136.477C185.277 141.482 191.628 149.265 191.947 149.691C192.212 150.045 192.106 150.381 191.663 150.629C191.415 150.772 190.903 150.911 190.655 150.911C190.372 150.911 190.037 150.771 189.806 150.542C189.648 150.382 188.957 149.373 187.4 146.948C186.215 145.091 185.207 143.552 185.189 143.534C185.119 143.498 185.119 143.498 187.277 147.356C188.639 149.779 189.081 150.647 189.081 150.753C189.081 150.982 189.011 151.107 188.728 151.426C188.25 151.956 188.038 152.556 187.878 153.812C187.7 155.21 187.223 156.203 185.86 157.881C185.065 158.873 184.941 159.049 184.748 159.457C184.498 159.951 184.429 160.234 184.393 160.871C184.358 161.542 184.429 161.968 184.623 162.604C184.798 163.17 184.995 163.542 185.473 164.266C185.878 164.905 186.127 165.381 186.127 165.559C186.127 165.702 186.162 165.702 186.799 165.559C188.32 165.205 189.576 164.602 190.265 163.86C190.692 163.399 190.797 163.154 190.797 162.515C190.797 162.108 190.779 162.02 190.674 161.772C190.495 161.383 190.16 161.065 189.434 160.57C188.48 159.915 188.072 159.385 187.965 158.678C187.878 158.075 187.985 157.668 188.515 156.554C189.065 155.404 189.205 154.928 189.292 153.758C189.347 153.017 189.434 152.715 189.647 152.484C189.876 152.237 190.07 152.149 190.618 152.079C191.521 151.955 192.105 151.725 192.566 151.281C192.972 150.91 193.149 150.54 193.166 149.991L193.185 149.585L192.956 149.338C192.126 148.383 180.608 135.716 180.555 135.716C180.538 135.716 180.819 136.052 181.156 136.477ZM186.587 161.633C186.782 161.296 186.676 160.871 186.357 160.658C186.057 160.462 185.596 160.553 185.596 160.816C185.596 160.887 185.632 160.958 185.739 160.995C185.898 161.082 185.916 161.171 185.793 161.365C185.668 161.561 185.668 161.738 185.828 161.861C186.074 162.056 186.41 161.952 186.587 161.633Z" fill="#F5F5FB"/>
<path d="M193.753 152.327C193.327 152.451 192.921 152.911 192.798 153.369C192.726 153.652 192.763 154.168 192.887 154.325C193.081 154.573 193.257 154.642 193.753 154.642C194.725 154.642 195.557 154.22 195.644 153.706C195.734 153.282 195.362 152.697 194.851 152.432C194.583 152.29 194.036 152.238 193.753 152.327ZM194.884 153.212C195.026 152.999 194.974 152.768 194.707 152.609C194.229 152.307 193.504 152.554 193.504 153.016C193.504 153.245 193.876 153.492 194.23 153.492C194.46 153.493 194.779 153.354 194.884 153.212Z" fill="#F5F5FB"/>
<path d="M210.12 220.449L208.893 218.927L207.49 220.29C207.46 220.318 204.429 223.215 200.289 223.215C200.271 223.215 200.253 223.215 200.235 223.215C197.081 223.196 194.745 221.421 194.281 221.04L192.087 223.829C193.005 224.57 196.047 226.74 200.217 226.766C200.24 226.766 200.265 226.766 200.289 226.766C203.897 226.766 206.794 225.21 208.453 224.05L211.374 227.709C208.592 230.354 204.086 232.063 199.686 232.063C194.655 232.063 188.537 229.61 186.242 225.034C187.898 223.775 190.435 221.176 190.435 217.076C190.435 213.097 188.113 210.569 186.52 209.305C188.988 204.874 194.097 201.983 199.686 201.983C204.652 201.983 208.652 203.431 211.352 206.19L208.415 209.746C206.73 208.558 203.766 206.933 200.196 206.984C196.452 207.044 193.464 209.068 192.1 210.175L194.285 212.977C195.227 212.2 197.516 210.576 200.253 210.532C200.295 210.532 200.337 210.532 200.38 210.532C204.288 210.532 207.409 213.47 207.438 213.496L208.819 214.834L215.952 206.198L215.082 205.076C211.715 200.73 206.391 198.434 199.686 198.434C192.155 198.434 185.295 202.774 182.62 209.234L181.992 210.748L183.449 211.492C183.483 211.511 186.888 213.298 186.888 217.077C186.888 220.829 183.388 222.699 183.246 222.772L181.893 223.46L182.36 224.901C184.64 231.933 192.802 235.614 199.686 235.614C205.744 235.614 211.79 232.982 215.091 228.912L215.988 227.802L210.12 220.449Z" fill="white"/>
<path d="M336.883 253.76C341.473 253.76 345.194 250.038 345.194 245.448C345.194 240.858 341.473 237.138 336.883 237.138C332.293 237.138 328.572 240.858 328.572 245.448C328.572 250.038 332.293 253.76 336.883 253.76Z" fill="#141B32" stroke="white" stroke-width="0.5941" stroke-miterlimit="10"/>
<path d="M98.141 342.219C102.73 342.219 106.451 338.498 106.451 333.908C106.451 329.319 102.73 325.599 98.141 325.599C93.5515 325.599 89.8311 329.319 89.8311 333.908C89.8311 338.498 93.5515 342.219 98.141 342.219Z" fill="#141B32" stroke="white" stroke-width="0.5941" stroke-miterlimit="10"/>
<path d="M146.218 98.0664C150.808 98.0664 154.529 94.3459 154.529 89.7559C154.529 85.1658 150.808 81.4443 146.218 81.4443C141.628 81.4443 137.907 85.1658 137.907 89.7559C137.907 94.3459 141.628 98.0664 146.218 98.0664Z" fill="#141B32" stroke="white" stroke-width="0.5941" stroke-miterlimit="10"/>
</svg>
