<svg width="29" height="49" viewBox="0 0 29 49" fill="none" xmlns="http://www.w3.org/2000/svg">
<path d="M28.6963 14.348C28.6963 6.42384 22.2723 -9.73554e-07 14.3481 -6.27177e-07C6.42396 -2.808e-07 -9.73549e-07 6.42384 -6.27172e-07 14.348C-2.80795e-07 22.2722 6.42396 28.696 14.3481 28.696C22.2723 28.696 28.6963 22.2722 28.6963 14.348Z" fill="white"/>
<path d="M14.0298 39.0249C19.7648 39.0249 24.6976 35.6529 26.9966 30.7909L1.06348 30.7909C3.36048 35.6519 8.29479 39.0249 14.0298 39.0249Z" fill="#B70F93"/>
<path d="M13.814 48.96C17.896 48.96 21.407 46.56 23.043 43.097L4.58496 43.097C6.21896 46.56 9.73096 48.96 13.814 48.96Z" fill="#B70F93"/>
</svg>
