<svg width="36" height="48" viewBox="0 0 36 48" fill="none" xmlns="http://www.w3.org/2000/svg">
<path d="M18.1859 0C8.15917 0.0397098 0.0409132 8.15554 0 18.1823C0 20.1936 0.325511 22.1846 0.958462 24.0895C1.43498 25.3867 2.83926 26.0851 4.15811 25.6856C5.43484 25.1928 6.11172 23.8013 5.70259 22.4987C5.1635 21.015 4.92643 19.435 4.99502 17.861C5.21462 10.6176 11.2632 4.927 18.5042 5.14661C25.7458 5.36261 31.4406 11.4099 31.2209 18.6522C31.0146 25.4335 25.6742 30.94 18.9049 31.3497C18.9049 31.3497 16.3532 31.5067 15.0837 31.6632C14.6132 31.7288 14.1524 31.8226 13.6927 31.9387C13.6289 32.0073 13.5224 32.0073 13.4544 31.9399C13.4057 31.8773 13.4057 31.7955 13.4544 31.7341L13.8503 29.5783L16.2456 18.7966C16.5338 17.45 15.677 16.1258 14.328 15.837C12.9791 15.55 11.6578 16.4061 11.3672 17.7514C11.3672 17.7514 5.66469 44.1435 5.66469 44.3854C5.341 45.6657 6.11414 46.9707 7.39749 47.2992C7.41012 47.3004 7.42336 47.307 7.43961 47.3088H7.56773C8.85168 47.6385 10.1591 46.8679 10.4918 45.5863C10.4979 45.5683 10.5021 45.5436 10.5057 45.5238C10.5015 45.4799 10.5015 45.4406 10.5057 45.4033C10.5755 45.0917 11.2957 41.5803 11.2957 41.5803C11.8402 38.9318 13.9743 36.9013 16.6499 36.4891C17.2004 36.4073 19.5132 36.2497 19.5132 36.2497C29.5002 35.2527 36.79 26.351 35.7954 16.3658C34.8899 7.25182 27.3432 0.237657 18.1859 0Z" fill="#F5F5FB"/>
<path d="M19.2889 41.9305C17.6499 41.5863 16.0423 42.6381 15.7053 44.2788C15.6999 44.2939 15.6999 44.31 15.6945 44.3251C15.3407 45.9532 16.372 47.5608 18.0013 47.9164C18.0031 47.9164 18.0031 47.9164 18.0067 47.9164H18.0909C19.6859 48.3009 21.2924 47.3232 21.6774 45.7258C21.6774 45.7138 21.6829 45.7011 21.6883 45.6903V45.5224C21.9674 43.8762 20.9164 42.2999 19.2889 41.9305Z" fill="#B70F93"/>
</svg>
