<svg width="61" height="29" viewBox="0 0 61 29" fill="none" xmlns="http://www.w3.org/2000/svg">
<path d="M34.9203 28.8213C42.8445 28.8213 49.2683 22.3973 49.2683 14.4731C49.2683 6.54896 42.8445 0.125 34.9203 0.125C26.9961 0.125 20.5723 6.54896 20.5723 14.4731C20.5723 22.3973 26.9961 28.8213 34.9203 28.8213Z" fill="#B70F93"/>
<path d="M10.2432 14.1558C10.2432 19.8908 13.6152 24.8236 18.4772 27.1226V1.18945C13.6162 3.48645 10.2432 8.42076 10.2432 14.1558Z" fill="white"/>
<path d="M0.308594 13.939C0.308594 18.021 2.70857 21.532 6.17157 23.168V4.70996C2.70857 6.34396 0.308594 9.85596 0.308594 13.939Z" fill="white"/>
<path d="M60.3746 14.8599C60.3746 9.12486 57.0026 4.19058 52.1396 1.89258V27.8257C57.0026 25.5287 60.3746 20.5939 60.3746 14.8599Z" fill="white"/>
</svg>
