<svg width="56" height="46" viewBox="0 0 56 46" fill="none" xmlns="http://www.w3.org/2000/svg">
<path d="M41.1254 45.3701C49.0495 45.3701 55.4734 38.9462 55.4734 31.022C55.4734 23.0978 49.0495 16.6743 41.1254 16.6743C33.2012 16.6743 26.7773 23.0978 26.7773 31.022C26.7773 38.9462 33.2012 45.3701 41.1254 45.3701Z" fill="#B70F93"/>
<path d="M26.8479 9.6958C29.5254 9.6958 31.6959 7.52526 31.6959 4.84782C31.6959 2.17038 29.5254 0 26.8479 0C24.1705 0 22 2.17038 22 4.84782C22 7.52526 24.1705 9.6958 26.8479 9.6958Z" fill="white"/>
<path d="M4.84794 19.6958C7.52538 19.6958 9.69588 17.5253 9.69588 14.8478C9.69588 12.1704 7.52538 10 4.84794 10C2.1705 10 0 12.1704 0 14.8478C0 17.5253 2.1705 19.6958 4.84794 19.6958Z" fill="#B70F93"/>
<path d="M12.8479 44.6958C17.1822 44.6958 20.6959 41.182 20.6959 36.8477C20.6959 32.5134 17.1822 29 12.8479 29C8.51365 29 5 32.5134 5 36.8477C5 41.182 8.51365 44.6958 12.8479 44.6958Z" fill="white"/>
<path d="M21 22.9999C22.6569 22.9999 24 21.6568 24 19.9999C24 18.3431 22.6569 17 21 17C19.3431 17 18 18.3431 18 19.9999C18 21.6568 19.3431 22.9999 21 22.9999Z" fill="#B70F93"/>
</svg>
