<svg width="173" height="34" viewBox="0 0 173 34" fill="none" xmlns="http://www.w3.org/2000/svg">
<path d="M7.85311 17L3.92655 20.8387L0 17L3.92655 13.1612L7.85311 17ZM17.3891 7.67742L24.1203 14.258L28.0469 10.4193L17.3891 0L6.73128 10.4193L10.6578 14.258L17.3891 7.67742ZM30.8516 13.1612L26.925 17L30.8516 20.8387L34.7782 17L30.8516 13.1612ZM17.3891 26.3225L10.6578 19.7419L6.73128 23.5806L17.3891 34L28.0469 23.5806L24.1203 19.7419L17.3891 26.3225ZM17.3891 20.8387L21.3156 17L17.3891 13.1612L13.4626 17L17.3891 20.8387ZM58.8423 21.2084V21.1551C58.8423 18.6512 57.4803 17.3994 55.2733 16.5737C56.6353 15.8278 57.7799 14.656 57.7799 12.5518V12.4985C57.7799 9.5685 55.3823 7.67739 51.4861 7.67739H42.6314V26.3225H51.7039C56.0089 26.3225 58.8423 24.6178 58.8423 21.2084ZM53.6109 13.2443C53.6109 14.6293 52.4395 15.2153 50.5868 15.2153H46.7182V11.2732H50.8593C52.6304 11.2732 53.6109 11.9658 53.6109 13.1911V13.2443ZM54.6737 20.7022C54.6737 22.0874 53.5566 22.7267 51.7039 22.7267H46.7182V18.6247H51.5677C53.72 18.6247 54.6737 19.3971 54.6737 20.6489V20.7022ZM67.641 26.3225V7.67742H63.4452V26.3225H67.641ZM90.1956 26.3225V7.67742H86.054V19.1575L77.1174 7.67739H73.2488V26.3225H77.3899V14.4695L86.6266 26.3225H90.1956ZM113.437 26.3225L105.264 7.54429H101.395L93.221 26.3225H97.499L99.2424 22.1407H107.307L109.051 26.3225H113.437ZM105.809 18.5182H100.741L103.274 12.4718L105.809 18.5182ZM133.437 26.3225V7.67742H129.295V19.1575L120.359 7.67739H116.491V26.3225H120.632V14.4695L129.868 26.3225H133.437ZM155.098 23.3127L152.428 20.6757C150.93 22.0076 149.595 22.8598 147.415 22.8598C144.146 22.8598 141.884 20.1963 141.884 16.9999V16.9468C141.884 13.7503 144.2 11.1401 147.415 11.1401C149.323 11.1401 150.82 11.939 152.292 13.2443L154.962 10.2343C153.191 8.5296 151.039 7.3576 147.442 7.3576C141.584 7.3576 137.498 11.6993 137.498 16.9999V17.0532C137.498 22.4069 141.667 26.642 147.279 26.642C150.957 26.642 153.137 25.3637 155.098 23.3127ZM173 26.3225V22.6734H162.647V18.7578H171.638V15.1087H162.647V11.3265H172.864V7.67739H158.479V26.3225H173Z" fill="#131315"/>
</svg>
