<svg width="102" height="49" viewBox="0 0 102 49" fill="none" xmlns="http://www.w3.org/2000/svg">
<path d="M15.7503 22.4934C15.8591 22.5116 15.9679 22.5206 16.0766 22.5206C16.2035 22.5206 16.3304 22.5206 16.4573 22.5206C18.0342 22.5206 19.5205 22.1853 20.9162 21.5146C22.33 20.8258 23.5626 19.9558 24.6138 18.9045C25.6652 17.8532 26.4899 16.6841 27.0881 15.3971C27.7043 14.1102 28.0125 12.8595 28.0125 11.6451C28.0125 10.7751 27.8493 9.95035 27.5231 9.17094C27.2149 8.39153 26.7164 7.71182 26.0277 7.1318C25.357 6.55178 24.487 6.08956 23.4176 5.74517C22.3663 5.40078 21.1065 5.22859 19.6383 5.22859C17.9889 5.22859 16.566 5.38266 15.3697 5.6908C14.1915 5.99894 13.1674 6.3977 12.2974 6.8871C11.4454 7.3765 10.7204 7.93837 10.1223 8.57278C9.54224 9.20718 9.03475 9.85973 8.59973 10.5304C8.18281 11.201 7.80218 11.8536 7.45779 12.488C7.11339 13.1224 6.75091 13.6843 6.37028 14.1737C6.00774 14.6631 5.5999 15.0618 5.14676 15.37C4.69361 15.6781 4.13171 15.8322 3.46106 15.8322C2.55477 15.8322 1.87505 15.6056 1.42191 15.1524C0.968761 14.6812 0.742188 14.0287 0.742188 13.1949C0.742188 12.4155 0.950637 11.5726 1.36753 10.6663C1.80255 9.76004 2.40976 8.85377 3.18917 7.94745C3.98671 7.04118 4.95644 6.17113 6.09836 5.33734C7.24031 4.48543 8.51813 3.74227 9.93194 3.10787C11.3639 2.45534 12.9227 1.93875 14.6084 1.55811C16.2941 1.15934 18.0795 0.959961 19.9646 0.959961C21.8134 0.959961 23.5807 1.1956 25.2664 1.66687C26.9702 2.13814 28.4747 2.84504 29.7798 3.78759C31.0848 4.712 32.118 5.88112 32.8792 7.29495C33.6586 8.70876 34.0484 10.3582 34.0484 12.2433C34.0484 13.5121 33.8127 14.7265 33.3414 15.8865C32.8883 17.0285 32.272 18.107 31.4926 19.122C30.7132 20.119 29.7978 21.0434 28.7466 21.8953C27.7134 22.729 26.6077 23.4722 25.4295 24.1247C24.2514 24.7773 23.0369 25.3301 21.7862 25.7832C20.5537 26.2364 19.3574 26.5627 18.1973 26.762C18.3605 27.614 18.6233 28.5746 18.9858 29.644C19.3664 30.6954 19.8196 31.7013 20.3452 32.662C20.889 33.6045 21.4872 34.4112 22.1397 35.0818C22.7922 35.7524 23.481 36.115 24.2061 36.1694C24.3511 36.1875 24.487 36.1965 24.6138 36.1965C24.7408 36.1965 24.8676 36.1965 24.9945 36.1965C26.3177 36.1965 27.4959 35.979 28.529 35.544C29.5622 35.109 30.4232 34.6286 31.112 34.103C31.9276 33.5048 32.6345 32.807 33.2327 32.0095C33.7946 31.3751 34.3655 31.0578 34.9456 31.0578C35.3081 31.0578 35.6162 31.1848 35.87 31.4385C36.1237 31.6922 36.2506 32.0366 36.2506 32.4717C36.2506 32.8886 36.1147 33.378 35.8428 33.9398C35.589 34.4836 35.1449 35.0546 34.5105 35.6527C32.6436 37.4109 30.8129 38.6979 29.0184 39.5135C27.2421 40.3111 25.5564 40.7098 23.9614 40.7098C22.6563 40.7098 21.4509 40.3383 20.3452 39.5951C19.2396 38.852 18.2336 37.846 17.3273 36.5772C16.421 35.3084 15.5963 33.8311 14.8531 32.1454C14.11 30.4416 13.4484 28.6471 12.8683 26.762C12.5421 27.5052 12.2068 28.3843 11.8624 29.3993C11.518 30.3963 11.1464 31.4295 10.7476 32.4989C10.3489 33.5683 9.93194 34.6286 9.49693 35.68C9.06191 36.7131 8.58159 37.6466 8.05595 38.4804C7.53031 39.296 6.96839 39.9576 6.37028 40.4651C5.7721 40.9727 5.11957 41.2264 4.41266 41.2264C3.83264 41.2264 3.36136 41.1358 2.99885 40.9545C2.63633 40.7733 2.35539 40.5467 2.156 40.2748C1.95661 40.0029 1.81161 39.7039 1.72098 39.3776C1.64848 39.0513 1.61223 38.7432 1.61223 38.4532C1.61223 38.0363 1.6666 37.6103 1.77536 37.1753C1.88411 36.7403 2.03818 36.3325 2.23757 35.9518L10.2582 21.2699C10.947 20.0373 11.6358 18.8501 12.3246 17.7082C13.0315 16.5482 13.7112 15.5241 14.3638 14.6359C15.0344 13.7477 15.6597 13.0408 16.2397 12.5152C16.8379 11.9714 17.3726 11.6995 17.8439 11.6995C17.9708 11.6995 18.1248 11.7267 18.3061 11.7811C18.4873 11.8173 18.6505 11.8989 18.7955 12.0258C18.9405 12.1345 19.0674 12.3067 19.1761 12.5423C19.2849 12.7599 19.3393 13.0408 19.3393 13.3852C19.3393 13.7296 19.2396 14.2099 19.0402 14.8262C18.8408 15.4425 18.578 16.1494 18.2517 16.9469C17.9255 17.7444 17.5448 18.6235 17.1098 19.5842C16.6748 20.5268 16.2217 21.4965 15.7503 22.4934ZM88.3192 36.414C88.3192 36.9759 88.2104 37.5106 87.9929 38.0182C87.7934 38.5257 87.5124 38.9788 87.1501 39.3776C86.8057 39.7582 86.398 40.0573 85.9268 40.2748C85.4552 40.5104 84.9567 40.6283 84.4314 40.6283C83.9964 40.6283 83.5881 40.5377 83.2077 40.3564C82.8272 40.1933 82.4917 39.9667 82.202 39.6767C81.9298 39.3867 81.7122 39.0513 81.5494 38.6707C81.3859 38.2719 81.3045 37.855 81.3045 37.42C81.3045 36.8762 81.404 36.3597 81.6035 35.8703C81.821 35.3627 82.1112 34.9186 82.4736 34.538C82.836 34.1574 83.2623 33.8583 83.7515 33.6408C84.2407 33.4051 84.7665 33.2874 85.3284 33.2874C86.2165 33.2874 86.9325 33.5864 87.4764 34.1845C88.0382 34.7827 88.3192 35.5259 88.3192 36.414Z" fill="#161D30"/>
<path d="M49.9066 24.1521C49.816 24.134 49.7344 24.1249 49.6619 24.1249C49.5894 24.1249 49.5078 24.1249 49.4172 24.1249C48.7284 24.1249 48.085 24.2609 47.4868 24.5327C46.8886 24.8047 46.3358 25.1671 45.8283 25.6203C45.3389 26.0553 44.8948 26.5538 44.496 27.1157C44.1154 27.6776 43.771 28.2395 43.4629 28.8014C43.1548 29.3451 42.8919 29.8708 42.6744 30.3783C42.475 30.8858 42.321 31.3118 42.2122 31.6562C42.8466 31.3299 43.4991 30.9583 44.1698 30.5415C44.8586 30.1245 45.502 29.7258 46.1002 29.3451C46.6983 28.9645 47.2149 28.6201 47.65 28.312C48.1031 28.0038 48.4203 27.7954 48.6015 27.6866C49.4172 27.1791 49.9791 26.7079 50.2872 26.2728C50.5954 25.8197 50.7494 25.43 50.7494 25.1037C50.7494 24.8318 50.6588 24.6143 50.4776 24.4512C50.3144 24.288 50.1241 24.1883 49.9066 24.1521ZM50.8854 20.4001C52.3898 20.4001 53.5136 20.7626 54.2568 21.4876C55 22.2127 55.3716 23.2186 55.3716 24.5056C55.3716 25.2668 55.1721 26.0644 54.7734 26.8982C54.3746 27.732 53.6858 28.5839 52.707 29.4539C51.7282 30.3058 50.4141 31.1849 48.7647 32.0912C47.1333 32.9794 45.0851 33.8766 42.62 34.7829C42.7107 35.3085 42.9916 35.7254 43.4629 36.0335C43.9342 36.3236 44.5595 36.4686 45.3389 36.4686C46.1727 36.4686 47.0609 36.3508 48.0034 36.1152C48.9641 35.8614 49.9066 35.5441 50.831 35.1635C51.7736 34.7829 52.6889 34.375 53.5771 33.94C54.4653 33.4869 55.2628 33.0609 55.9695 32.6621C56.6948 32.2634 57.2928 31.919 57.7639 31.629C58.2536 31.339 58.5799 31.1577 58.7428 31.0852C58.9062 30.9765 59.0511 30.913 59.1779 30.8949C59.3227 30.8768 59.4501 30.8677 59.5588 30.8677C59.7758 30.8677 59.9573 30.9221 60.1021 31.0308C60.2475 31.1215 60.365 31.2393 60.4558 31.3843C60.5645 31.5112 60.6372 31.6562 60.6733 31.8193C60.7094 31.9643 60.728 32.0912 60.728 32.2C60.728 32.3631 60.7094 32.5624 60.6733 32.7981C60.6372 33.0156 60.5011 33.2694 60.2656 33.5594C60.1748 33.65 59.8666 33.8947 59.3413 34.2935C58.8335 34.6923 58.1722 35.1635 57.3562 35.7073C56.5407 36.2511 55.5891 36.8311 54.5015 37.4474C53.4321 38.0455 52.2901 38.5984 51.0757 39.1059C49.8794 39.6134 48.6287 40.0303 47.3237 40.3566C46.0186 40.701 44.7317 40.8731 43.4629 40.8731C42.3753 40.8731 41.4056 40.6647 40.5537 40.2478C39.7199 39.8309 39.0039 39.269 38.4058 38.5621C37.8257 37.8552 37.3817 37.0396 37.0735 36.1152C36.7654 35.1907 36.6113 34.221 36.6113 33.2059C36.6113 32.4265 36.7654 31.5746 37.0735 30.6502C37.3817 29.7077 37.8257 28.7651 38.4058 27.8226C38.9858 26.88 39.6927 25.9647 40.5265 25.0765C41.3784 24.1702 42.33 23.3727 43.3813 22.6839C44.4326 21.9951 45.5836 21.4423 46.8343 21.0254C48.1031 20.6085 49.4535 20.4001 50.8854 20.4001ZM69.0473 24.1521C68.9566 24.134 68.8751 24.1249 68.803 24.1249C68.7303 24.1249 68.6488 24.1249 68.5581 24.1249C67.8694 24.1249 67.2256 24.2609 66.6276 24.5327C66.0297 24.8047 65.4766 25.1671 64.9693 25.6203C64.4796 26.0553 64.0358 26.5538 63.6368 27.1157C63.2564 27.6776 62.9121 28.2395 62.6038 28.8014C62.2955 29.3451 62.0326 29.8708 61.8151 30.3783C61.6161 30.8858 61.462 31.3118 61.3532 31.6562C61.9873 31.3299 62.6399 30.9583 63.3105 30.5415C63.9992 30.1245 64.643 29.7258 65.241 29.3451C65.8389 28.9645 66.356 28.6201 66.7911 28.312C67.2442 28.0038 67.5612 27.7954 67.7426 27.6866C68.5581 27.1791 69.12 26.7079 69.4283 26.2728C69.736 25.8197 69.8901 25.43 69.8901 25.1037C69.8901 24.8318 69.7999 24.6143 69.6185 24.4512C69.455 24.288 69.2648 24.1883 69.0473 24.1521ZM70.0262 20.4001C71.5309 20.4001 72.6547 20.7626 73.3974 21.4876C74.1408 22.2127 74.5125 23.2186 74.5125 24.5056C74.5125 25.2668 74.313 26.0644 73.914 26.8982C73.5155 27.732 72.8268 28.5839 71.8479 29.4539C70.869 30.3058 69.5551 31.1849 67.9055 32.0912C66.274 32.9794 64.226 33.8766 61.761 34.7829C61.8517 35.3085 62.1326 35.7254 62.6038 36.0335C63.0749 36.3236 63.7002 36.4686 64.4796 36.4686C65.3137 36.4686 66.2019 36.3508 67.1441 36.1152C68.105 35.8614 69.0473 35.5441 69.9721 35.1635C70.9144 34.7829 71.8299 34.375 72.7181 33.94C73.6062 33.4869 74.4037 33.0609 75.1104 32.6621C75.8357 32.2634 76.4336 31.919 76.9048 31.629C77.3945 31.339 77.7208 31.1577 77.8837 31.0852C78.0471 30.9765 78.192 30.913 78.3188 30.8949C78.4636 30.8768 78.591 30.8677 78.6992 30.8677C78.9167 30.8677 79.0982 30.9221 79.243 31.0308C79.3884 31.1215 79.5059 31.2393 79.5966 31.3843C79.7054 31.5112 79.7781 31.6562 79.8142 31.8193C79.8503 31.9643 79.8683 32.0912 79.8683 32.2C79.8683 32.3631 79.8503 32.5624 79.8142 32.7981C79.7781 33.0156 79.642 33.2694 79.4064 33.5594C79.3157 33.65 79.0074 33.8947 78.4822 34.2935C77.9744 34.6923 77.3131 35.1635 76.497 35.7073C75.6816 36.2511 74.73 36.8311 73.6423 37.4474C72.5727 38.0455 71.4309 38.5984 70.2164 39.1059C69.0205 39.6134 67.7694 40.0303 66.4648 40.3566C65.1595 40.701 63.8724 40.8731 62.6038 40.8731C61.5161 40.8731 60.5465 40.6647 59.6944 40.2478C58.8609 39.8309 58.1449 39.269 57.5464 38.5621C56.9665 37.8552 56.5226 37.0396 56.2144 36.1152C55.9061 35.1907 55.752 34.221 55.752 33.2059C55.752 32.4265 55.9061 31.5746 56.2144 30.6502C56.5226 29.7077 56.9665 28.7651 57.5464 27.8226C58.1268 26.88 58.8335 25.9647 59.6676 25.0765C60.5192 24.1702 61.4707 23.3727 62.5223 22.6839C63.5734 21.9951 64.7245 21.4423 65.975 21.0254C67.2442 20.6085 68.5942 20.4001 70.0262 20.4001ZM95.7194 24.7503C94.7771 24.7865 93.8796 24.8137 93.028 24.8318C92.194 24.85 91.3785 24.8681 90.5811 24.8862C89.7836 24.8862 88.9949 24.8862 88.2155 24.8862C87.4361 24.8862 86.6474 24.8862 85.85 24.8862C85.3788 25.8106 84.8443 26.8891 84.2458 28.1217C83.6659 29.3361 83.0499 30.6139 82.3973 31.9553C81.7627 33.2965 81.1194 34.656 80.4668 36.0335C79.8322 37.393 79.225 38.689 78.6451 39.9216C78.0652 41.136 77.5394 42.2326 77.0682 43.2114C76.5971 44.2083 76.2161 44.9968 75.9264 45.5768C75.7269 45.9937 75.4821 46.3743 75.1918 46.7187C74.9022 47.0813 74.5851 47.3894 74.2403 47.6431C73.8959 47.8969 73.5428 48.0872 73.1799 48.2141C72.8175 48.3591 72.4825 48.4316 72.1742 48.4316C71.7392 48.4316 71.3494 48.3228 71.0051 48.1054C70.6608 47.8878 70.4886 47.5434 70.4886 47.0722C70.4886 46.8366 70.5427 46.5556 70.6515 46.2293C70.7602 45.9212 70.9144 45.5587 71.1139 45.1418L80.7116 24.8047H79.2703C78.2734 24.8047 77.594 24.6506 77.2311 24.3424C76.8687 24.0343 76.6872 23.6718 76.6872 23.2549C76.6872 22.8198 76.9141 22.403 77.3672 22.0042C77.8203 21.5873 78.4822 21.3789 79.3518 21.3789H82.5602C83.8473 18.7869 85.1339 16.648 86.4211 14.9623C87.7263 13.2766 89.0042 11.9444 90.2548 10.9656C91.5053 9.98676 92.7198 9.30705 93.8982 8.92642C95.0941 8.54578 96.2364 8.35547 97.3235 8.35547C97.8313 8.35547 98.3117 8.45516 98.7649 8.65455C99.236 8.85394 99.6437 9.15297 99.9881 9.55175C100.35 9.95052 100.641 10.4581 100.858 11.0743C101.076 11.6725 101.185 12.3794 101.185 13.1951C101.185 13.9745 101.076 14.8354 100.858 15.778C100.804 16.0317 100.695 16.2492 100.532 16.4305C100.369 16.5936 100.188 16.7296 99.9881 16.8383C99.7886 16.9471 99.5896 17.0287 99.3901 17.083C99.1906 17.1193 99.0185 17.1374 98.8736 17.1374C98.5107 17.1374 98.1756 17.0558 97.8674 16.8927C97.5591 16.7115 97.4055 16.4396 97.4055 16.0771C97.4055 15.8414 97.4143 15.6239 97.4323 15.4245C97.4689 15.2251 97.487 15.0258 97.487 14.8264C97.487 14.0651 97.3416 13.5213 97.0519 13.1951C96.7797 12.8688 96.4086 12.7057 95.9369 12.7057C95.375 12.7057 94.7137 12.9504 93.9523 13.4398C93.209 13.9292 92.4476 14.5817 91.6682 15.3973C90.9074 16.213 90.1733 17.1465 89.4661 18.1978C88.7593 19.231 88.1794 20.2913 87.7263 21.3789H94.0611C94.6229 21.3789 95.1487 21.3879 95.6379 21.406C96.1276 21.4242 96.5534 21.4786 96.9158 21.5692C97.2968 21.6598 97.5864 21.8139 97.7859 22.0314C98.0035 22.2307 98.1122 22.5298 98.1122 22.9286C98.1122 23.128 98.0762 23.3274 98.0035 23.5268C97.9308 23.7262 97.804 23.9165 97.6225 24.0977C97.4596 24.2609 97.2241 24.4059 96.9158 24.5327C96.6075 24.6415 96.2091 24.714 95.7194 24.7503Z" fill="#161D30"/>
</svg>
