<svg width="94" height="40" viewBox="0 0 94 40" fill="none" xmlns="http://www.w3.org/2000/svg">
<path d="M75.8219 18.0534C76.9885 19.5407 77.5832 21.6052 77.5832 24.2502H66.5847C66.701 25.6132 67.0675 26.6677 67.7001 27.377C68.3935 28.1206 69.3847 28.5158 70.3997 28.4594C71.2579 28.4973 72.1037 28.2573 72.8139 27.7754C73.3822 27.2882 73.8289 26.6738 74.1205 25.9857H77.3567C77.0422 27.3144 76.3277 28.5156 75.3109 29.424C73.9409 30.5614 72.2015 31.1599 70.4218 31.1027C68.234 31.1027 66.4983 30.4198 65.2217 29.0858C63.8586 27.6937 63.1758 25.7874 63.1758 23.3433C63.1758 21.1565 63.7987 19.3357 65.1071 17.8572C66.3582 16.3497 68.0772 15.6287 70.2808 15.6287C72.6993 15.6102 74.5452 16.4102 75.8219 18.0534ZM67.8376 19.1685C67.175 19.9051 66.7574 20.8293 66.6446 21.8135H74.2025C73.9205 19.4249 72.6395 18.2625 70.3663 18.2625C69.4341 18.2008 68.5178 18.5272 67.8367 19.1651V19.1685H67.8376Z" fill="#141B32"/>
<path d="M93.3283 21.6395V30.7007H90.0894V21.9208C90.0894 19.5032 88.9749 18.3088 86.7458 18.3088C85.9599 18.3052 85.2038 18.6134 84.6435 19.164C83.9272 19.883 83.5078 20.8439 83.4655 21.858V30.6972H80.2275V16.0097H83.4655V17.7159C83.9907 17.0639 84.6488 16.5297 85.3969 16.1517C86.1484 15.7851 86.9749 15.599 87.811 15.613C91.471 15.6095 93.3283 17.6006 93.3283 21.6395Z" fill="#141B32"/>
<path d="M62.2301 30.7036L56.4186 22.2723C57.4953 22.1172 58.5173 21.6938 59.3895 21.0427C60.6424 20.0224 61.2953 18.5447 61.2953 16.6089C61.2953 16.5455 61.2953 16.4857 61.2953 16.4222C61.2953 16.3605 61.2953 16.2998 61.2953 16.2364C61.2953 14.3059 60.6424 12.8282 59.3895 11.8026C58.1966 10.866 56.5472 10.4087 54.4713 10.4087H45.4121V30.7002H48.7558V22.4332H52.3101L57.9851 30.7036H62.2301ZM48.7558 13.2515H54.0158C55.3225 13.2515 56.3172 13.5375 56.9851 14.0767C57.6239 14.6855 57.9639 15.5403 57.9225 16.4196C57.9639 17.299 57.623 18.1546 56.9851 18.7634C56.3031 19.3018 55.3119 19.5886 54.0158 19.5886H48.7558V13.2515Z" fill="#141B32"/>
<path d="M5.53125 8.67265L8.45283 6.99137L8.84669 7.66939L19.6241 1.45366L18.8355 1.00107L18.0442 0.539885L17.6513 0.314453L0.0966797 10.4537V10.9063L5.13739 7.99291L5.53125 8.67265Z" fill="#141B32"/>
<path d="M5.53125 15.057L13.9781 10.1766L14.3702 10.8632L25.1466 4.64407L24.3589 4.1846L23.5678 3.73201L23.1739 3.5083L0.0966797 16.8312V17.2838L5.13739 14.3686L5.53125 15.057Z" fill="#141B32"/>
<path d="M5.53125 18.2472L16.7385 11.7768L17.135 12.4565L27.9061 6.23047L27.1194 5.78477L26.3308 5.32358L25.9344 5.09814L0.0966797 20.0145V20.4757L5.13739 17.564L5.53125 18.2472Z" fill="#141B32"/>
<path d="M5.53125 21.4327L19.5783 13.3258L19.9764 14.0055L30.6692 7.8311L29.8824 7.37163L29.0913 6.91905L28.6974 6.69189L0.0966797 23.2087V23.663L5.13739 20.7478L5.53125 21.4327Z" fill="#141B32"/>
<path d="M5.53125 24.6166L22.343 14.9161L22.7352 15.6027L33.4297 9.42141L32.6419 8.97227L31.8543 8.51108L31.4578 8.28564L0.0966797 26.3925V26.8468L5.13739 23.9385L5.53125 24.6166Z" fill="#141B32"/>
<path d="M34.6147 10.108L34.22 9.87744L0.0966797 29.5864V30.0407L5.13739 27.1325L5.53125 27.8105L22.343 18.11L22.7352 18.7898L35.2059 11.5949V10.6811V10.4539L34.6147 10.108Z" fill="#141B32"/>
<path d="M2.25786 31.9747L5.08522 30.345L5.47908 31.0248L22.261 21.3364L22.6548 22.0247L35.2058 14.7782V13.8644V12.9506V12.498L1.87109 31.7493L2.25786 31.9747Z" fill="#141B32"/>
<path d="M22.2612 24.5319L22.6551 25.2186L35.2061 17.972V17.0583V16.1445V15.6919L4.63086 33.3427L5.02913 33.5699L7.89704 31.9075L8.29445 32.5959" fill="#141B32"/>
<path d="M7.78952 35.1651L10.66 33.5027L11.0539 34.1894L22.2612 27.7155L22.655 28.4021L35.206 21.1556V20.241V19.3349V18.8789L7.3877 34.9328L7.78952 35.1651Z" fill="#141B32"/>
<path d="M10.5482 36.7586L13.4205 35.1031L13.8186 35.7828L22.2612 30.9094L22.655 31.5891L35.206 24.3426V23.4348V22.5219V22.0693L10.1543 36.5331L10.5482 36.7586Z" fill="#141B32"/>
<path d="M12.9189 38.1271L13.3128 38.3543L16.1914 36.6937L16.5773 37.3803L22.261 34.0935L22.6549 34.7792L35.2059 27.5336V26.6198V25.706V25.2534L12.9189 38.1271Z" fill="#141B32"/>
<path d="M16.0734 39.9546L18.9431 38.2871L19.3378 38.9737L22.2612 37.2804L22.6551 37.967L35.206 30.7291V29.8153V28.8999V28.4473L15.6787 39.7275L16.0734 39.9546Z" fill="#141B32"/>
<path d="M22.3862 3.04741L21.5959 2.59482L20.8083 2.14052L20.4135 1.9082L0.0966797 13.6376V14.0901L5.13739 11.1871L5.53125 11.8616L11.2133 8.5834L11.6186 9.27002L22.3862 3.04741Z" fill="#141B32"/>
</svg>
