<svg width="94" height="33" viewBox="0 0 94 33" fill="none" xmlns="http://www.w3.org/2000/svg">
<path d="M56.3673 19.1177C55.3179 22.6852 51.9618 25.2233 47.93 25.2233C42.6621 25.2233 38.8867 21.0527 38.8867 16.2508C38.8867 11.6595 42.4524 7.32471 47.9071 7.32471C52.8711 7.34673 55.6924 11.0051 56.3673 13.5224H52.7091C52.1725 12.3347 50.6341 10.3996 47.8834 10.3758C44.5273 10.3758 42.359 13.1978 42.359 16.2508C42.359 19.398 44.6198 22.1705 47.9071 22.1705C50.983 22.1705 52.3813 19.7459 52.7082 19.1177H56.3673Z" fill="#141B32"/>
<path d="M60.8903 19.5132C61.0312 21.5644 62.8488 22.7068 64.5969 22.6848C66.0885 22.6848 67.0912 22.0081 67.6745 20.9587H70.8191C70.2129 22.3799 69.3045 23.4525 68.2322 24.175C67.1599 24.9222 65.9018 25.2944 64.5731 25.2944C60.6329 25.2944 57.8135 22.1007 57.8135 18.5332C57.8135 14.897 60.6576 11.7031 64.5264 11.7031C66.4375 11.7031 68.115 12.4253 69.3045 13.6615C70.8658 15.2703 71.45 17.2762 71.1927 19.5132H60.8903ZM68.1864 17.1832C68.0709 15.9717 66.7881 14.2692 64.5502 14.2922C62.2893 14.2922 61.0532 15.9241 60.9378 17.1832H68.1864Z" fill="#141B32"/>
<path d="M73.5018 12.1016H76.3918V13.7786C76.9513 12.6358 77.9998 11.7297 79.9346 11.7041V14.7827H79.7945C77.649 14.7827 76.5539 15.784 76.5539 17.9964V24.897H73.501V12.1016H73.5018Z" fill="#141B32"/>
<path d="M83.3385 19.5132C83.4795 21.5644 85.2972 22.7068 87.0444 22.6848C88.536 22.6848 89.5387 22.0081 90.1202 20.9587H93.2674C92.6612 22.3799 91.7519 23.4525 90.6805 24.175C89.6083 24.9222 88.3492 25.2944 87.0215 25.2944C83.0822 25.2944 80.2627 22.1007 80.2627 18.5332C80.2627 14.897 83.1059 11.7031 86.9738 11.7031C88.8858 11.7031 90.5634 12.4253 91.752 13.6615C93.3133 15.2703 93.8974 17.2762 93.6401 19.5132H83.3385ZM90.6356 17.1832C90.5184 15.9717 89.2365 14.2692 86.9986 14.2922C84.7395 14.2922 83.5042 15.9241 83.3862 17.1832H90.6356Z" fill="#141B32"/>
<path d="M15.4887 32.0312C8.30261 32.0312 2.72011 28.5786 0.918305 23.0199L0.515625 21.7757L1.69629 21.2113C1.82141 21.1496 4.91925 19.5931 4.72629 16.5331C4.52364 13.3013 1.90246 11.7851 1.79056 11.7216L0.638128 11.072L1.13417 9.84244C3.49105 4.15508 8.85683 0.759766 15.4878 0.759766C20.6985 0.759766 25.2651 2.7958 28.0159 6.34566L28.711 7.24223L23.2298 14.6127L22.0069 13.4304C21.984 13.4084 19.3795 10.951 16.3557 10.9386C13.4428 10.9245 12.2957 12.0182 12.2463 12.0658L10.0885 9.99646C10.2877 9.785 12.1371 7.91866 16.3698 7.9495C19.0659 7.96184 21.3954 9.2501 22.7708 10.2202L24.9189 7.33171C22.6906 5.04091 19.3196 3.74889 15.4878 3.74889C10.5406 3.74889 6.47787 6.03674 4.39589 9.92935C5.65318 10.984 7.50085 13.0706 7.70966 16.3438C7.93169 19.8822 5.66377 22.1088 4.18885 23.1705C5.93426 26.819 10.1467 29.0403 15.4878 29.0403C19.1884 29.0403 22.9752 27.6012 25.3136 25.38L22.8721 22.3221C21.569 23.2411 19.3469 24.4352 16.4411 24.5867C12.3142 24.8 9.87356 22.9039 9.77135 22.8229L11.6278 20.479C11.6842 20.5222 13.3415 21.7553 16.2852 21.6002C19.7672 21.4213 22.0016 19.1881 22.0236 19.1635L23.206 17.964L24.2633 19.2736L29.2 25.4575L28.4449 26.3902C25.6686 29.8185 20.584 32.0312 15.4887 32.0312Z" fill="#141B32"/>
</svg>
