<svg width="133" height="30" viewBox="0 0 133 30" fill="none" xmlns="http://www.w3.org/2000/svg">
<path d="M51.6497 9.37635C52.4597 9.87477 53.145 10.5601 53.5811 11.4946C54.0795 12.4292 54.3287 13.5507 54.3287 14.7967C54.3287 16.0428 54.0795 17.1019 53.5188 18.0365C53.0204 18.971 52.2727 19.6563 51.3382 20.0925C50.4037 20.5909 49.2822 20.8401 48.0984 20.8401C47.4131 20.8401 46.7901 20.7155 46.167 20.4663C45.544 20.2794 44.9833 19.9056 44.5472 19.4694V25.949H40.9336V8.87792H44.0487L44.3603 10.2486C45.7309 9.12713 47.2262 8.56641 48.7838 8.56641C49.8429 8.56641 50.8398 8.81562 51.6497 9.37635ZM49.656 17.1019C50.279 16.5412 50.5906 15.7936 50.5906 14.859C50.5906 13.9245 50.279 13.1768 49.7183 12.5538C49.1576 11.9308 48.41 11.6816 47.6 11.6816C46.9147 11.6816 46.2917 11.8062 45.7932 12.1177C45.2948 12.3669 44.921 12.803 44.6095 13.3637V16.1674C44.7964 16.7281 45.1702 17.1642 45.6063 17.4757C46.1047 17.7873 46.6655 17.9742 47.3508 17.9742C48.2853 17.9742 49.033 17.6627 49.656 17.1019Z" fill="#161D30"/>
<path d="M56.4476 11.5576C57.0084 10.6854 57.756 9.93776 58.7528 9.43933C59.7497 8.94091 60.8712 8.62939 62.1172 8.62939C63.3633 8.62939 64.4847 8.87861 65.4816 9.43933C66.4161 9.93776 67.1638 10.6854 67.7245 11.6199C68.2852 12.5545 68.5344 13.5513 68.5344 14.7351C68.5344 15.9188 68.2852 16.9157 67.7245 17.8502C67.1638 18.7848 66.4784 19.5324 65.4816 20.0309C64.547 20.5293 63.3633 20.8408 62.1172 20.8408C60.8712 20.8408 59.7497 20.5916 58.7528 20.0932C57.756 19.5947 57.0084 18.9094 56.4476 17.9749C55.9492 17.0403 55.6377 15.9812 55.6377 14.7351C55.6377 13.5513 55.9492 12.4922 56.4476 11.5576ZM60.1235 16.978C60.6219 17.601 61.3073 17.8502 62.1172 17.8502C62.9271 17.8502 63.6125 17.5387 64.1109 16.978C64.6093 16.4173 64.8585 15.6073 64.8585 14.7351C64.8585 13.8005 64.6093 13.0529 64.1109 12.4922C63.5502 11.8692 62.9271 11.5576 62.0549 11.5576C61.245 11.5576 60.6219 11.8692 60.0612 12.4299C59.5628 13.0529 59.3136 13.8005 59.3136 14.7351C59.3136 15.6073 59.5628 16.355 60.1235 16.978Z" fill="#161D30"/>
<path d="M74.3899 0.03125V20.5289H70.7764V0.03125H74.3899Z" fill="#161D30"/>
<path d="M89.2186 9.18994L81.8668 26.0118H78.3779L81.1192 19.9684L75.8857 9.18994H79.9977L82.9883 15.9187L85.9788 9.18994H89.2186Z" fill="#161D30"/>
<path d="M103.049 9.19012V20.5293C103.049 21.5884 102.738 22.5853 102.115 23.4575C101.492 24.3298 100.682 25.0151 99.6228 25.5135C98.5636 26.0119 97.4422 26.2612 96.1961 26.2612C95.2616 26.2612 94.4516 26.1365 93.7663 25.9496C93.081 25.7004 92.5202 25.4512 92.0841 25.202C91.5857 24.8905 91.0873 24.5167 90.5265 24.0182L92.6448 21.5261C93.1433 22.0245 93.704 22.3984 94.2024 22.6476C94.7008 22.8968 95.3862 23.0837 96.1338 23.0837C97.0684 23.0837 97.816 22.8345 98.439 22.3984C99.062 21.9622 99.3736 21.2769 99.3736 20.467V18.8471C98.9997 19.4078 98.5013 19.9062 97.7537 20.2801C97.006 20.6539 96.1338 20.8408 95.137 20.8408C94.1401 20.8408 93.1433 20.5916 92.271 20.0308C91.3988 19.5324 90.7134 18.7848 90.1527 17.8502C89.6543 16.9157 89.3428 15.9189 89.3428 14.7974C89.3428 13.6759 89.592 12.6168 90.1527 11.6822C90.7134 10.7477 91.3988 10.0001 92.3333 9.43933C93.2056 8.87861 94.1401 8.62939 95.137 8.62939C96.0715 8.62939 96.8814 8.754 97.6291 9.00321C98.3767 9.25243 98.9374 9.62624 99.3113 10.0624L99.6851 9.19012H103.049ZM99.3736 16.1681V13.3644C99.1243 12.8037 98.7505 12.3676 98.1898 12.0561C97.6291 11.7445 97.006 11.5576 96.2584 11.5576C95.3862 11.5576 94.6385 11.8692 94.0155 12.4299C93.3925 12.9906 93.081 13.7382 93.081 14.6728C93.081 15.545 93.3925 16.355 94.0155 16.978C94.6385 17.601 95.3862 17.9125 96.2584 17.9125C97.6914 17.8502 98.7505 17.2895 99.3736 16.1681Z" fill="#161D30"/>
<path d="M106.04 11.557C106.601 10.6224 107.349 9.93707 108.346 9.37635C109.342 8.87792 110.464 8.56641 111.71 8.56641C112.956 8.56641 114.077 8.81562 115.074 9.37635C116.009 9.87477 116.757 10.6224 117.317 11.557C117.816 12.4915 118.127 13.4883 118.127 14.6721C118.127 15.8559 117.878 16.8527 117.317 17.7873C116.819 18.7218 116.071 19.4694 115.074 19.9679C114.14 20.4663 112.956 20.7778 111.71 20.7778C110.464 20.7778 109.342 20.5286 108.346 20.0302C107.349 19.5317 106.601 18.8464 106.04 17.9119C105.48 16.9773 105.23 15.9182 105.23 14.6098C105.23 13.5506 105.48 12.4915 106.04 11.557ZM109.654 16.9773C110.152 17.6003 110.838 17.8496 111.648 17.8496C112.458 17.8496 113.143 17.538 113.641 16.9773C114.14 16.4166 114.389 15.6066 114.389 14.7344C114.389 13.7999 114.14 13.0522 113.641 12.4915C113.143 11.9308 112.458 11.6193 111.648 11.6193C110.838 11.6193 110.215 11.9308 109.654 12.4915C109.093 13.0522 108.844 13.8622 108.844 14.7344C108.906 15.6066 109.156 16.3543 109.654 16.9773Z" fill="#161D30"/>
<path d="M130.899 9.56394C131.647 10.187 131.958 10.9969 132.021 11.9938V20.5293H128.345V13.3644C128.282 12.243 127.722 11.6822 126.663 11.6822C125.853 11.6822 125.167 12.0561 124.669 12.866C124.17 13.6759 123.921 14.6728 123.921 15.8565V20.5293H120.308V9.19012H123.61L123.859 10.9969C124.295 10.2493 124.856 9.68855 125.603 9.25243C126.351 8.8163 127.223 8.62939 128.22 8.62939C129.279 8.62939 130.214 8.94091 130.899 9.56394Z" fill="#161D30"/>
<path d="M25.4819 9.00279C24.8589 8.62897 24.049 8.62897 23.3636 9.00279L18.504 11.8687L15.2019 13.7378L10.3423 16.6038C9.71927 16.9776 8.90934 16.9776 8.224 16.6038L4.36121 14.3608C3.73818 13.987 3.30206 13.3017 3.30206 12.5541V8.13055C3.30206 7.38291 3.67588 6.69758 4.36121 6.32376L8.1617 4.14315C8.78473 3.76933 9.59467 3.76933 10.28 4.14315L14.0805 6.32376C14.7035 6.69758 15.1396 7.38291 15.1396 8.13055V10.9965L18.4417 9.06509V6.19915C18.4417 5.45152 18.0679 4.76618 17.3825 4.39236L10.3423 0.280364C9.71927 -0.0934546 8.90934 -0.0934546 8.224 0.280364L1.05915 4.39236C0.373818 4.76618 0 5.45152 0 6.19915V14.4855C0 15.2331 0.373818 15.9184 1.05915 16.2922L8.224 20.4042C8.84703 20.7781 9.65697 20.7781 10.3423 20.4042L15.2019 17.6006L18.504 15.6692L23.3636 12.8656C23.9867 12.4918 24.7966 12.4918 25.4819 12.8656L29.2824 15.0462C29.9055 15.42 30.3416 16.1053 30.3416 16.853V21.2765C30.3416 22.0241 29.9678 22.7095 29.2824 23.0833L25.4819 25.3262C24.8589 25.7 24.049 25.7 23.3636 25.3262L19.5632 23.1456C18.9401 22.7718 18.504 22.0864 18.504 21.3388V18.4728L15.2019 20.4042V23.2702C15.2019 24.0178 15.5758 24.7032 16.2611 25.077L23.4259 29.189C24.049 29.5628 24.8589 29.5628 25.5442 29.189L32.7091 25.077C33.3321 24.7032 33.7682 24.0178 33.7682 23.2702V14.9839C33.7682 14.2362 33.3944 13.5509 32.7091 13.1771L25.4819 9.00279Z" fill="#161D30"/>
</svg>
