<svg width="121" height="30" viewBox="0 0 121 30" fill="none" xmlns="http://www.w3.org/2000/svg">
<path d="M13.3449 0.0869141L10.6805 1.62708L3.42218 5.84318L0.757812 7.38334V21.9728L3.42218 23.5112L10.7466 27.729L13.4101 29.2675L16.0744 27.729L23.2676 23.5112L25.9311 21.9728V7.38334L23.2676 5.84318L16.0084 1.62708L13.3449 0.0869141ZM6.08569 18.8941V10.4628L13.3449 6.24672L20.6032 10.4628V18.8941L13.3449 23.1102L6.08569 18.8941Z" fill="#141B32"/>
<path d="M36.285 22.4716C34.9511 22.4716 33.7431 22.179 32.6621 21.5957C31.5951 20.9966 30.7554 20.1829 30.1448 19.1546C29.5351 18.1115 29.2285 16.941 29.2285 15.6458C29.2285 14.348 29.5351 13.185 30.1448 12.1559C30.7554 11.1127 31.6004 10.2991 32.6815 9.71404C33.7625 9.11666 34.9696 8.81747 36.3053 8.81747C37.3468 8.81747 38.301 8.99588 39.1653 9.35007C40.0305 9.69458 40.768 10.2099 41.3777 10.898L40.1389 12.0966C39.1345 11.0419 37.8816 10.5134 36.3811 10.5134C35.3899 10.5134 34.493 10.737 33.693 11.1811C32.8921 11.6269 32.2621 12.245 31.8048 13.0318C31.359 13.8081 31.1369 14.6784 31.1369 15.6458C31.1369 16.6115 31.359 17.4893 31.8048 18.277C32.2621 19.0532 32.8912 19.6622 33.693 20.108C34.493 20.5538 35.3899 20.7757 36.3811 20.7757C37.8692 20.7757 39.1221 20.2406 40.1389 19.1736L41.3777 20.3747C40.7689 21.0611 40.0244 21.5822 39.1468 21.9364C38.2825 22.2941 37.33 22.4716 36.285 22.4716ZM49.229 12.1172C50.5127 12.1172 51.5313 12.4902 52.2802 13.2418C53.0441 13.9784 53.4238 15.064 53.4238 16.5028V22.3202H51.5929V16.7119C51.5929 15.733 51.3585 14.9966 50.8863 14.5006C50.4167 14.0045 49.7426 13.7546 48.8651 13.7546C47.873 13.7546 47.0915 14.0472 46.5188 14.6322C45.9479 15.2032 45.6615 16.0318 45.6615 17.112V22.3193H43.8315V8.16785H45.6615V13.6402C46.0439 13.1582 46.5382 12.7817 47.1488 12.5156C47.7734 12.2504 48.4651 12.1172 49.229 12.1172ZM60.4936 12.1172C61.8918 12.1172 62.9615 12.4599 63.6989 13.1463C64.4478 13.8344 64.8232 14.8559 64.8232 16.2154V22.3202H63.0883V20.9839C62.7826 21.4535 62.3438 21.8151 61.7711 22.0698C61.2125 22.3121 60.5447 22.4329 59.7693 22.4329C58.638 22.4329 57.7287 22.1609 57.0424 21.6138C56.3684 21.0648 56.0327 20.3483 56.0327 19.4575C56.0327 18.5668 56.3552 17.8559 57.0045 17.3219C57.653 16.7748 58.6821 16.502 60.0944 16.502H62.9923V16.1389C62.9923 15.3503 62.765 14.7471 62.3051 14.3268C61.8496 13.9065 61.1738 13.697 60.2839 13.697C59.6865 13.697 59.1023 13.7997 58.5296 14.0033C57.9587 14.1927 57.475 14.455 57.0803 14.7854L56.3173 13.4113C56.8389 12.9928 57.4618 12.6747 58.1878 12.4579C58.9103 12.2306 59.6803 12.1172 60.4936 12.1172ZM60.0742 21.0226C60.7728 21.0226 61.3773 20.8698 61.8857 20.564C62.3949 20.2477 62.7632 19.8039 62.9905 19.2304V17.8184H60.1684C58.616 17.8184 57.8415 18.3403 57.8415 19.3827C57.8415 19.8902 58.038 20.2904 58.4319 20.583C58.8284 20.8764 59.3755 21.0226 60.0742 21.0226ZM68.2118 12.2119H70.0418V22.321H68.2118V12.2119ZM69.1264 10.2673C68.7704 10.2673 68.4717 10.1522 68.2295 9.92312C68.0004 9.69404 67.8876 9.41551 67.8876 9.08334C67.8876 8.75294 68.0004 8.47437 68.2295 8.24528C68.4717 8.00299 68.7704 7.88477 69.1264 7.88477C69.4832 7.88477 69.7748 7.99637 70.0039 8.22722C70.2453 8.4422 70.3652 8.71594 70.3652 9.04634C70.3652 9.39084 70.2453 9.68345 70.0039 9.92398C69.7757 10.1522 69.4841 10.2673 69.1264 10.2673ZM78.9337 12.1172C80.2183 12.1172 81.2359 12.4902 81.9866 13.2418C82.7487 13.9784 83.1302 15.064 83.1302 16.5028V22.3202H81.3002V16.7119C81.3002 15.733 81.0641 14.9966 80.5936 14.5006C80.1231 14.0045 79.4499 13.7546 78.5724 13.7546C77.5812 13.7546 76.7979 14.0472 76.2279 14.6322C75.6561 15.2032 75.3688 16.0318 75.3688 17.112V22.3193H73.5379V12.2101H75.2912V13.7365C75.6622 13.2132 76.1565 12.8138 76.7794 12.5337C77.4156 12.2561 78.1336 12.1172 78.9337 12.1172ZM86.5189 8.16957H88.3497V22.321H86.5189V8.16957ZM91.8458 12.2119H93.6767V22.321H91.8458V12.2119ZM92.7604 10.2673C92.4053 10.2673 92.1067 10.1522 91.8652 9.92312C91.6379 9.69404 91.5216 9.41551 91.5216 9.08334C91.5216 8.75294 91.6379 8.47437 91.8652 8.24528C92.1067 8.00299 92.4053 7.88477 92.7604 7.88477C93.1181 7.88477 93.4107 7.99637 93.6388 8.22722C93.8803 8.4422 94.0018 8.71594 94.0018 9.04634C94.0018 9.39084 93.8803 9.68345 93.6388 9.92398C93.4107 10.1522 93.1172 10.2673 92.7604 10.2673ZM102.569 12.1172C103.853 12.1172 104.871 12.4902 105.621 13.2418C106.384 13.9784 106.764 15.064 106.764 16.5028V22.3202H104.933V16.7119C104.933 15.733 104.699 14.9966 104.229 14.5006C103.756 14.0045 103.083 13.7546 102.206 13.7546C101.214 13.7546 100.434 14.0472 99.861 14.6322C99.2883 15.2032 99.002 16.0318 99.002 17.112V22.3193H97.1711V12.2101H98.9244V13.7365C99.2945 13.2132 99.7897 12.8138 100.414 12.5337C101.049 12.2561 101.768 12.1172 102.569 12.1172ZM114.081 17.6085L111.983 19.553V22.321H110.152V8.16957H111.983V17.2462L117.495 12.2119H119.708L115.454 16.3867L120.125 22.3202H117.876L114.081 17.6085Z" fill="#141B32"/>
</svg>
