<svg width="210" height="199" viewBox="0 0 210 199" fill="none" xmlns="http://www.w3.org/2000/svg">
<path d="M104.833 172.7V152.244C104.833 129.175 123.531 110.475 146.601 110.475C169.671 110.475 188.371 129.175 188.371 152.244V172.7" stroke="white" stroke-width="0.7132" stroke-miterlimit="10"/>
<path opacity="0.1" d="M186.798 196.863C199.144 196.863 209.152 186.856 209.152 174.511C209.152 162.166 199.144 152.159 186.798 152.159V174.511V196.863Z" fill="#A3ACE5"/>
<path opacity="0.1" d="M105.295 154.272C92.9506 154.272 82.9434 164.279 82.9434 176.625C82.9434 188.969 92.9506 198.977 105.295 198.977V176.625V154.272Z" fill="#A3ACE5"/>
<path d="M112.943 154.272V186.233" stroke="white" stroke-width="0.7132" stroke-miterlimit="10"/>
<path d="M179.611 152.159V186.233" stroke="white" stroke-width="0.7132" stroke-miterlimit="10"/>
<path opacity="0.1" d="M183.462 28.5996C187.327 28.5996 190.461 31.7329 190.461 35.5958V102.935C190.461 106.8 187.327 109.934 183.462 109.934H73.2368C69.3714 109.934 66.2393 106.8 66.2393 102.935V35.5958C66.2393 31.7329 69.3714 28.5996 73.2368 28.5996H183.462Z" fill="#A3ACE5"/>
<g opacity="0.1">
<path opacity="0.1" d="M79.6718 152.942C111.68 152.942 140 137.15 157.268 112.934C140 88.7182 111.68 72.9268 79.6718 72.9268C47.662 72.9268 19.3437 88.7182 2.0752 112.934C19.3437 137.15 47.6628 152.942 79.6718 152.942Z" fill="#A3ACE5"/>
</g>
<path d="M78.89 142.019C94.7517 142.019 107.61 129.161 107.61 113.299C107.61 97.4374 94.7517 84.5791 78.89 84.5791C63.0283 84.5791 50.1699 97.4374 50.1699 113.299C50.1699 129.161 63.0283 142.019 78.89 142.019Z" fill="#B70F93"/>
<path d="M79.6717 126.366C87.0903 126.366 93.1042 120.352 93.1042 112.934C93.1042 105.515 87.0903 99.501 79.6717 99.501C72.2532 99.501 66.2393 105.515 66.2393 112.934C66.2393 120.352 72.2532 126.366 79.6717 126.366Z" fill="#1B1F34"/>
<path d="M57.411 141.134C66.3402 141.134 73.5788 133.896 73.5788 124.966C73.5788 116.037 66.3402 108.798 57.411 108.798C48.4818 108.798 41.2432 116.037 41.2432 124.966C41.2432 133.896 48.4818 141.134 57.411 141.134Z" stroke="white" stroke-width="0.7132" stroke-miterlimit="10"/>
<g opacity="0.6">
<path opacity="0.6" d="M78.8896 153.307C110.899 153.307 139.219 137.516 156.486 113.299" stroke="white" stroke-width="0.7132" stroke-miterlimit="10"/>
<path opacity="0.6" d="M78.8898 73.292C46.8816 73.292 18.5616 89.0843 1.29395 113.299" stroke="white" stroke-width="0.8421" stroke-miterlimit="10"/>
</g>
<path d="M117.688 47.874V90.6589L159.169 69.2669L117.688 47.874Z" fill="#B70F93"/>
<path d="M38.1543 67.1233V1H119.628V22.6775" stroke="white" stroke-width="0.7132" stroke-miterlimit="10"/>
<path d="M38.1543 17.9414H93.1629" stroke="white" stroke-width="0.7132" stroke-miterlimit="10"/>
<path d="M45.999 9.27637H49.884" stroke="white" stroke-width="0.7132" stroke-miterlimit="10"/>
<path d="M56.3857 9.27637H60.2716" stroke="white" stroke-width="0.7132" stroke-miterlimit="10"/>
<path d="M66.3809 9.27637H70.2666" stroke="white" stroke-width="0.7132" stroke-miterlimit="10"/>
<path d="M117.688 61.4707V90.6587L139.617 79.3503" stroke="white" stroke-width="0.6737" stroke-miterlimit="10"/>
</svg>
