<svg width="672" height="449" viewBox="0 0 672 449" fill="none" xmlns="http://www.w3.org/2000/svg">
<path d="M176.284 129.803C176.284 129.803 140.826 153.007 117.36 165.522C93.895 178.037 84.5094 204.545 108.757 216.712C133.004 228.878 175.241 252.344 175.241 252.344" stroke="white" stroke-width="0.5" stroke-miterlimit="10"/>
<path d="M341.441 193.685L73.1543 345.427" stroke="white" stroke-width="0.5" stroke-miterlimit="10"/>
<path d="M73.1543 269.556L143.66 305.549" stroke="white" stroke-width="0.5" stroke-miterlimit="10"/>
<path d="M73.1543 399.397C73.1543 399.397 88.7981 412.36 123.214 436.159C157.629 459.958 176.401 443.981 189.698 436.159C202.995 428.338 314.624 354.132 314.624 354.132" stroke="white" stroke-width="0.5" stroke-miterlimit="10"/>
<path d="M355.521 329.783L446.758 278.127" stroke="white" stroke-width="0.5" stroke-miterlimit="10"/>
<path d="M642.579 286.498C642.579 286.498 593.302 315.705 554.976 336.823C516.649 357.942 491.619 350.642 472.064 338.909C452.51 327.177 408.052 299.471 408.052 299.471" stroke="white" stroke-width="0.5" stroke-miterlimit="10"/>
<path d="M61.4206 272.487C71.7882 272.487 80.1928 267.804 80.1928 262.026C80.1928 256.249 71.7882 251.565 61.4206 251.565C51.053 251.565 42.6484 256.249 42.6484 262.026C42.6484 267.804 51.053 272.487 61.4206 272.487Z" stroke="white" stroke-width="0.5" stroke-miterlimit="10"/>
<path d="M355.521 197.595C365.889 197.595 374.293 192.912 374.293 187.134C374.293 181.357 365.889 176.673 355.521 176.673C345.154 176.673 336.749 181.357 336.749 187.134C336.749 192.912 345.154 197.595 355.521 197.595Z" stroke="white" stroke-width="0.5" stroke-miterlimit="10"/>
<path d="M342.66 71.2543L276.195 112.262V81.8689L342.66 40.8589V71.2543Z" fill="#B70F93"/>
<path d="M342.66 61.4556L276.195 102.462" stroke="white" stroke-width="0.5" stroke-miterlimit="10"/>
<path d="M342.66 51.3276L276.195 92.3341" stroke="white" stroke-width="0.5" stroke-miterlimit="10"/>
<path d="M209.872 70.6686L276.436 111.678V81.869L209.872 40.8589V70.6686Z" stroke="white" stroke-width="0.5" stroke-miterlimit="10"/>
<path d="M276.317 81.8687L209.873 40.8586L276.218 1L342.661 40.8586L276.317 81.8687Z" stroke="white" stroke-width="0.5" stroke-miterlimit="10"/>
<path d="M326.15 229.916L259.941 269.628V128.712L326.15 88.9961V229.916Z" stroke="white" stroke-width="0.5" stroke-miterlimit="10"/>
<path d="M193.936 232.243L260.355 268.618V128.711L193.936 92.3335V232.243Z" stroke="white" stroke-width="0.5" stroke-miterlimit="10"/>
<path d="M260.152 128.711L193.938 92.3334L259.944 50.1411L326.153 88.9954L260.152 128.711Z" stroke="white" stroke-width="0.5" stroke-miterlimit="10"/>
<path d="M378.712 373.241L314.508 412.852V354.132L378.712 314.519V373.241Z" fill="#B70F93"/>
<path d="M250.44 372.674L314.741 412.287V354.132L250.44 314.519V372.674Z" stroke="white" stroke-width="0.5" stroke-miterlimit="10"/>
<path d="M314.627 354.133L250.441 314.52L314.528 273.521L378.714 314.52L314.627 354.133Z" stroke="white" stroke-width="0.5" stroke-miterlimit="10"/>
<path d="M548.778 292.45L509.854 314.484V220.033L548.778 197.997V292.45Z" fill="#B70F93"/>
<path d="M548.778 277.505L509.854 299.539" stroke="white" stroke-width="0.5" stroke-miterlimit="10"/>
<path d="M548.778 264.625L509.854 286.66" stroke="white" stroke-width="0.5" stroke-miterlimit="10"/>
<path d="M548.778 251.268L509.854 273.302" stroke="white" stroke-width="0.5" stroke-miterlimit="10"/>
<path d="M548.778 238.073L509.854 260.108" stroke="white" stroke-width="0.5" stroke-miterlimit="10"/>
<path d="M548.778 225.734L509.854 247.768" stroke="white" stroke-width="0.5" stroke-miterlimit="10"/>
<path d="M548.778 211.669L509.854 233.701" stroke="white" stroke-width="0.5" stroke-miterlimit="10"/>
<path d="M397.442 251.125L510.062 313.979V220.034L397.442 157.177V251.125Z" stroke="white" stroke-width="0.5" stroke-miterlimit="10"/>
<path d="M519.564 309.256V215.31" stroke="white" stroke-width="0.5" stroke-miterlimit="10"/>
<path d="M530.32 303.214V209.268" stroke="white" stroke-width="0.5" stroke-miterlimit="10"/>
<path d="M539.564 297.62V203.675" stroke="white" stroke-width="0.5" stroke-miterlimit="10"/>
<path d="M509.962 220.034L397.445 157.177L436.264 133.906L548.781 197.997L509.962 220.034Z" stroke="white" stroke-width="0.5" stroke-miterlimit="10"/>
<path d="M548.779 198.501L509.855 220.535V186.478L548.779 164.442V198.501Z" stroke="white" stroke-width="0.5" stroke-miterlimit="10" stroke-dasharray="7.42 7.42"/>
<path d="M397.443 157.177L510.063 220.031V186.479L397.443 123.622V157.177Z" stroke="white" stroke-width="0.5" stroke-miterlimit="10" stroke-dasharray="7.42 7.42"/>
<path d="M509.961 186.479L397.443 123.621L436.262 100.352L548.779 164.443L509.961 186.479Z" stroke="white" stroke-width="0.5" stroke-miterlimit="10"/>
<path d="M304.988 405.894L253.973 434.775V417.657L304.988 388.776V405.894Z" stroke="white" stroke-width="0.5" stroke-miterlimit="10"/>
<path d="M203.227 405.894L254.242 434.775V417.657L203.227 388.776V405.894Z" fill="#B70F93"/>
<path d="M254.11 417.657L203.229 387.966L254.108 358.275L304.99 387.966L254.11 417.657Z" stroke="white" stroke-width="0.5" stroke-miterlimit="10"/>
<path d="M242.625 268.59L223.377 280.134V183.579L242.625 172.032V268.59Z" stroke="white" stroke-width="0.5" stroke-miterlimit="10"/>
<path d="M154.74 240.304L223.495 279.841V183.58L154.74 144.043V240.304Z" fill="#B70F93"/>
<path d="M125.991 258.185L194.746 297.72V201.461L125.991 161.923V258.185Z" stroke="white" stroke-width="0.5" stroke-miterlimit="10" stroke-dasharray="7.42 7.42"/>
<path d="M223.438 183.58L154.74 144.043L173.93 131.775L242.624 172.032L223.438 183.58Z" stroke="white" stroke-width="0.5" stroke-miterlimit="10"/>
<path d="M142.414 343.004V362.08C142.414 369.17 139.893 375.866 135.419 381.796L136.09 361.803L106.246 352.704V371.11L135.419 381.796" stroke="white" stroke-width="0.5" stroke-miterlimit="10"/>
<path d="M95.3047 319.46L95.4476 327.087C104.125 330.603 109.063 337.458 109.063 344.47C109.063 347.41 108.053 350.195 106.244 352.704L136.087 361.802C140.142 356.104 142.411 349.73 142.411 343.003C142.411 325.502 127.055 310.394 104.835 303.331L95.3047 319.46ZM95.3047 319.46C103.606 323.019 109.064 329.043 109.064 335.878V344.47" stroke="white" stroke-width="0.5" stroke-miterlimit="10"/>
<path d="M1 371.125V390.202C1 414.469 30.5214 434.136 66.9409 434.136C92.7217 434.136 115.712 422.519 126.556 408.156V389.926" stroke="white" stroke-width="0.5" stroke-miterlimit="10"/>
<path d="M37.1233 364C37.1233 353.062 51.0932 344.204 68.3254 344.204C74.7891 344.204 80.7929 345.45 85.7725 347.584L95.3046 331.451C86.7132 328.719 77.0956 327.19 66.9409 327.19C30.5214 327.19 1 346.857 1 371.124C1 395.391 30.5214 415.057 66.9409 415.057C93.2635 415.057 115.983 404.784 126.556 389.925L96.7125 380.826C91.7893 387.651 80.9316 392.389 68.3244 392.389C51.0921 392.389 37.1222 386.545 37.1222 375.611" fill="#B70F93"/>
<path d="M37.125 375.611C37.125 364.68 51.0949 354.307 68.3271 354.307C74.5014 354.307 80.9333 356.573 85.7742 358.534L95.3063 342.56" stroke="white" stroke-width="0.5" stroke-miterlimit="10"/>
<path d="M85.7734 347.584V358.535" stroke="white" stroke-width="0.5" stroke-miterlimit="10"/>
<path d="M95.3047 331.452V342.561" stroke="white" stroke-width="0.5" stroke-miterlimit="10"/>
<path d="M652.228 289.829C662.596 289.829 671 285.145 671 279.368C671 273.591 662.596 268.907 652.228 268.907C641.861 268.907 633.456 273.591 633.456 279.368C633.456 285.145 641.861 289.829 652.228 289.829Z" stroke="white" stroke-width="0.5" stroke-miterlimit="10"/>
</svg>
