<svg width="220" height="192" viewBox="0 0 220 192" fill="none" xmlns="http://www.w3.org/2000/svg">
<path d="M79.8066 70.7344V50.6995C79.8066 28.1049 98.1219 9.79004 120.716 9.79004C143.311 9.79004 161.626 28.1049 161.626 50.6995V70.7344" stroke="white" stroke-width="0.6985" stroke-miterlimit="10"/>
<path d="M87.75 52.6855V129.4" stroke="white" stroke-width="0.6985" stroke-miterlimit="10"/>
<path d="M153.045 50.6152V83.9871" stroke="white" stroke-width="0.6985" stroke-miterlimit="10"/>
<path d="M188.599 191.467H140.306V118.535L164.003 92.584L188.599 118.535V191.467Z" stroke="white" stroke-width="0.6613" stroke-miterlimit="10"/>
<path d="M1 157.957L34.8045 157.8" stroke="white" stroke-width="0.6985" stroke-miterlimit="10"/>
<path d="M42.891 133.429H34.6523L34.8042 174.716" stroke="white" stroke-width="0.6985" stroke-miterlimit="10"/>
<path d="M43.0799 117.606C52.6558 117.606 60.4186 113.63 60.4186 108.726C60.4186 103.822 52.6558 99.8467 43.0799 99.8467C33.504 99.8467 25.7412 103.822 25.7412 108.726C25.7412 113.63 33.504 117.606 43.0799 117.606Z" stroke="white" stroke-width="0.6985" stroke-miterlimit="10"/>
<path d="M43.2232 174.715L43.0811 126.957L81.463 117.605" stroke="white" stroke-width="0.6985" stroke-miterlimit="10"/>
<path d="M81.4629 117.605H88.0831V188.96" stroke="white" stroke-width="0.6985" stroke-miterlimit="10"/>
<path d="M51.5088 161.27V140.954H73.0623" stroke="white" stroke-width="0.6985" stroke-miterlimit="10"/>
<path d="M51.5088 178.802V168.645H73.0623" stroke="white" stroke-width="0.6985" stroke-miterlimit="10"/>
<path d="M43.2227 117.416V126.957" stroke="white" stroke-width="0.6985" stroke-miterlimit="10"/>
<path d="M150.352 139.489H179.183" stroke="white" stroke-width="0.6985" stroke-miterlimit="10"/>
<path d="M150.352 154.178H179.183" stroke="white" stroke-width="0.6985" stroke-miterlimit="10"/>
<path d="M211.861 35.2734L179.184 75.6765" stroke="white" stroke-width="0.6985" stroke-miterlimit="10"/>
<path d="M196.806 67.3024C196.806 62.5658 200.646 58.7266 205.382 58.7266C210.117 58.7266 213.957 62.5658 213.957 67.3024" stroke="white" stroke-width="0.6985" stroke-miterlimit="10"/>
<path d="M183.899 53.7709C179.162 53.7709 175.322 49.9325 175.322 45.1959C175.322 40.4593 179.162 36.6201 183.899 36.6201" stroke="white" stroke-width="0.6985" stroke-miterlimit="10"/>
<path opacity="0.1" d="M219.793 95.5282C219.793 98.6783 217.24 101.231 214.09 101.231H159.212C156.063 101.231 153.511 98.6783 153.511 95.5282V5.70284C153.511 2.55355 156.063 0 159.212 0H214.09C217.24 0 219.793 2.55355 219.793 5.70284V95.5282Z" fill="#A3ACE5"/>
<path opacity="0.1" d="M193.721 0H179.579V101.231H193.721V0Z" fill="#A3ACE5"/>
<path opacity="0.1" d="M167.066 55.7666H72.2588V170.674H167.066V55.7666Z" fill="#A3ACE5"/>
<path d="M124.011 139.683C137.443 139.683 148.331 128.794 148.331 115.363C148.331 101.931 137.443 91.043 124.011 91.043C110.58 91.043 99.6914 101.931 99.6914 115.363C99.6914 128.794 110.58 139.683 124.011 139.683Z" fill="#B70F93"/>
<path d="M79.8066 70.7344V50.6995C79.8066 28.1049 98.1219 9.79004 120.716 9.79004C143.311 9.79004 161.626 28.1049 161.626 50.6995V70.7344" stroke="white" stroke-width="0.6985" stroke-miterlimit="10"/>
<path d="M87.75 52.6855V129.4" stroke="white" stroke-width="0.6985" stroke-miterlimit="10"/>
<path d="M153.045 50.6162V83.988" stroke="white" stroke-width="0.6985" stroke-miterlimit="10"/>
<path d="M188.599 191.467H140.306V118.535L164.003 92.584L188.599 118.535V191.467Z" stroke="white" stroke-width="0.6613" stroke-miterlimit="10"/>
<path d="M1 157.957L34.8045 157.8" stroke="white" stroke-width="0.6985" stroke-miterlimit="10"/>
<path d="M42.891 133.429H34.6523L34.8042 174.716" stroke="white" stroke-width="0.6985" stroke-miterlimit="10"/>
<path d="M43.0799 117.606C52.6558 117.606 60.4186 113.63 60.4186 108.726C60.4186 103.822 52.6558 99.8467 43.0799 99.8467C33.504 99.8467 25.7412 103.822 25.7412 108.726C25.7412 113.63 33.504 117.606 43.0799 117.606Z" stroke="white" stroke-width="0.6985" stroke-miterlimit="10"/>
<path d="M43.2232 174.715L43.0811 126.957L81.463 117.605" stroke="white" stroke-width="0.6985" stroke-miterlimit="10"/>
<path d="M81.4629 117.605H88.0831V188.96" stroke="white" stroke-width="0.6985" stroke-miterlimit="10"/>
<path d="M51.5088 161.27V140.954H73.0623" stroke="white" stroke-width="0.6985" stroke-miterlimit="10"/>
<path d="M51.5088 178.802V168.645H73.0623" stroke="white" stroke-width="0.6985" stroke-miterlimit="10"/>
<path d="M43.2227 117.416V126.957" stroke="white" stroke-width="0.6985" stroke-miterlimit="10"/>
<path d="M150.352 139.489H179.183" stroke="white" stroke-width="0.6985" stroke-miterlimit="10"/>
<path d="M150.352 154.178H179.183" stroke="white" stroke-width="0.6985" stroke-miterlimit="10"/>
<path d="M211.861 35.2734L179.184 75.6765" stroke="white" stroke-width="0.6985" stroke-miterlimit="10"/>
<path d="M196.806 67.3024C196.806 62.5658 200.646 58.7266 205.382 58.7266C210.117 58.7266 213.957 62.5658 213.957 67.3024" stroke="white" stroke-width="0.6985" stroke-miterlimit="10"/>
<path d="M183.899 53.7709C179.162 53.7709 175.322 49.9325 175.322 45.1959C175.322 40.4593 179.162 36.6201 183.899 36.6201" stroke="white" stroke-width="0.6985" stroke-miterlimit="10"/>
</svg>
