<svg width="172" height="243" viewBox="0 0 172 243" fill="none" xmlns="http://www.w3.org/2000/svg">
<path d="M105.608 219.239C105.608 223.767 101.937 227.437 97.4094 227.437H18.5267C13.9993 227.437 10.3291 223.768 10.3291 219.239V90.1191C10.3291 85.5917 13.9993 81.9219 18.5267 81.9219H97.4094C101.937 81.9219 105.608 85.5909 105.608 90.1191V219.239Z" fill="#B70F93"/>
<path opacity="0.2" d="M38.1643 187.991C38.1643 190.156 36.4089 191.911 34.2434 191.911C32.0779 191.911 30.3232 190.156 30.3232 187.991V116.228C30.3232 114.063 32.0786 112.308 34.2434 112.308C36.4089 112.308 38.1643 114.063 38.1643 116.228V187.991Z" fill="#414042"/>
<path opacity="0.2" d="M61.0539 187.991C61.0539 190.156 59.2978 191.911 57.1338 191.911C54.9683 191.911 53.2129 190.156 53.2129 187.991V116.228C53.2129 114.063 54.9683 112.308 57.1338 112.308C59.2986 112.308 61.0539 114.063 61.0539 116.228V187.991Z" fill="#414042"/>
<path opacity="0.2" d="M84.7093 187.991C84.7093 190.156 82.9531 191.911 80.7891 191.911C78.6236 191.911 76.8682 190.156 76.8682 187.991V116.228C76.8682 114.063 78.6243 112.308 80.7891 112.308C82.9539 112.308 84.7093 114.063 84.7093 116.228V187.991Z" fill="#414042"/>
<path d="M28.8242 49.6913C28.8242 51.356 30.1748 52.7089 31.8425 52.7089H82.3679C84.0342 52.7089 85.3847 51.356 85.3847 49.6913V46.6714C85.3847 45.0044 84.0342 43.6553 82.3679 43.6553H31.8425C30.1748 43.6553 28.8242 45.0044 28.8242 46.6714V49.6913V49.6913Z" stroke="white" stroke-width="0.8141" stroke-miterlimit="10"/>
<path d="M35.999 52.709V83.1087" stroke="white" stroke-width="0.8141" stroke-miterlimit="10"/>
<path d="M78.6006 52.709V83.1087" stroke="white" stroke-width="0.8141" stroke-miterlimit="10"/>
<path d="M31.7744 184.15H83.7055V199.348L74.7578 207.967V219.713" stroke="white" stroke-width="0.8141" stroke-miterlimit="10"/>
<path d="M30.3232 100.611H83.706" stroke="white" stroke-width="0.9612" stroke-miterlimit="10"/>
<path d="M3.35024 15.3121C2.0405 11.9728 0.591797 5.55402 0.591797 5.55402C0.591797 5.55402 2.675 5.09009 4.46437 6.78807C6.25375 8.48831 8.10502 12.5107 11.1928 12.6625C14.2813 12.8136 39.1656 12.6027 43.2459 12.574C49.2976 12.5287 55.0615 14.9388 53.7012 18.4647C52.3401 21.9905 45.3299 21.2567 37.4843 21.219C37.4843 21.219 25.3439 33.0607 23.1368 35.329C20.9283 37.5965 20.0355 38.9021 14.659 38.1113L24.3317 21.1009" stroke="white" stroke-width="0.8141" stroke-miterlimit="10"/>
<path d="M30.161 10.4769C30.161 10.4769 26.509 6.61675 23.7067 4.01086C20.9022 1.41027 17.6128 0.159436 15.207 1.61948L20.3894 10.6458" stroke="white" stroke-width="0.8141" stroke-miterlimit="10"/>
<path d="M32.792 228.096V243" stroke="white" stroke-width="0.8141" stroke-miterlimit="10"/>
<path d="M83.7061 228.096V243" stroke="white" stroke-width="0.8141" stroke-miterlimit="10"/>
<path opacity="0.1" d="M164.452 16.9443H67.5156V154.68H164.452V16.9443Z" fill="#A3ACE5"/>
<path d="M117.501 105.376C133.295 105.376 146.098 92.5726 146.098 76.7786C146.098 60.9847 133.295 48.1816 117.501 48.1816C101.707 48.1816 88.9033 60.9847 88.9033 76.7786C88.9033 92.5726 101.707 105.376 117.501 105.376Z" stroke="white" stroke-width="0.8141" stroke-miterlimit="10"/>
<path d="M96.7871 96.4945C101.997 91.0244 109.351 87.6143 117.501 87.6143C125.65 87.6143 133.004 91.0245 138.213 96.493" stroke="white" stroke-width="0.8141" stroke-miterlimit="10"/>
<path d="M136.716 55.5986C131.638 60.2076 124.898 63.0155 117.501 63.0155C110.104 63.0155 103.363 60.2069 98.2861 55.5986" stroke="white" stroke-width="0.8141" stroke-miterlimit="10"/>
<path d="M117.1 105.376C125.988 105.376 133.193 92.5726 133.193 76.7786C133.193 60.9847 125.988 48.1816 117.1 48.1816C108.211 48.1816 101.006 60.9847 101.006 76.7786C101.006 92.5726 108.211 105.376 117.1 105.376Z" stroke="white" stroke-width="0.8141" stroke-miterlimit="10"/>
<path d="M117.372 48.1816V105.376" stroke="white" stroke-width="0.8141" stroke-miterlimit="10"/>
<path d="M145.969 76.7793H88.7744" stroke="white" stroke-width="0.8141" stroke-miterlimit="10"/>
<path d="M145.53 121.294H88.668V132.852H145.53V121.294Z" fill="#B70F93"/>
<path opacity="0.1" d="M171.556 208.032C171.556 171.725 142.123 142.291 105.813 142.291V208.032H171.556Z" fill="#A3ACE5"/>
</svg>
