<svg width="103" height="31" viewBox="0 0 103 31" fill="none" xmlns="http://www.w3.org/2000/svg">
<path d="M24.0092 18.1514L22.9973 16.8955L21.8422 18.0186C21.8172 18.0416 19.3182 20.4277 15.9032 20.4277C15.8912 20.4277 15.8772 20.4277 15.8612 20.4277C13.2622 20.4137 11.3342 18.9497 10.9532 18.6377L9.14224 20.9365C9.90024 21.5495 12.4082 23.3364 15.8442 23.3564C15.8652 23.3564 15.8852 23.3564 15.9032 23.3564C18.8812 23.3564 21.2672 22.0732 22.6332 21.1182L25.0432 24.1357C22.7512 26.3137 19.0362 27.7246 15.4072 27.7246C11.2602 27.7246 6.21623 25.7036 4.32523 21.9316C5.68823 20.8946 7.78223 18.7472 7.78223 15.3682C7.78223 12.0872 5.86725 10.005 4.55325 8.95996C6.58525 5.30996 10.7992 2.92676 15.4072 2.92676C19.5012 2.92676 22.7982 4.11848 25.0252 6.39648L22.6042 9.32812C21.2152 8.34612 18.7682 7.00783 15.8292 7.04883C12.7432 7.09983 10.2772 8.76666 9.15424 9.68066L10.9542 11.9893C11.7312 11.3503 13.6203 10.0126 15.8763 9.97559C15.9103 9.97559 15.9442 9.97559 15.9782 9.97559C19.2032 9.97559 21.7772 12.397 21.8002 12.418L22.9372 13.5205L28.8182 6.40332L28.1012 5.47754C25.3242 1.89554 20.9362 0 15.4082 0C9.19923 0 3.54523 3.5783 1.33823 8.9043L0.821228 10.1523L2.02124 10.7676C2.04824 10.7816 4.85724 12.2551 4.85724 15.3691C4.85724 18.4631 1.97024 20.0064 1.85324 20.0664L0.740234 20.6318L1.12524 21.8203C3.00524 27.6193 9.73423 30.6523 15.4082 30.6523C20.4022 30.6523 25.3873 28.484 28.1093 25.127L28.8472 24.2109L24.0092 18.1514Z" fill="white"/>
<path d="M61.9147 18.3779C60.7767 22.2529 57.1307 25.0107 52.7497 25.0107C47.0267 25.0107 42.9277 20.4806 42.9277 15.2656C42.9277 10.2776 46.8007 5.56641 52.7257 5.56641C58.1177 5.59341 61.1827 9.56576 61.9147 12.3018H57.9417C57.3587 11.0108 55.6877 8.90879 52.6987 8.88379C49.0547 8.88379 46.6987 11.9476 46.6987 15.2656C46.6987 18.6816 49.1557 21.6953 52.7247 21.6953C56.0677 21.6953 57.5847 19.0599 57.9417 18.3789H61.9147V18.3779Z" fill="white"/>
<path d="M66.8274 18.8076C66.9814 21.0366 68.9544 22.276 70.8534 22.25C72.4734 22.25 73.5634 21.516 74.1944 20.375H77.6124C76.9544 21.922 75.9674 23.0841 74.8044 23.8691C73.6394 24.6821 72.2704 25.084 70.8264 25.084C66.5494 25.084 63.4854 21.6192 63.4854 17.7422C63.4854 13.7952 66.5744 10.3242 70.7754 10.3242C72.8524 10.3242 74.6754 11.1092 75.9664 12.4512C77.6614 14.1992 78.2964 16.3776 78.0164 18.8066H66.8274V18.8076ZM74.7534 16.2764C74.6284 14.9624 73.2334 13.1098 70.8034 13.1348C68.3474 13.1348 67.0054 14.9084 66.8784 16.2764H74.7534Z" fill="white"/>
<path d="M80.5283 10.7549H83.6683V12.5791C84.2743 11.3391 85.4163 10.3501 87.5183 10.3291V13.6689H87.3643C85.0363 13.6689 83.8463 14.7571 83.8463 17.1611V24.6572H80.5293V10.7549H80.5283Z" fill="white"/>
<path d="M91.2151 18.8076C91.3651 21.0366 93.3381 22.276 95.2381 22.25C96.8581 22.25 97.9491 21.516 98.5801 20.375H101.997C101.341 21.922 100.353 23.0841 99.1891 23.8691C98.0251 24.6821 96.6571 25.084 95.2141 25.084C90.9351 25.084 87.8701 21.6192 87.8701 17.7422C87.8701 13.7952 90.9591 10.3242 95.1631 10.3242C97.2371 10.3242 99.0601 11.1092 100.352 12.4512C102.047 14.1992 102.682 16.3776 102.403 18.8066H91.2151V18.8076ZM99.1381 16.2764C99.0101 14.9624 97.6181 13.1098 95.1891 13.1348C92.7351 13.1348 91.3911 14.9084 91.2661 16.2764H99.1381Z" fill="white"/>
</svg>
